<?xml version="1.0" encoding="UTF-8"?>
<!DOCTYPE svg PUBLIC "-//W3C//DTD SVG 1.1//EN" "http://www.w3.org/Graphics/SVG/1.1/DTD/svg11.dtd">
<svg width="810pt" height="1038pt" viewBox="0 0 810 1038" version="1.1" xmlns="http://www.w3.org/2000/svg">
    <g id="#050505ff">
        <path fill="#050505" opacity="1.00" d=" M 54.83 0.00 L 754.12 0.00 C 761.55 2.27 769.25 3.97 776.06 7.89 C 787.94 13.84 797.18 24.16 803.14 35.92 C 806.44 42.15 808.11 49.04 810.00 55.78 L 810.00 982.12 C 807.78 989.05 806.34 996.30 802.78 1002.74 C 794.79 1018.37 780.20 1030.52 763.29 1035.32 C 760.24 1036.17 757.18 1036.99 754.18 1038.00 L 55.90 1038.00 C 52.34 1036.81 48.70 1035.94 45.11 1034.85 C 27.91 1029.45 13.34 1016.44 5.90 1000.04 C 3.15 994.36 2.01 988.12 0.00 982.18 L 0.00 55.84 C 1.04 52.48 1.84 49.05 2.81 45.67 C 7.80 29.49 19.36 15.51 34.32 7.57 C 34.40 7.52 34.57 7.43 34.65 7.39 C 40.91 3.74 48.08 2.39 54.83 0.00 M 57.41 20.64 C 42.49 23.07 29.35 33.65 23.52 47.55 C 21.03 53.36 19.92 59.69 19.99 66.00 C 20.00 368.34 19.97 670.67 20.00 973.01 C 19.86 987.69 27.61 1002.05 39.75 1010.23 C 47.41 1015.50 56.73 1018.18 66.00 1018.02 C 289.00 1018.01 512.00 1018.01 735.00 1018.01 C 742.67 1017.97 750.53 1018.51 757.94 1016.10 C 776.88 1010.70 790.72 991.70 790.01 972.00 C 790.01 670.00 790.01 368.00 790.01 66.00 C 790.08 59.70 788.97 53.36 786.48 47.56 C 779.73 31.23 762.75 19.74 745.01 20.02 C 519.01 19.94 293.00 20.02 67.00 19.98 C 63.79 19.98 60.57 20.10 57.41 20.64 Z" />
        <path fill="#050505" opacity="1.00" d=" M 326.61 895.58 C 340.01 883.27 350.00 867.59 356.80 850.78 C 362.11 852.45 367.49 853.93 372.78 855.66 C 372.27 857.11 371.76 858.57 371.25 860.04 C 379.26 874.95 390.39 888.11 403.51 898.78 C 398.65 903.00 394.21 907.70 390.31 912.83 C 379.33 902.40 370.77 889.77 363.16 876.76 C 355.65 890.13 346.19 902.43 334.67 912.59 C 332.85 910.69 331.13 908.71 329.31 906.83 C 329.01 907.48 328.41 908.79 328.10 909.44 C 305.61 909.36 283.11 909.46 260.62 909.38 C 260.57 904.79 260.56 900.19 260.62 895.61 C 263.06 895.58 265.49 895.58 267.93 895.63 C 268.09 884.03 267.96 872.43 268.00 860.83 C 272.89 860.81 277.79 860.70 282.68 860.93 C 282.76 872.49 282.41 884.08 282.86 895.64 C 285.43 895.58 288.01 895.58 290.59 895.59 C 290.61 881.33 290.54 867.08 290.63 852.82 C 295.81 852.79 300.99 852.78 306.17 852.83 C 306.22 858.20 306.20 863.58 306.18 868.97 C 313.24 869.03 320.31 868.98 327.38 869.00 C 327.44 873.66 327.44 878.33 327.38 883.00 C 320.31 883.02 313.24 882.96 306.18 883.03 C 306.20 887.22 306.17 891.42 306.23 895.61 C 313.02 895.56 319.82 895.60 326.61 895.58 Z" />
        <path fill="#050505" opacity="1.00" d=" M 160.28 861.46 C 184.68 859.77 209.13 857.38 233.02 851.98 C 236.57 856.43 239.10 861.79 242.02 866.73 C 232.14 869.08 222.08 870.58 212.03 872.00 C 211.98 876.77 212.00 881.54 212.01 886.31 C 224.89 886.37 237.78 886.34 250.67 886.33 C 250.65 891.53 250.63 896.74 250.69 901.95 C 237.80 902.07 224.90 901.96 212.01 902.01 C 212.00 906.61 211.98 911.21 212.04 915.82 C 221.81 915.79 231.59 915.79 241.37 915.82 C 241.44 931.27 241.44 946.72 241.37 962.18 C 215.92 962.21 190.46 962.21 165.00 962.17 C 165.00 946.72 165.00 931.27 165.00 915.83 C 174.60 915.77 184.20 915.83 193.80 915.80 C 193.81 911.20 193.79 906.62 193.82 902.03 C 180.65 901.92 167.48 902.09 154.31 901.95 C 154.37 896.74 154.35 891.53 154.33 886.33 C 167.49 886.31 180.65 886.44 193.82 886.27 C 193.80 882.15 193.81 878.03 193.81 873.92 C 184.14 874.34 174.51 875.51 164.82 875.42 C 163.79 870.62 162.32 865.92 160.28 861.46 M 182.01 930.01 C 182.00 936.00 182.00 941.99 182.01 947.99 C 195.88 947.96 209.76 948.09 223.64 947.93 C 223.56 941.97 223.56 936.02 223.64 930.07 C 209.76 929.91 195.88 930.04 182.01 930.01 Z" />
        <path fill="#050505" opacity="1.00" d=" M 425.28 851.76 C 430.75 851.47 436.25 851.47 441.73 851.77 C 441.62 861.11 441.59 870.47 441.74 879.82 C 446.71 879.82 451.70 879.70 456.68 879.92 C 456.66 885.36 456.60 890.80 456.72 896.24 C 451.77 896.57 446.82 896.39 441.87 896.36 C 441.42 903.73 441.72 911.12 441.71 918.51 C 446.19 917.38 450.66 916.17 455.13 914.99 C 456.04 920.36 456.85 925.76 457.59 931.17 C 452.31 932.81 447.01 934.42 441.71 935.98 C 441.59 947.33 441.67 958.68 441.67 970.04 C 441.63 975.29 441.76 981.69 437.22 985.28 C 431.01 990.18 422.58 989.56 415.13 989.68 C 414.15 984.07 412.66 978.52 410.39 973.29 C 415.27 973.28 420.20 973.67 425.05 972.93 C 425.67 962.28 425.26 951.58 425.27 940.91 C 420.69 942.08 416.19 943.50 411.64 944.72 C 410.18 938.90 408.68 933.07 407.64 927.17 C 413.61 926.11 419.43 924.40 425.32 922.99 C 425.25 914.11 425.59 905.22 425.14 896.36 C 419.76 896.44 414.38 896.43 409.00 896.38 C 408.99 890.86 409.00 885.34 409.00 879.83 C 414.42 879.78 419.84 879.80 425.26 879.82 C 425.41 870.47 425.37 861.11 425.28 851.76 Z" />
        <path fill="#050505" opacity="1.00" d=" M 113.69 865.97 C 118.04 862.55 122.40 859.15 126.85 855.88 C 135.10 862.95 143.15 870.42 149.54 879.25 C 145.55 883.57 140.34 886.94 135.84 890.83 C 129.54 881.62 121.62 873.74 113.69 865.97 Z" />
        <path fill="#050505" opacity="1.00" d=" M 465.05 856.31 C 489.68 856.37 514.32 856.37 538.95 856.31 C 539.07 873.59 538.96 890.88 539.00 908.18 C 514.33 908.21 489.67 908.21 465.00 908.17 C 465.03 890.88 464.93 873.59 465.05 856.31 M 481.68 868.69 C 481.65 871.12 481.65 873.55 481.67 875.99 C 495.06 875.99 508.44 876.04 521.83 875.96 C 521.80 873.55 521.80 871.14 521.82 868.74 C 508.44 868.57 495.06 868.66 481.68 868.69 M 481.67 888.01 C 481.65 890.43 481.65 892.86 481.68 895.31 C 495.06 895.34 508.44 895.42 521.82 895.26 C 521.80 892.85 521.80 890.44 521.83 888.04 C 508.44 887.96 495.06 888.01 481.67 888.01 Z" />
        <path fill="#050505" opacity="1.00" d=" M 574.31 861.05 C 609.59 860.93 644.88 861.03 680.17 861.00 C 680.21 867.00 680.21 873.00 680.17 879.00 C 644.88 878.96 609.59 879.07 574.31 878.95 C 574.36 872.98 574.36 867.01 574.31 861.05 Z" />
        <path fill="#050505" opacity="1.00" d=" M 348.27 901.78 C 352.72 899.40 357.31 897.31 361.88 895.21 C 366.60 900.76 371.02 906.59 374.78 912.84 C 370.15 915.23 365.62 917.82 360.96 920.16 L 360.28 919.91 C 356.70 913.59 352.67 907.55 348.27 901.78 Z" />
        <path fill="#050505" opacity="1.00" d=" M 560.62 897.00 C 605.14 897.00 649.66 897.00 694.18 897.00 C 694.21 903.05 694.21 909.11 694.17 915.17 C 675.36 915.22 656.55 915.20 637.74 915.18 C 637.53 933.77 637.75 952.35 637.63 970.94 C 637.42 975.97 637.34 981.72 633.51 985.51 C 629.61 989.11 624.15 990.19 619.07 990.96 C 612.23 991.80 605.34 991.67 598.47 991.66 C 597.24 985.08 594.92 978.79 592.27 972.68 C 600.13 972.87 608.01 973.24 615.86 972.86 C 617.88 972.82 618.07 970.58 617.99 969.06 C 617.99 951.10 618.04 933.14 617.97 915.18 C 598.85 915.21 579.74 915.21 560.63 915.18 C 560.56 909.12 560.56 903.06 560.62 897.00 Z" />
        <path fill="#050505" opacity="1.00" d=" M 111.62 905.00 C 123.31 905.03 135.00 904.93 146.69 905.05 C 146.59 922.04 146.71 939.04 146.63 956.04 C 146.86 957.34 146.06 959.51 147.72 960.14 C 154.87 964.00 161.87 968.51 169.94 970.22 C 183.73 973.25 197.98 972.93 212.01 972.56 C 225.46 972.02 238.89 971.06 252.26 969.57 C 250.28 975.23 248.37 980.97 247.70 986.96 C 232.84 988.07 217.94 988.31 203.05 988.66 C 187.41 988.63 170.98 988.53 156.70 981.29 C 152.25 979.26 148.28 976.31 143.77 974.40 C 140.33 972.77 136.78 975.00 134.22 977.21 C 129.49 981.28 125.58 986.19 121.70 991.06 C 117.85 986.05 114.29 980.84 110.50 975.79 C 116.01 970.03 122.60 965.36 129.59 961.57 C 129.62 948.33 129.52 935.09 129.64 921.86 C 123.69 921.44 117.72 921.69 111.76 921.72 C 111.41 916.15 111.63 910.57 111.62 905.00 Z" />
        <path fill="#050505" opacity="1.00" d=" M 290.44 911.26 C 294.89 911.68 299.34 912.00 303.79 912.44 C 303.28 921.05 302.15 929.62 300.49 938.08 C 300.21 939.55 301.73 940.49 302.36 941.68 C 305.87 946.29 308.99 951.18 311.94 956.17 C 312.08 942.11 311.96 928.06 312.00 914.00 C 316.67 913.99 321.33 913.99 326.00 914.00 C 325.97 939.56 326.07 965.13 325.95 990.69 C 321.32 990.63 316.68 990.63 312.05 990.69 C 311.99 988.26 311.99 985.83 312.00 983.41 C 295.99 984.36 280.01 985.70 264.00 986.42 C 264.00 962.56 264.00 938.69 264.00 914.83 C 268.79 914.78 273.58 914.78 278.37 914.83 C 278.49 929.30 278.34 943.78 278.45 958.26 C 281.62 954.44 283.48 949.75 285.03 945.09 C 288.59 934.16 289.48 922.63 290.44 911.26 M 286.85 970.28 C 284.11 967.46 281.47 964.52 278.40 962.06 C 278.40 965.26 278.42 968.45 278.40 971.66 C 289.60 971.10 300.81 970.78 311.99 969.94 C 311.99 966.54 312.01 963.14 311.98 959.74 C 309.00 962.33 306.13 965.04 303.20 967.68 C 300.99 963.23 298.60 958.86 295.90 954.70 C 293.44 960.19 290.66 965.58 286.85 970.28 Z" />
        <path fill="#050505" opacity="1.00" d=" M 457.83 914.83 C 487.34 914.78 516.86 914.80 546.37 914.82 C 546.44 919.67 546.43 924.53 546.38 929.38 C 534.28 929.42 522.17 929.45 510.07 929.36 C 509.96 933.78 509.96 938.21 510.07 942.64 C 519.62 942.64 529.18 942.39 538.72 942.76 C 538.55 947.10 538.77 951.45 538.62 955.80 L 537.99 956.38 C 528.69 956.45 519.38 956.43 510.08 956.36 C 509.95 962.16 509.99 967.96 510.04 973.76 C 523.52 974.26 537.02 973.88 550.51 974.00 C 548.21 978.98 546.65 984.27 545.76 989.68 C 530.36 989.08 514.68 991.16 499.54 987.64 C 488.91 985.25 480.09 977.84 474.72 968.52 C 470.65 976.92 465.89 985.17 458.96 991.57 C 454.83 987.68 450.47 984.04 445.81 980.82 C 459.55 969.36 464.73 951.14 466.59 934.01 C 472.08 934.15 477.51 935.09 482.96 935.79 C 482.31 940.83 481.25 945.81 480.27 950.80 C 482.45 957.75 486.81 964.23 492.94 968.31 C 493.03 955.33 493.06 942.34 492.92 929.36 C 481.23 929.45 469.54 929.42 457.85 929.38 C 457.77 924.52 457.78 919.67 457.83 914.83 Z" />
        <path fill="#050505" opacity="1.00" d=" M 332.76 921.28 C 346.17 921.43 359.59 921.30 373.00 921.35 C 377.34 921.30 381.78 921.74 386.00 920.40 C 390.04 923.02 394.09 925.64 398.15 928.24 C 391.09 942.84 381.56 956.04 371.81 968.93 C 375.82 972.21 379.84 975.50 383.69 978.98 C 380.38 983.67 376.94 988.28 373.67 993.01 C 360.67 980.43 346.29 969.44 332.34 957.96 C 335.48 953.94 338.44 949.77 341.80 945.93 C 347.33 950.07 352.78 954.33 358.24 958.57 C 363.83 951.78 368.96 944.59 373.45 937.04 C 359.84 936.95 346.23 937.02 332.62 937.00 C 332.62 931.75 332.41 926.51 332.76 921.28 Z" />
        <path fill="#050505" opacity="1.00" d=" M 652.84 932.33 C 658.49 930.07 664.05 927.58 669.71 925.34 C 679.45 939.35 688.88 953.93 694.60 970.11 C 688.47 972.85 682.43 975.85 676.13 978.18 C 673.86 973.24 672.50 967.89 669.96 963.04 C 665.17 952.31 658.95 942.33 652.84 932.33 Z" />
        <path fill="#050505" opacity="1.00" d=" M 582.05 925.93 C 588.36 927.63 594.70 929.21 601.00 930.94 C 594.50 948.17 584.84 964.24 572.64 978.04 C 567.29 974.10 561.72 970.46 555.90 967.24 C 567.81 955.85 576.46 941.35 582.05 925.93 Z" />
    </g>
    <g id="#1497dbff">
        <path fill="#1497db" opacity="1.00" d=" M 34.32 7.57 C 34.40 7.52 34.57 7.43 34.65 7.39 C 34.57 7.43 34.40 7.52 34.32 7.57 Z" />
        <path fill="#1497db" opacity="1.00" d=" M 107.99 86.96 C 114.56 85.59 121.27 84.65 128.00 85.00 C 312.34 85.02 496.67 85.01 681.01 85.00 C 695.98 84.46 711.79 87.65 723.60 97.41 C 728.55 101.80 733.60 106.36 736.73 112.30 C 742.33 120.77 744.00 131.06 744.98 140.98 C 744.99 369.97 745.01 598.97 744.97 827.97 C 518.32 828.00 291.67 828.01 65.03 827.97 C 64.98 601.65 65.03 375.32 65.00 149.00 C 64.66 138.27 66.17 127.31 70.42 117.39 C 77.76 102.50 91.60 90.53 107.99 86.96 M 294.96 248.31 C 294.40 261.90 294.72 275.53 294.79 289.13 C 338.87 289.41 382.95 289.02 427.03 289.34 C 434.29 289.15 440.93 295.68 440.73 302.97 C 440.77 320.31 440.66 337.66 440.74 355.00 C 440.76 358.65 440.88 362.58 438.80 365.76 C 436.22 370.19 431.07 372.72 426.00 372.45 C 407.33 372.39 388.67 372.41 370.00 372.41 C 358.37 372.37 346.67 372.54 335.18 374.49 C 322.54 376.72 311.29 384.61 304.14 395.16 C 294.28 409.30 291.21 427.06 291.31 444.00 C 291.37 474.29 291.36 504.58 291.31 534.87 C 357.15 535.07 423.00 534.94 488.83 534.93 C 488.95 521.54 488.88 508.15 488.87 494.75 C 468.92 494.37 448.96 494.70 429.00 494.59 C 399.32 494.63 369.63 494.51 339.95 494.65 C 339.36 489.12 339.75 483.55 339.66 478.00 C 339.72 466.35 339.53 454.69 339.75 443.04 C 340.21 435.77 340.84 427.65 346.06 422.03 C 349.97 417.55 355.82 415.41 361.57 414.56 C 373.63 412.74 385.85 413.40 398.00 413.27 C 415.68 413.18 433.36 413.44 451.03 413.21 C 471.30 412.24 488.97 394.28 489.44 373.97 C 489.53 345.65 489.45 317.34 489.48 289.02 C 489.45 275.07 481.52 261.56 469.60 254.42 C 463.13 250.51 455.62 248.34 448.06 248.34 C 397.03 248.32 345.99 248.38 294.96 248.31 M 205.01 251.02 C 188.94 263.03 172.72 275.41 154.03 283.10 C 154.05 297.48 153.94 311.86 154.09 326.24 C 158.51 324.51 162.64 322.16 166.68 319.70 C 176.77 314.62 186.57 309.00 196.33 303.32 C 199.84 301.42 202.78 298.21 206.92 297.74 C 207.17 376.81 206.93 455.89 207.04 534.96 C 222.68 534.99 238.32 534.99 253.96 534.96 C 253.98 439.99 253.99 345.01 253.96 250.04 C 239.29 249.98 224.63 250.08 209.97 249.98 C 208.27 250.02 206.42 249.90 205.01 251.02 M 581.98 323.97 C 581.99 340.30 582.04 356.64 581.98 372.98 C 566.64 373.04 551.30 372.98 535.96 372.99 C 532.87 372.49 531.01 375.34 529.24 377.36 C 528.64 384.55 529.16 391.82 528.99 399.04 C 528.61 402.18 531.59 404.79 534.15 405.90 C 550.08 406.18 566.04 405.88 581.98 406.02 C 582.04 422.36 581.98 438.70 581.98 455.03 C 581.55 458.26 584.73 461.45 587.96 461.02 C 595.32 461.00 602.68 461.01 610.04 461.02 C 613.26 461.45 616.45 458.26 616.02 455.03 C 616.01 438.70 615.96 422.36 616.03 406.02 C 631.68 405.93 647.33 406.07 662.99 405.98 C 665.19 406.21 666.49 404.09 667.78 402.65 C 668.34 394.78 667.86 386.86 668.02 378.96 C 668.45 375.73 665.26 372.54 662.03 372.98 C 646.69 372.98 631.36 373.04 616.02 372.98 C 615.96 356.64 616.01 340.30 616.02 323.97 C 616.45 320.74 613.26 317.55 610.04 317.99 C 602.68 317.99 595.32 317.99 587.96 317.99 C 584.73 317.55 581.54 320.74 581.98 323.97 M 187.86 685.86 C 176.07 694.38 169.79 708.81 168.72 723.03 C 167.31 737.94 171.15 754.15 182.12 764.88 C 191.39 774.35 205.05 778.06 218.00 778.01 C 227.88 778.13 238.33 775.62 245.78 768.79 C 252.48 762.60 255.21 753.28 255.72 744.42 C 253.91 744.23 252.10 744.04 250.30 743.87 C 248.94 750.90 247.05 758.52 241.49 763.48 C 234.30 769.52 224.10 770.47 215.16 768.85 C 205.87 767.10 198.13 760.26 194.13 751.85 C 189.31 741.75 188.55 730.22 189.59 719.23 C 190.94 707.49 195.77 695.69 204.90 687.89 C 213.57 680.23 228.20 680.22 236.41 688.59 C 243.42 694.75 245.94 704.02 249.13 712.42 C 251.11 712.67 254.10 712.55 254.22 709.93 C 254.15 699.28 253.49 688.63 253.63 677.97 C 252.11 677.83 250.58 677.69 249.06 677.56 C 248.02 678.87 247.00 680.20 245.96 681.52 C 240.38 680.12 235.05 677.80 229.38 676.76 C 215.07 674.24 199.74 677.43 187.86 685.86 M 303.07 680.03 C 294.10 703.06 285.23 726.14 276.21 749.15 C 273.58 755.46 271.09 762.18 266.02 766.99 C 263.55 769.38 260.01 769.83 256.77 770.30 C 256.52 772.29 256.56 775.45 259.16 775.70 C 268.12 775.94 277.09 775.68 286.06 775.81 C 287.64 775.63 289.77 776.24 290.70 774.53 C 291.76 773.38 291.09 771.69 291.19 770.32 C 287.87 769.69 283.80 769.37 281.81 766.20 C 279.34 762.53 280.80 757.91 282.06 754.08 C 284.04 748.79 286.09 743.53 288.22 738.31 C 297.32 738.37 306.42 738.21 315.51 738.40 C 317.95 744.92 320.79 751.28 323.25 757.79 C 324.28 760.65 325.11 764.34 322.78 766.81 C 320.01 769.86 315.48 769.59 311.75 770.28 C 311.32 772.59 311.94 776.17 315.03 775.76 C 329.30 775.77 343.58 775.85 357.84 775.73 C 360.69 775.61 360.53 772.31 360.22 770.26 C 356.45 769.60 352.16 769.59 349.16 766.88 C 346.14 763.93 344.51 759.93 342.81 756.15 C 332.02 730.23 321.27 704.29 310.60 678.32 C 308.14 678.62 304.05 676.81 303.07 680.03 M 362.41 678.45 C 360.73 679.69 361.06 681.86 360.97 683.69 C 364.91 684.28 369.58 684.35 372.39 687.63 C 375.23 691.06 374.98 695.83 375.22 700.03 C 375.20 718.35 375.26 736.68 375.19 755.01 C 374.93 759.27 374.89 764.35 371.29 767.31 C 368.44 770.01 364.24 769.75 360.62 770.24 C 360.52 772.20 361.12 774.05 362.22 775.69 C 378.82 775.90 395.44 775.73 412.04 775.77 C 423.43 775.47 435.65 775.01 445.43 768.44 C 456.43 761.11 462.12 747.90 463.00 735.04 C 464.27 719.49 459.33 703.03 447.98 692.02 C 439.40 683.26 427.17 678.88 415.06 678.43 C 400.05 677.98 385.02 678.34 370.01 678.20 C 367.47 678.22 364.92 678.04 362.41 678.45 M 471.21 681.72 C 473.22 685.14 478.07 683.77 481.01 685.97 C 485.57 688.99 485.47 695.07 485.66 699.93 C 485.69 717.97 485.70 736.02 485.65 754.07 C 485.41 758.30 485.70 763.22 482.57 766.55 C 479.69 769.84 475.00 769.76 471.02 770.33 C 471.05 772.45 471.44 775.57 474.15 775.71 C 488.09 775.85 502.05 775.79 515.99 775.74 C 519.05 776.10 519.09 772.37 519.10 770.25 C 515.32 769.80 510.95 769.84 508.11 766.89 C 504.98 763.80 504.90 759.08 504.77 754.98 C 504.82 746.60 504.68 738.23 504.86 729.86 C 512.76 729.63 520.68 730.00 528.57 729.41 C 535.57 728.70 542.76 725.87 547.15 720.13 C 551.57 714.51 552.24 706.87 551.16 700.02 C 549.59 690.35 541.69 682.35 532.40 679.72 C 526.72 678.35 520.84 678.37 515.04 678.22 C 501.70 678.23 488.36 678.19 475.02 678.23 C 473.09 677.96 470.91 679.69 471.21 681.72 M 597.14 678.17 C 587.24 702.73 578.06 727.58 568.20 752.15 C 565.82 757.71 563.36 763.62 558.57 767.56 C 556.15 769.57 552.90 769.80 549.94 770.31 C 549.87 772.43 549.97 776.10 553.01 775.74 C 562.62 775.80 572.24 775.86 581.85 775.71 C 584.54 775.62 584.68 772.49 584.83 770.48 C 581.55 769.72 577.59 769.58 575.41 766.63 C 572.61 763.31 573.75 758.70 574.96 754.97 C 576.94 749.38 579.28 743.93 581.33 738.37 C 590.43 738.28 599.53 738.28 608.63 738.37 C 610.86 743.81 613.05 749.27 615.31 754.70 C 616.63 758.13 618.40 762.04 616.83 765.69 C 614.40 769.76 609.07 769.55 604.97 770.29 C 604.85 772.42 604.97 776.10 608.01 775.74 C 622.30 775.80 636.60 775.84 650.88 775.73 C 653.81 775.84 653.92 772.45 653.89 770.35 C 649.75 769.49 644.81 769.64 641.75 766.26 C 638.78 762.92 637.20 758.66 635.38 754.65 C 624.81 729.20 614.32 703.71 603.73 678.27 C 601.53 678.22 599.33 678.19 597.14 678.17 Z" />
        <path fill="#1497db" opacity="1.00" d=" M 394.28 684.87 C 404.25 684.01 415.15 684.38 423.70 690.24 C 436.22 698.73 442.46 714.22 442.45 729.00 C 442.77 741.51 438.69 754.68 429.27 763.29 C 424.41 767.88 417.58 769.76 411.02 769.73 C 406.49 769.86 401.43 769.30 398.07 765.92 C 394.71 762.56 394.40 757.53 394.32 753.06 C 394.29 730.33 394.38 707.60 394.28 684.87 Z" />
        <path fill="#1497db" opacity="1.00" d=" M 504.86 684.71 C 511.29 684.51 518.59 683.65 523.91 688.10 C 533.51 696.10 533.65 713.74 522.85 720.83 C 517.47 724.03 510.86 723.36 504.86 723.31 C 504.73 710.44 504.73 697.57 504.86 684.71 Z" />
        <path fill="#1497db" opacity="1.00" d=" M 290.98 731.12 C 294.42 722.07 297.46 712.81 301.56 704.03 C 305.06 713.08 309.07 721.94 312.27 731.10 C 305.17 731.31 298.07 731.27 290.98 731.12 Z" />
        <path fill="#1497db" opacity="1.00" d=" M 594.45 704.02 C 598.60 712.83 602.10 721.97 605.49 731.10 C 598.38 731.31 591.26 731.27 584.15 731.12 C 587.49 722.05 591.03 713.06 594.45 704.02 Z" />
    </g>
    <g id="#ffffffff">
        <path fill="#ffffff" opacity="1.00" d=" M 57.41 20.64 C 60.57 20.10 63.79 19.98 67.00 19.98 C 293.00 20.02 519.01 19.94 745.01 20.02 C 762.75 19.74 779.73 31.23 786.48 47.56 C 788.97 53.36 790.08 59.70 790.01 66.00 C 790.01 368.00 790.01 670.00 790.01 972.00 C 790.72 991.70 776.88 1010.70 757.94 1016.10 C 750.53 1018.51 742.67 1017.97 735.00 1018.01 C 512.00 1018.01 289.00 1018.01 66.00 1018.02 C 56.73 1018.18 47.41 1015.50 39.75 1010.23 C 27.61 1002.05 19.86 987.69 20.00 973.01 C 19.97 670.67 20.00 368.34 19.99 66.00 C 19.92 59.69 21.03 53.36 23.52 47.55 C 29.35 33.65 42.49 23.07 57.41 20.64 M 107.99 86.96 C 91.60 90.53 77.76 102.50 70.42 117.39 C 66.17 127.31 64.66 138.27 65.00 149.00 C 65.03 375.32 64.98 601.65 65.03 827.97 C 291.67 828.01 518.32 828.00 744.97 827.97 C 745.01 598.97 744.99 369.97 744.98 140.98 C 744.00 131.06 742.33 120.77 736.73 112.30 C 733.60 106.36 728.55 101.80 723.60 97.41 C 711.79 87.65 695.98 84.46 681.01 85.00 C 496.67 85.01 312.34 85.02 128.00 85.00 C 121.27 84.65 114.56 85.59 107.99 86.96 M 326.61 895.58 C 319.82 895.60 313.02 895.56 306.23 895.61 C 306.17 891.42 306.20 887.22 306.18 883.03 C 313.24 882.96 320.31 883.02 327.38 883.00 C 327.44 878.33 327.44 873.66 327.38 869.00 C 320.31 868.98 313.24 869.03 306.18 868.97 C 306.20 863.58 306.22 858.20 306.17 852.83 C 300.99 852.78 295.81 852.79 290.63 852.82 C 290.54 867.08 290.61 881.33 290.59 895.59 C 288.01 895.58 285.43 895.58 282.86 895.64 C 282.41 884.08 282.76 872.49 282.68 860.93 C 277.79 860.70 272.89 860.81 268.00 860.83 C 267.96 872.43 268.09 884.03 267.93 895.63 C 265.49 895.58 263.06 895.58 260.62 895.61 C 260.56 900.19 260.57 904.79 260.62 909.38 C 283.11 909.46 305.61 909.36 328.10 909.44 C 328.41 908.79 329.01 907.48 329.31 906.83 C 331.13 908.71 332.85 910.69 334.67 912.59 C 346.19 902.43 355.65 890.13 363.16 876.76 C 370.77 889.77 379.33 902.40 390.31 912.83 C 394.21 907.70 398.65 903.00 403.51 898.78 C 390.39 888.11 379.26 874.95 371.25 860.04 C 371.76 858.57 372.27 857.11 372.78 855.66 C 367.49 853.93 362.11 852.45 356.80 850.78 C 350.00 867.59 340.01 883.27 326.61 895.58 M 160.28 861.46 C 162.32 865.92 163.79 870.62 164.82 875.42 C 174.51 875.51 184.14 874.34 193.81 873.92 C 193.81 878.03 193.80 882.15 193.82 886.27 C 180.65 886.44 167.49 886.31 154.33 886.33 C 154.35 891.53 154.37 896.74 154.31 901.95 C 167.48 902.09 180.65 901.92 193.82 902.03 C 193.79 906.62 193.81 911.20 193.80 915.80 C 184.20 915.83 174.60 915.77 165.00 915.83 C 165.00 931.27 165.00 946.72 165.00 962.17 C 190.46 962.21 215.92 962.21 241.37 962.18 C 241.44 946.72 241.44 931.27 241.37 915.82 C 231.59 915.79 221.81 915.79 212.04 915.82 C 211.98 911.21 212.00 906.61 212.01 902.01 C 224.90 901.96 237.80 902.07 250.69 901.95 C 250.63 896.74 250.65 891.53 250.67 886.33 C 237.78 886.34 224.89 886.37 212.01 886.31 C 212.00 881.54 211.98 876.77 212.03 872.00 C 222.08 870.58 232.14 869.08 242.02 866.73 C 239.10 861.79 236.57 856.43 233.02 851.98 C 209.13 857.38 184.68 859.77 160.28 861.46 M 425.28 851.76 C 425.37 861.11 425.41 870.47 425.26 879.82 C 419.84 879.80 414.42 879.78 409.00 879.83 C 409.00 885.34 408.99 890.86 409.00 896.38 C 414.38 896.43 419.76 896.44 425.14 896.36 C 425.59 905.22 425.25 914.11 425.32 922.99 C 419.43 924.40 413.61 926.11 407.64 927.17 C 408.68 933.07 410.18 938.90 411.64 944.72 C 416.19 943.50 420.69 942.08 425.27 940.91 C 425.26 951.58 425.67 962.28 425.05 972.93 C 420.20 973.67 415.27 973.28 410.39 973.29 C 412.66 978.52 414.15 984.07 415.13 989.68 C 422.58 989.56 431.01 990.18 437.22 985.28 C 441.76 981.69 441.63 975.29 441.67 970.04 C 441.67 958.68 441.59 947.33 441.71 935.98 C 447.01 934.42 452.31 932.81 457.59 931.17 C 456.85 925.76 456.04 920.36 455.13 914.99 C 450.66 916.17 446.19 917.38 441.71 918.51 C 441.72 911.12 441.42 903.73 441.87 896.36 C 446.82 896.39 451.77 896.57 456.72 896.24 C 456.60 890.80 456.66 885.36 456.68 879.92 C 451.70 879.70 446.71 879.82 441.74 879.82 C 441.59 870.47 441.62 861.11 441.73 851.77 C 436.25 851.47 430.75 851.47 425.28 851.76 M 113.69 865.97 C 121.62 873.74 129.54 881.62 135.84 890.83 C 140.34 886.94 145.55 883.57 149.54 879.25 C 143.15 870.42 135.10 862.95 126.85 855.88 C 122.40 859.15 118.04 862.55 113.69 865.97 M 465.05 856.31 C 464.93 873.59 465.03 890.88 465.00 908.17 C 489.67 908.21 514.33 908.21 539.00 908.18 C 538.96 890.88 539.07 873.59 538.95 856.31 C 514.32 856.37 489.68 856.37 465.05 856.31 M 574.31 861.05 C 574.36 867.01 574.36 872.98 574.31 878.95 C 609.59 879.07 644.88 878.96 680.17 879.00 C 680.21 873.00 680.21 867.00 680.17 861.00 C 644.88 861.03 609.59 860.93 574.31 861.05 M 348.27 901.78 C 352.67 907.55 356.70 913.59 360.28 919.91 L 360.96 920.16 C 365.62 917.82 370.15 915.23 374.78 912.84 C 371.02 906.59 366.60 900.76 361.88 895.21 C 357.31 897.31 352.72 899.40 348.27 901.78 M 560.62 897.00 C 560.56 903.06 560.56 909.12 560.63 915.18 C 579.74 915.21 598.85 915.21 617.97 915.18 C 618.04 933.14 617.99 951.10 617.99 969.06 C 618.07 970.58 617.88 972.82 615.86 972.86 C 608.01 973.24 600.13 972.87 592.27 972.68 C 594.92 978.79 597.24 985.08 598.47 991.66 C 605.34 991.67 612.23 991.80 619.07 990.96 C 624.15 990.19 629.61 989.11 633.51 985.51 C 637.34 981.72 637.42 975.97 637.63 970.94 C 637.75 952.35 637.53 933.77 637.74 915.18 C 656.55 915.20 675.36 915.22 694.17 915.17 C 694.21 909.11 694.21 903.05 694.18 897.00 C 649.66 897.00 605.14 897.00 560.62 897.00 M 111.62 905.00 C 111.63 910.57 111.41 916.15 111.76 921.72 C 117.72 921.69 123.69 921.44 129.64 921.86 C 129.52 935.09 129.62 948.33 129.59 961.57 C 122.60 965.36 116.01 970.03 110.50 975.79 C 114.29 980.84 117.85 986.05 121.70 991.06 C 125.58 986.19 129.49 981.28 134.22 977.21 C 136.78 975.00 140.33 972.77 143.77 974.40 C 148.28 976.31 152.25 979.26 156.70 981.29 C 170.98 988.53 187.41 988.63 203.05 988.66 C 217.94 988.31 232.84 988.07 247.70 986.96 C 248.37 980.97 250.28 975.23 252.26 969.57 C 238.89 971.06 225.46 972.02 212.01 972.56 C 197.98 972.93 183.73 973.25 169.94 970.22 C 161.87 968.51 154.87 964.00 147.72 960.14 C 146.06 959.51 146.86 957.34 146.63 956.04 C 146.71 939.04 146.59 922.04 146.69 905.05 C 135.00 904.93 123.31 905.03 111.62 905.00 M 290.44 911.26 C 289.48 922.63 288.59 934.16 285.03 945.09 C 283.48 949.75 281.62 954.44 278.45 958.26 C 278.34 943.78 278.49 929.30 278.37 914.83 C 273.58 914.78 268.79 914.78 264.00 914.83 C 264.00 938.69 264.00 962.56 264.00 986.42 C 280.01 985.70 295.99 984.36 312.00 983.41 C 311.99 985.83 311.99 988.26 312.05 990.69 C 316.68 990.63 321.32 990.63 325.95 990.69 C 326.07 965.13 325.97 939.56 326.00 914.00 C 321.33 913.99 316.67 913.99 312.00 914.00 C 311.96 928.06 312.08 942.11 311.94 956.17 C 308.99 951.18 305.87 946.29 302.36 941.68 C 301.73 940.49 300.21 939.55 300.49 938.08 C 302.15 929.62 303.28 921.05 303.79 912.44 C 299.34 912.00 294.89 911.68 290.44 911.26 M 457.83 914.83 C 457.78 919.67 457.77 924.52 457.85 929.38 C 469.54 929.42 481.23 929.45 492.92 929.36 C 493.06 942.34 493.03 955.33 492.94 968.31 C 486.81 964.23 482.45 957.75 480.27 950.80 C 481.25 945.81 482.31 940.83 482.96 935.79 C 477.51 935.09 472.08 934.15 466.59 934.01 C 464.73 951.14 459.55 969.36 445.81 980.82 C 450.47 984.04 454.83 987.68 458.96 991.57 C 465.89 985.17 470.65 976.92 474.72 968.52 C 480.09 977.84 488.91 985.25 499.54 987.64 C 514.68 991.16 530.36 989.08 545.76 989.68 C 546.65 984.27 548.21 978.98 550.51 974.00 C 537.02 973.88 523.52 974.26 510.04 973.76 C 509.99 967.96 509.95 962.16 510.08 956.36 C 519.38 956.43 528.69 956.45 537.99 956.38 L 538.62 955.80 C 538.77 951.45 538.55 947.10 538.72 942.76 C 529.18 942.39 519.62 942.64 510.07 942.64 C 509.96 938.21 509.96 933.78 510.07 929.36 C 522.17 929.45 534.28 929.42 546.38 929.38 C 546.43 924.53 546.44 919.67 546.37 914.82 C 516.86 914.80 487.34 914.78 457.83 914.83 M 332.76 921.28 C 332.41 926.51 332.62 931.75 332.62 937.00 C 346.23 937.02 359.84 936.95 373.45 937.04 C 368.96 944.59 363.83 951.78 358.24 958.57 C 352.78 954.33 347.33 950.07 341.80 945.93 C 338.44 949.77 335.48 953.94 332.34 957.96 C 346.29 969.44 360.67 980.43 373.67 993.01 C 376.94 988.28 380.38 983.67 383.69 978.98 C 379.84 975.50 375.82 972.21 371.81 968.93 C 381.56 956.04 391.09 942.84 398.15 928.24 C 394.09 925.64 390.04 923.02 386.00 920.40 C 381.78 921.74 377.34 921.30 373.00 921.35 C 359.59 921.30 346.17 921.43 332.76 921.28 M 652.84 932.33 C 658.95 942.33 665.17 952.31 669.96 963.04 C 672.50 967.89 673.86 973.24 676.13 978.18 C 682.43 975.85 688.47 972.85 694.60 970.11 C 688.88 953.93 679.45 939.35 669.71 925.34 C 664.05 927.58 658.49 930.07 652.84 932.33 M 582.05 925.93 C 576.46 941.35 567.81 955.85 555.90 967.24 C 561.72 970.46 567.29 974.10 572.64 978.04 C 584.84 964.24 594.50 948.17 601.00 930.94 C 594.70 929.21 588.36 927.63 582.05 925.93 Z" />
        <path fill="#ffffff" opacity="1.00" d=" M 294.96 248.31 C 345.99 248.38 397.03 248.32 448.06 248.34 C 455.62 248.34 463.13 250.51 469.60 254.42 C 481.52 261.56 489.45 275.07 489.48 289.02 C 489.45 317.34 489.53 345.65 489.44 373.97 C 488.97 394.28 471.30 412.24 451.03 413.21 C 433.36 413.44 415.68 413.18 398.00 413.27 C 385.85 413.40 373.63 412.74 361.57 414.56 C 355.82 415.41 349.97 417.55 346.06 422.03 C 340.84 427.65 340.21 435.77 339.75 443.04 C 339.53 454.69 339.72 466.35 339.66 478.00 C 339.75 483.55 339.36 489.12 339.95 494.65 C 369.63 494.51 399.32 494.63 429.00 494.59 C 448.96 494.70 468.92 494.37 488.87 494.75 C 488.88 508.15 488.95 521.54 488.83 534.93 C 423.00 534.94 357.15 535.07 291.31 534.87 C 291.36 504.58 291.37 474.29 291.31 444.00 C 291.21 427.06 294.28 409.30 304.14 395.16 C 311.29 384.61 322.54 376.72 335.18 374.49 C 346.67 372.54 358.37 372.37 370.00 372.41 C 388.67 372.41 407.33 372.39 426.00 372.45 C 431.07 372.72 436.22 370.19 438.80 365.76 C 440.88 362.58 440.76 358.65 440.74 355.00 C 440.66 337.66 440.77 320.31 440.73 302.97 C 440.93 295.68 434.29 289.15 427.03 289.34 C 382.95 289.02 338.87 289.41 294.79 289.13 C 294.72 275.53 294.40 261.90 294.96 248.31 Z" />
        <path fill="#ffffff" opacity="1.00" d=" M 205.01 251.02 C 206.42 249.90 208.27 250.02 209.97 249.98 C 224.63 250.08 239.29 249.98 253.96 250.04 C 253.99 345.01 253.98 439.99 253.96 534.96 C 238.32 534.99 222.68 534.99 207.04 534.96 C 206.93 455.89 207.17 376.81 206.92 297.74 C 202.78 298.21 199.84 301.42 196.33 303.32 C 186.57 309.00 176.77 314.62 166.68 319.70 C 162.64 322.16 158.51 324.51 154.09 326.24 C 153.94 311.86 154.05 297.48 154.03 283.10 C 172.72 275.41 188.94 263.03 205.01 251.02 Z" />
        <path fill="#ffffff" opacity="1.00" d=" M 581.98 323.97 C 581.54 320.74 584.73 317.55 587.96 317.99 C 595.32 317.99 602.68 317.99 610.04 317.99 C 613.26 317.55 616.45 320.74 616.02 323.97 C 616.01 340.30 615.96 356.64 616.02 372.98 C 631.36 373.04 646.69 372.98 662.03 372.98 C 665.26 372.54 668.45 375.73 668.02 378.96 C 667.86 386.86 668.34 394.78 667.78 402.65 C 666.49 404.09 665.19 406.21 662.99 405.98 C 647.33 406.07 631.68 405.93 616.03 406.02 C 615.96 422.36 616.01 438.70 616.02 455.03 C 616.45 458.26 613.26 461.45 610.04 461.02 C 602.68 461.01 595.32 461.00 587.96 461.02 C 584.73 461.45 581.55 458.26 581.98 455.03 C 581.98 438.70 582.04 422.36 581.98 406.02 C 566.04 405.88 550.08 406.18 534.15 405.90 C 531.59 404.79 528.61 402.18 528.99 399.04 C 529.16 391.82 528.64 384.55 529.24 377.36 C 531.01 375.34 532.87 372.49 535.96 372.99 C 551.30 372.98 566.64 373.04 581.98 372.98 C 582.04 356.64 581.99 340.30 581.98 323.97 Z" />
        <path fill="#ffffff" opacity="1.00" d=" M 187.86 685.86 C 199.74 677.43 215.07 674.24 229.38 676.76 C 235.05 677.80 240.38 680.12 245.96 681.52 C 247.00 680.20 248.02 678.87 249.06 677.56 C 250.58 677.69 252.11 677.83 253.63 677.97 C 253.49 688.63 254.15 699.28 254.22 709.93 C 254.10 712.55 251.11 712.67 249.13 712.42 C 245.94 704.02 243.42 694.75 236.41 688.59 C 228.20 680.22 213.57 680.23 204.90 687.89 C 195.77 695.69 190.94 707.49 189.59 719.23 C 188.55 730.22 189.31 741.75 194.13 751.85 C 198.13 760.26 205.87 767.10 215.16 768.85 C 224.10 770.47 234.30 769.52 241.49 763.48 C 247.05 758.52 248.94 750.90 250.30 743.87 C 252.10 744.04 253.91 744.23 255.72 744.42 C 255.21 753.28 252.48 762.60 245.78 768.79 C 238.33 775.62 227.88 778.13 218.00 778.01 C 205.05 778.06 191.39 774.35 182.12 764.88 C 171.15 754.15 167.31 737.94 168.72 723.03 C 169.79 708.81 176.07 694.38 187.86 685.86 Z" />
        <path fill="#ffffff" opacity="1.00" d=" M 303.07 680.03 C 304.05 676.81 308.14 678.62 310.60 678.32 C 321.27 704.29 332.02 730.23 342.81 756.15 C 344.51 759.93 346.14 763.93 349.16 766.88 C 352.16 769.59 356.45 769.60 360.22 770.26 C 360.53 772.31 360.69 775.61 357.84 775.73 C 343.58 775.85 329.30 775.77 315.03 775.76 C 311.94 776.17 311.32 772.59 311.75 770.28 C 315.48 769.59 320.01 769.86 322.78 766.81 C 325.11 764.34 324.28 760.65 323.25 757.79 C 320.79 751.28 317.95 744.92 315.51 738.40 C 306.42 738.21 297.32 738.37 288.22 738.31 C 286.09 743.53 284.04 748.79 282.06 754.08 C 280.80 757.91 279.34 762.53 281.81 766.20 C 283.80 769.37 287.87 769.69 291.19 770.32 C 291.09 771.69 291.76 773.38 290.70 774.53 C 289.77 776.24 287.64 775.63 286.06 775.81 C 277.09 775.68 268.12 775.94 259.16 775.70 C 256.56 775.45 256.52 772.29 256.77 770.30 C 260.01 769.83 263.55 769.38 266.02 766.99 C 271.09 762.18 273.58 755.46 276.21 749.15 C 285.23 726.14 294.10 703.06 303.07 680.03 M 290.98 731.12 C 298.07 731.27 305.17 731.31 312.27 731.10 C 309.07 721.94 305.06 713.08 301.56 704.03 C 297.46 712.81 294.42 722.07 290.98 731.12 Z" />
        <path fill="#ffffff" opacity="1.00" d=" M 362.41 678.45 C 364.92 678.04 367.47 678.22 370.01 678.20 C 385.02 678.34 400.05 677.98 415.06 678.43 C 427.17 678.88 439.40 683.26 447.98 692.02 C 459.33 703.03 464.27 719.49 463.00 735.04 C 462.12 747.90 456.43 761.11 445.43 768.44 C 435.65 775.01 423.43 775.47 412.04 775.77 C 395.44 775.73 378.82 775.90 362.22 775.69 C 361.12 774.05 360.52 772.20 360.62 770.24 C 364.24 769.75 368.44 770.01 371.29 767.31 C 374.89 764.35 374.93 759.27 375.19 755.01 C 375.26 736.68 375.20 718.35 375.22 700.03 C 374.98 695.83 375.23 691.06 372.39 687.63 C 369.58 684.35 364.91 684.28 360.97 683.69 C 361.06 681.86 360.73 679.69 362.41 678.45 M 394.28 684.87 C 394.38 707.60 394.29 730.33 394.32 753.06 C 394.40 757.53 394.71 762.56 398.07 765.92 C 401.43 769.30 406.49 769.86 411.02 769.73 C 417.58 769.76 424.41 767.88 429.27 763.29 C 438.69 754.68 442.77 741.51 442.45 729.00 C 442.46 714.22 436.22 698.73 423.70 690.24 C 415.15 684.38 404.25 684.01 394.28 684.87 Z" />
        <path fill="#ffffff" opacity="1.00" d=" M 471.21 681.72 C 470.91 679.69 473.09 677.96 475.02 678.23 C 488.36 678.19 501.70 678.23 515.04 678.22 C 520.84 678.37 526.72 678.35 532.40 679.72 C 541.69 682.35 549.59 690.35 551.16 700.02 C 552.24 706.87 551.57 714.51 547.15 720.13 C 542.76 725.87 535.57 728.70 528.57 729.41 C 520.68 730.00 512.76 729.63 504.86 729.86 C 504.68 738.23 504.82 746.60 504.77 754.98 C 504.90 759.08 504.98 763.80 508.11 766.89 C 510.95 769.84 515.32 769.80 519.10 770.25 C 519.09 772.37 519.05 776.10 515.99 775.74 C 502.05 775.79 488.09 775.85 474.15 775.71 C 471.44 775.57 471.05 772.45 471.02 770.33 C 475.00 769.76 479.69 769.84 482.57 766.55 C 485.70 763.22 485.41 758.30 485.65 754.07 C 485.70 736.02 485.69 717.97 485.66 699.93 C 485.47 695.07 485.57 688.99 481.01 685.97 C 478.07 683.77 473.22 685.14 471.21 681.72 M 504.86 684.71 C 504.73 697.57 504.73 710.44 504.86 723.31 C 510.86 723.36 517.47 724.03 522.85 720.83 C 533.65 713.74 533.51 696.10 523.91 688.10 C 518.59 683.65 511.29 684.51 504.86 684.71 Z" />
        <path fill="#ffffff" opacity="1.00" d=" M 597.14 678.17 C 599.33 678.19 601.53 678.22 603.73 678.27 C 614.32 703.71 624.81 729.20 635.38 754.65 C 637.20 758.66 638.78 762.92 641.75 766.26 C 644.81 769.64 649.75 769.49 653.89 770.35 C 653.92 772.45 653.81 775.84 650.88 775.73 C 636.60 775.84 622.30 775.80 608.01 775.74 C 604.97 776.10 604.85 772.42 604.97 770.29 C 609.07 769.55 614.40 769.76 616.83 765.69 C 618.40 762.04 616.63 758.13 615.31 754.70 C 613.05 749.27 610.86 743.81 608.63 738.37 C 599.53 738.28 590.43 738.28 581.33 738.37 C 579.28 743.93 576.94 749.38 574.96 754.97 C 573.75 758.70 572.61 763.31 575.41 766.63 C 577.59 769.58 581.55 769.72 584.83 770.48 C 584.68 772.49 584.54 775.62 581.85 775.71 C 572.24 775.86 562.62 775.80 553.01 775.74 C 549.97 776.10 549.87 772.43 549.94 770.31 C 552.90 769.80 556.15 769.57 558.57 767.56 C 563.36 763.62 565.82 757.71 568.20 752.15 C 578.06 727.58 587.24 702.73 597.14 678.17 M 594.45 704.02 C 591.03 713.06 587.49 722.05 584.15 731.12 C 591.26 731.27 598.38 731.31 605.49 731.10 C 602.10 721.97 598.60 712.83 594.45 704.02 Z" />
        <path fill="#ffffff" opacity="1.00" d=" M 481.68 868.69 C 495.06 868.66 508.44 868.57 521.82 868.74 C 521.80 871.14 521.80 873.55 521.83 875.96 C 508.44 876.04 495.06 875.99 481.67 875.99 C 481.65 873.55 481.65 871.12 481.68 868.69 Z" />
        <path fill="#ffffff" opacity="1.00" d=" M 481.67 888.01 C 495.06 888.01 508.44 887.96 521.83 888.04 C 521.80 890.44 521.80 892.85 521.82 895.26 C 508.44 895.42 495.06 895.34 481.68 895.31 C 481.65 892.86 481.65 890.43 481.67 888.01 Z" />
        <path fill="#ffffff" opacity="1.00" d=" M 182.01 930.01 C 195.88 930.04 209.76 929.91 223.64 930.07 C 223.56 936.02 223.56 941.97 223.64 947.93 C 209.76 948.09 195.88 947.96 182.01 947.99 C 182.00 941.99 182.00 936.00 182.01 930.01 Z" />
        <path fill="#ffffff" opacity="1.00" d=" M 286.85 970.28 C 290.66 965.58 293.44 960.19 295.90 954.70 C 298.60 958.86 300.99 963.23 303.20 967.68 C 306.13 965.04 309.00 962.33 311.98 959.74 C 312.01 963.14 311.99 966.54 311.99 969.94 C 300.81 970.78 289.60 971.10 278.40 971.66 C 278.42 968.45 278.40 965.26 278.40 962.06 C 281.47 964.52 284.11 967.46 286.85 970.28 Z" />
    </g>
</svg>