<?xml version="1.0" encoding="UTF-8"?>
<!DOCTYPE svg PUBLIC "-//W3C//DTD SVG 1.1//EN" "http://www.w3.org/Graphics/SVG/1.1/DTD/svg11.dtd">
<svg width="810pt" height="1038pt" viewBox="0 0 810 1038" version="1.1" xmlns="http://www.w3.org/2000/svg">
    <g id="#050505ff">
        <path fill="#050505" opacity="1.00" d=" M 55.43 0.00 L 753.61 0.00 C 764.16 2.55 774.72 5.95 783.55 12.49 C 797.92 22.66 806.44 39.21 810.00 56.14 L 810.00 981.58 C 808.02 988.50 806.52 995.65 803.13 1002.07 C 795.91 1016.59 783.06 1028.21 767.84 1033.84 C 763.22 1035.58 758.36 1036.55 753.65 1038.00 L 56.43 1038.00 C 50.72 1036.30 44.82 1035.15 39.35 1032.72 C 23.50 1025.97 10.60 1012.65 4.43 996.56 C 2.54 991.72 1.52 986.60 0.00 981.65 L 0.00 56.34 C 1.81 49.36 3.38 42.22 6.84 35.82 C 13.16 22.86 24.12 12.39 37.06 6.14 C 42.90 3.31 49.28 1.98 55.43 0.00 M 57.40 20.64 C 36.40 23.87 19.60 43.69 20.00 64.96 C 19.97 367.31 20.00 669.66 19.99 972.01 C 19.93 977.77 20.84 983.56 22.92 988.94 C 29.24 1006.04 46.67 1018.27 64.96 1018.00 C 291.31 1018.03 517.66 1018.00 744.01 1018.02 C 749.51 1018.05 755.03 1017.26 760.21 1015.36 C 777.68 1009.29 790.25 991.56 790.00 973.04 C 790.02 670.34 790.02 367.65 790.00 64.96 C 790.13 50.05 782.13 35.45 769.63 27.38 C 762.11 22.34 753.04 19.85 744.02 20.00 C 518.01 19.97 292.00 20.00 65.99 19.99 C 63.11 20.00 60.23 20.15 57.40 20.64 Z" />
        <path fill="#050505" opacity="1.00" d=" M 326.64 895.59 C 339.94 883.22 350.12 867.65 356.71 850.75 C 362.07 852.43 367.47 853.98 372.84 855.63 C 372.30 857.07 371.76 858.53 371.22 860.00 C 379.29 874.87 390.29 888.22 403.59 898.71 C 398.71 902.96 394.19 907.65 390.33 912.85 C 379.37 902.35 370.64 889.78 363.18 876.62 C 355.73 890.11 346.17 902.49 334.54 912.64 C 332.73 910.48 330.87 908.36 328.83 906.42 C 328.74 907.18 328.56 908.70 328.48 909.46 C 305.85 909.35 283.22 909.44 260.59 909.41 C 260.59 904.80 260.59 900.19 260.59 895.59 C 263.06 895.58 265.53 895.58 268.00 895.60 C 268.00 884.00 268.00 872.40 268.00 860.81 C 272.89 860.80 277.77 860.79 282.66 860.82 C 282.67 872.41 282.61 884.01 282.69 895.60 C 285.32 895.58 287.95 895.58 290.58 895.60 C 290.60 881.33 290.58 867.07 290.60 852.81 C 295.79 852.80 300.99 852.80 306.19 852.81 C 306.19 858.20 306.19 863.60 306.19 869.00 C 313.26 869.00 320.33 869.00 327.40 869.00 C 327.41 873.66 327.41 878.33 327.40 883.00 C 320.33 883.00 313.26 883.00 306.19 883.00 C 306.19 887.19 306.19 891.39 306.20 895.60 C 313.01 895.58 319.82 895.59 326.64 895.59 Z" />
        <path fill="#050505" opacity="1.00" d=" M 160.29 861.46 C 184.76 859.77 209.29 857.36 233.25 851.94 C 236.41 856.71 239.17 861.76 242.08 866.70 C 232.17 869.08 222.08 870.58 212.00 872.00 C 211.99 876.78 212.00 881.56 212.00 886.34 C 224.89 886.34 237.78 886.36 250.67 886.33 C 250.64 891.55 250.65 896.77 250.66 902.00 C 237.77 902.00 224.89 901.99 212.00 902.00 C 212.00 906.60 212.00 911.20 212.00 915.81 C 221.80 915.80 231.60 915.81 241.40 915.81 C 241.41 931.27 241.41 946.73 241.40 962.19 C 215.93 962.19 190.47 962.20 165.00 962.19 C 165.00 946.73 165.00 931.27 165.00 915.81 C 174.60 915.80 184.20 915.81 193.81 915.81 C 193.81 911.20 193.80 906.60 193.81 902.00 C 180.65 902.00 167.50 902.00 154.34 902.00 C 154.34 896.77 154.36 891.55 154.33 886.33 C 167.49 886.36 180.65 886.35 193.81 886.33 C 193.81 882.16 193.80 878.00 193.82 873.84 C 184.15 874.46 174.50 875.41 164.80 875.45 C 163.82 870.63 162.32 865.93 160.29 861.46 M 182.00 930.00 C 182.00 936.00 182.00 942.00 182.00 948.00 C 195.87 948.00 209.73 948.00 223.60 948.00 C 223.59 942.00 223.59 936.00 223.60 930.00 C 209.73 930.00 195.87 930.00 182.00 930.00 Z" />
        <path fill="#050505" opacity="1.00" d=" M 425.32 851.61 C 430.57 851.62 435.82 851.51 441.06 851.61 L 441.61 852.24 C 441.75 861.43 441.58 870.62 441.67 879.81 C 446.67 879.80 451.66 879.80 456.66 879.82 C 456.65 885.34 456.63 890.87 456.68 896.39 C 451.68 896.41 446.68 896.42 441.69 896.40 C 441.62 903.79 441.66 911.18 441.66 918.57 C 446.15 917.35 450.66 916.20 455.15 914.97 C 456.04 920.36 456.82 925.77 457.59 931.19 C 452.28 932.79 446.99 934.43 441.67 936.00 C 441.65 946.67 441.65 957.35 441.66 968.03 C 441.67 972.21 441.84 976.51 440.51 980.54 C 439.44 984.09 436.21 986.49 432.88 987.78 C 427.20 989.88 421.04 989.64 415.09 989.67 C 414.19 984.05 412.64 978.53 410.41 973.30 C 415.30 973.33 420.21 973.54 425.09 973.04 C 425.66 962.33 425.22 951.59 425.32 940.87 C 420.72 942.10 416.17 943.49 411.57 944.73 C 410.21 938.91 408.80 933.10 407.52 927.26 C 413.52 926.08 419.40 924.43 425.34 922.99 C 425.33 914.12 425.38 905.26 425.31 896.40 C 419.87 896.42 414.44 896.41 409.00 896.40 C 409.00 890.87 409.00 885.34 409.00 879.81 C 414.44 879.80 419.88 879.80 425.33 879.81 C 425.35 870.41 425.36 861.01 425.32 851.61 Z" />
        <path fill="#050505" opacity="1.00" d=" M 113.59 866.00 C 117.99 862.61 122.41 859.25 126.78 855.83 C 135.18 862.95 143.23 870.60 149.78 879.50 C 145.10 883.27 140.50 887.13 135.80 890.87 C 129.57 881.60 121.65 873.66 113.59 866.00 Z" />
        <path fill="#050505" opacity="1.00" d=" M 465.00 856.34 C 489.67 856.35 514.33 856.35 539.00 856.34 C 539.00 873.62 539.00 890.90 539.00 908.19 C 514.33 908.19 489.67 908.19 465.00 908.19 C 465.00 890.90 465.00 873.62 465.00 856.34 M 481.66 868.66 C 481.65 871.10 481.65 873.55 481.66 876.00 C 495.04 876.00 508.43 875.99 521.81 876.00 C 521.80 873.55 521.80 871.11 521.81 868.67 C 508.43 868.64 495.05 868.65 481.66 868.66 M 481.66 888.00 C 481.65 890.44 481.65 892.88 481.66 895.34 C 495.05 895.35 508.43 895.36 521.81 895.33 C 521.80 892.88 521.80 890.43 521.81 888.00 C 508.43 888.00 495.04 888.00 481.66 888.00 Z" />
        <path fill="#050505" opacity="1.00" d=" M 574.34 861.00 C 609.62 861.00 644.90 861.00 680.19 861.00 C 680.19 867.00 680.19 873.00 680.19 879.00 C 644.90 879.00 609.62 879.00 574.34 879.00 C 574.35 873.00 574.35 867.00 574.34 861.00 Z" />
        <path fill="#050505" opacity="1.00" d=" M 348.21 901.72 C 352.75 899.48 357.31 897.29 361.92 895.20 C 366.58 900.80 371.03 906.60 374.80 912.85 C 370.06 915.29 365.39 917.85 360.70 920.39 C 356.79 914.02 352.86 907.60 348.21 901.72 Z" />
        <path fill="#050505" opacity="1.00" d=" M 560.60 897.00 C 605.13 897.00 649.66 897.00 694.19 897.00 C 694.19 903.06 694.19 909.12 694.19 915.19 C 675.35 915.19 656.51 915.19 637.67 915.19 C 637.64 932.47 637.65 949.76 637.66 967.05 C 637.52 972.27 637.91 977.82 635.58 982.67 C 633.54 986.80 629.00 988.74 624.78 989.86 C 616.19 992.01 607.26 991.58 598.49 991.68 C 597.19 985.09 594.99 978.70 592.16 972.62 C 600.03 972.95 607.93 973.19 615.81 972.88 C 617.29 972.85 618.16 971.33 617.96 969.99 C 618.06 951.72 617.97 933.46 618.00 915.19 C 598.87 915.19 579.73 915.19 560.60 915.19 C 560.58 909.13 560.58 903.06 560.60 897.00 Z" />
        <path fill="#050505" opacity="1.00" d=" M 111.60 905.00 C 123.29 905.00 134.97 904.99 146.66 905.00 C 146.74 923.20 146.47 941.40 146.79 959.59 C 151.70 962.29 156.51 965.20 161.64 967.49 C 169.96 971.11 179.12 971.97 188.08 972.54 C 209.54 973.36 231.03 971.86 252.35 969.51 C 250.20 975.17 248.42 981.00 247.67 987.03 C 232.81 987.98 217.92 988.35 203.04 988.66 C 187.65 988.62 171.51 988.55 157.37 981.62 C 152.64 979.51 148.45 976.38 143.68 974.37 C 140.78 972.99 137.62 974.50 135.31 976.34 C 130.04 980.53 125.84 985.86 121.66 991.11 C 117.91 985.98 114.21 980.82 110.46 975.69 C 116.13 970.12 122.56 965.29 129.60 961.57 C 129.58 948.28 129.58 934.98 129.60 921.69 C 123.60 921.62 117.61 921.64 111.61 921.68 C 111.58 916.11 111.58 910.56 111.60 905.00 Z" />
        <path fill="#050505" opacity="1.00" d=" M 290.44 911.25 C 294.89 911.70 299.36 912.00 303.81 912.44 C 303.29 921.32 301.97 930.13 300.42 938.88 C 304.45 944.56 308.57 950.20 312.00 956.29 C 312.00 942.19 312.00 928.09 312.00 914.00 C 316.67 914.00 321.33 914.00 326.00 914.00 C 326.00 939.55 326.00 965.11 326.00 990.66 C 321.33 990.65 316.66 990.64 312.00 990.67 C 311.99 988.23 312.00 985.79 312.00 983.37 C 296.00 984.43 280.00 985.63 263.99 986.46 C 264.01 962.57 264.00 938.69 264.00 914.81 C 268.80 914.80 273.60 914.80 278.40 914.81 C 278.46 929.42 278.32 944.03 278.48 958.64 C 287.91 944.78 289.02 927.44 290.44 911.25 M 286.79 970.43 C 284.21 967.41 281.44 964.57 278.44 961.98 C 278.40 965.20 278.41 968.43 278.40 971.67 C 289.60 971.09 300.82 970.79 312.00 969.94 C 311.99 966.50 312.00 963.06 312.00 959.63 C 309.07 962.34 306.09 964.99 303.21 967.75 C 301.04 963.20 298.51 958.84 295.88 954.54 C 293.56 960.21 290.55 965.58 286.79 970.43 Z" />
        <path fill="#050505" opacity="1.00" d=" M 457.81 914.81 C 487.34 914.80 516.87 914.81 546.40 914.81 C 546.41 919.67 546.41 924.54 546.41 929.41 C 534.27 929.40 522.14 929.42 510.00 929.40 C 510.00 933.80 510.00 938.19 510.00 942.60 C 519.56 942.59 529.12 942.57 538.68 942.61 C 538.64 947.20 538.64 951.79 538.68 956.39 C 529.12 956.43 519.56 956.41 510.00 956.40 C 510.00 962.18 510.00 967.95 510.00 973.74 C 523.51 974.29 537.04 973.87 550.57 974.00 C 548.17 978.94 546.65 984.26 545.77 989.68 C 530.65 989.11 515.29 991.04 500.38 987.85 C 489.36 985.56 480.02 978.03 474.63 968.26 C 470.94 976.95 465.78 985.05 458.96 991.62 C 454.86 987.66 450.45 984.01 445.75 980.80 C 459.72 969.38 464.68 950.91 466.68 933.72 C 472.11 934.44 477.55 935.03 482.99 935.74 C 482.30 940.80 481.25 945.81 480.27 950.82 C 482.43 957.84 486.93 964.19 492.95 968.45 C 493.06 955.43 492.97 942.42 493.00 929.40 C 481.26 929.41 469.53 929.41 457.80 929.41 C 457.81 924.54 457.80 919.67 457.81 914.81 Z" />
        <path fill="#050505" opacity="1.00" d=" M 332.61 921.32 C 348.41 921.38 364.22 921.32 380.03 921.36 C 382.04 921.43 383.98 920.84 385.92 920.36 C 390.00 923.00 394.08 925.65 398.18 928.27 C 390.98 942.78 381.67 956.14 371.72 968.89 C 375.81 972.13 379.78 975.53 383.73 978.96 C 380.33 983.65 376.94 988.36 373.57 993.08 C 360.75 980.32 346.25 969.44 332.30 957.98 C 335.46 953.96 338.50 949.84 341.73 945.88 C 347.31 950.07 352.82 954.37 358.35 958.64 C 363.77 951.69 368.97 944.54 373.55 937.00 C 359.90 936.99 346.25 937.00 332.60 937.00 C 332.58 931.77 332.58 926.55 332.61 921.32 Z" />
        <path fill="#050505" opacity="1.00" d=" M 652.72 932.42 C 658.38 930.07 664.01 927.66 669.67 925.31 C 679.47 939.33 688.85 953.95 694.64 970.15 C 688.42 972.95 682.17 975.68 675.96 978.48 C 670.75 961.99 662.08 946.86 652.72 932.42 Z" />
        <path fill="#050505" opacity="1.00" d=" M 582.02 925.91 C 588.35 927.63 594.70 929.24 601.04 930.92 C 594.45 948.15 584.87 964.30 572.57 978.08 C 567.29 974.03 561.70 970.39 555.83 967.27 C 567.79 955.91 576.48 941.38 582.02 925.91 Z" />
    </g>
    <g id="#fefefeff">
        <path fill="#fefefe" opacity="1.00" d=" M 57.40 20.64 C 60.23 20.15 63.11 20.00 65.99 19.99 C 292.00 20.00 518.01 19.97 744.02 20.00 C 753.04 19.85 762.11 22.34 769.63 27.38 C 782.13 35.45 790.13 50.05 790.00 64.96 C 790.02 367.65 790.02 670.34 790.00 973.04 C 790.25 991.56 777.68 1009.29 760.21 1015.36 C 755.03 1017.26 749.51 1018.05 744.01 1018.02 C 517.66 1018.00 291.31 1018.03 64.96 1018.00 C 46.67 1018.27 29.24 1006.04 22.92 988.94 C 20.84 983.56 19.93 977.77 19.99 972.01 C 20.00 669.66 19.97 367.31 20.00 64.96 C 19.60 43.69 36.40 23.87 57.40 20.64 M 83.94 100.93 C 72.61 111.34 65.93 126.58 66.01 141.98 C 65.99 370.32 66.01 598.66 66.00 827.00 C 292.00 827.00 518.00 827.00 744.00 827.00 C 743.99 598.66 744.01 370.32 743.99 141.98 C 744.33 118.87 728.67 96.76 706.84 89.26 C 698.29 86.00 689.03 85.81 680.00 86.00 C 494.00 86.01 307.99 85.98 121.98 86.01 C 108.01 85.96 94.15 91.40 83.94 100.93 M 326.64 895.59 C 319.82 895.59 313.01 895.58 306.20 895.60 C 306.19 891.39 306.19 887.19 306.19 883.00 C 313.26 883.00 320.33 883.00 327.40 883.00 C 327.41 878.33 327.41 873.66 327.40 869.00 C 320.33 869.00 313.26 869.00 306.19 869.00 C 306.19 863.60 306.19 858.20 306.19 852.81 C 300.99 852.80 295.79 852.80 290.60 852.81 C 290.58 867.07 290.60 881.33 290.58 895.60 C 287.95 895.58 285.32 895.58 282.69 895.60 C 282.61 884.01 282.67 872.41 282.66 860.82 C 277.77 860.79 272.89 860.80 268.00 860.81 C 268.00 872.40 268.00 884.00 268.00 895.60 C 265.53 895.58 263.06 895.58 260.59 895.59 C 260.59 900.19 260.59 904.80 260.59 909.41 C 283.22 909.44 305.85 909.35 328.48 909.46 C 328.56 908.70 328.74 907.18 328.83 906.42 C 330.87 908.36 332.73 910.48 334.54 912.64 C 346.17 902.49 355.73 890.11 363.18 876.62 C 370.64 889.78 379.37 902.35 390.33 912.85 C 394.19 907.65 398.71 902.96 403.59 898.71 C 390.29 888.22 379.29 874.87 371.22 860.00 C 371.76 858.53 372.30 857.07 372.84 855.63 C 367.47 853.98 362.07 852.43 356.71 850.75 C 350.12 867.65 339.94 883.22 326.64 895.59 M 160.29 861.46 C 162.32 865.93 163.82 870.63 164.80 875.45 C 174.50 875.41 184.15 874.46 193.82 873.84 C 193.80 878.00 193.81 882.16 193.81 886.33 C 180.65 886.35 167.49 886.36 154.33 886.33 C 154.36 891.55 154.34 896.77 154.34 902.00 C 167.50 902.00 180.65 902.00 193.81 902.00 C 193.80 906.60 193.81 911.20 193.81 915.81 C 184.20 915.81 174.60 915.80 165.00 915.81 C 165.00 931.27 165.00 946.73 165.00 962.19 C 190.47 962.20 215.93 962.19 241.40 962.19 C 241.41 946.73 241.41 931.27 241.40 915.81 C 231.60 915.81 221.80 915.80 212.00 915.81 C 212.00 911.20 212.00 906.60 212.00 902.00 C 224.89 901.99 237.77 902.00 250.66 902.00 C 250.65 896.77 250.64 891.55 250.67 886.33 C 237.78 886.36 224.89 886.34 212.00 886.34 C 212.00 881.56 211.99 876.78 212.00 872.00 C 222.08 870.58 232.17 869.08 242.08 866.70 C 239.17 861.76 236.41 856.71 233.25 851.94 C 209.29 857.36 184.76 859.77 160.29 861.46 M 425.32 851.61 C 425.36 861.01 425.35 870.41 425.33 879.81 C 419.88 879.80 414.44 879.80 409.00 879.81 C 409.00 885.34 409.00 890.87 409.00 896.40 C 414.44 896.41 419.87 896.42 425.31 896.40 C 425.38 905.26 425.33 914.12 425.34 922.99 C 419.40 924.43 413.52 926.08 407.52 927.26 C 408.80 933.10 410.21 938.91 411.57 944.73 C 416.17 943.49 420.72 942.10 425.32 940.87 C 425.22 951.59 425.66 962.33 425.09 973.04 C 420.21 973.54 415.30 973.33 410.41 973.30 C 412.64 978.53 414.19 984.05 415.09 989.67 C 421.04 989.64 427.20 989.88 432.88 987.78 C 436.21 986.49 439.44 984.09 440.51 980.54 C 441.84 976.51 441.67 972.21 441.66 968.03 C 441.65 957.35 441.65 946.67 441.67 936.00 C 446.99 934.43 452.28 932.79 457.59 931.19 C 456.82 925.77 456.04 920.36 455.15 914.97 C 450.66 916.20 446.15 917.35 441.66 918.57 C 441.66 911.18 441.62 903.79 441.69 896.40 C 446.68 896.42 451.68 896.41 456.68 896.39 C 456.63 890.87 456.65 885.34 456.66 879.82 C 451.66 879.80 446.67 879.80 441.67 879.81 C 441.58 870.62 441.75 861.43 441.61 852.24 L 441.06 851.61 C 435.82 851.51 430.57 851.62 425.32 851.61 M 113.59 866.00 C 121.65 873.66 129.57 881.60 135.80 890.87 C 140.50 887.13 145.10 883.27 149.78 879.50 C 143.23 870.60 135.18 862.95 126.78 855.83 C 122.41 859.25 117.99 862.61 113.59 866.00 M 465.00 856.34 C 465.00 873.62 465.00 890.90 465.00 908.19 C 489.67 908.19 514.33 908.19 539.00 908.19 C 539.00 890.90 539.00 873.62 539.00 856.34 C 514.33 856.35 489.67 856.35 465.00 856.34 M 574.34 861.00 C 574.35 867.00 574.35 873.00 574.34 879.00 C 609.62 879.00 644.90 879.00 680.19 879.00 C 680.19 873.00 680.19 867.00 680.19 861.00 C 644.90 861.00 609.62 861.00 574.34 861.00 M 348.21 901.72 C 352.86 907.60 356.79 914.02 360.70 920.39 C 365.39 917.85 370.06 915.29 374.80 912.85 C 371.03 906.60 366.58 900.80 361.92 895.20 C 357.31 897.29 352.75 899.48 348.21 901.72 M 560.60 897.00 C 560.58 903.06 560.58 909.13 560.60 915.19 C 579.73 915.19 598.87 915.19 618.00 915.19 C 617.97 933.46 618.06 951.72 617.96 969.99 C 618.16 971.33 617.29 972.85 615.81 972.88 C 607.93 973.19 600.03 972.95 592.16 972.62 C 594.99 978.70 597.19 985.09 598.49 991.68 C 607.26 991.58 616.19 992.01 624.78 989.86 C 629.00 988.74 633.54 986.80 635.58 982.67 C 637.91 977.82 637.52 972.27 637.66 967.05 C 637.65 949.76 637.64 932.47 637.67 915.19 C 656.51 915.19 675.35 915.19 694.19 915.19 C 694.19 909.12 694.19 903.06 694.19 897.00 C 649.66 897.00 605.13 897.00 560.60 897.00 M 111.60 905.00 C 111.58 910.56 111.58 916.11 111.61 921.68 C 117.61 921.64 123.60 921.62 129.60 921.69 C 129.58 934.98 129.58 948.28 129.60 961.57 C 122.56 965.29 116.13 970.12 110.46 975.69 C 114.21 980.82 117.91 985.98 121.66 991.11 C 125.84 985.86 130.04 980.53 135.31 976.34 C 137.62 974.50 140.78 972.99 143.68 974.37 C 148.45 976.38 152.64 979.51 157.37 981.62 C 171.51 988.55 187.65 988.62 203.04 988.66 C 217.92 988.35 232.81 987.98 247.67 987.03 C 248.42 981.00 250.20 975.17 252.35 969.51 C 231.03 971.86 209.54 973.36 188.08 972.54 C 179.12 971.97 169.96 971.11 161.64 967.49 C 156.51 965.20 151.70 962.29 146.79 959.59 C 146.47 941.40 146.74 923.20 146.66 905.00 C 134.97 904.99 123.29 905.00 111.60 905.00 M 290.44 911.25 C 289.02 927.44 287.91 944.78 278.48 958.64 C 278.32 944.03 278.46 929.42 278.40 914.81 C 273.60 914.80 268.80 914.80 264.00 914.81 C 264.00 938.69 264.01 962.57 263.99 986.46 C 280.00 985.63 296.00 984.43 312.00 983.37 C 312.00 985.79 311.99 988.23 312.00 990.67 C 316.66 990.64 321.33 990.65 326.00 990.66 C 326.00 965.11 326.00 939.55 326.00 914.00 C 321.33 914.00 316.67 914.00 312.00 914.00 C 312.00 928.09 312.00 942.19 312.00 956.29 C 308.57 950.20 304.45 944.56 300.42 938.88 C 301.97 930.13 303.29 921.32 303.81 912.44 C 299.36 912.00 294.89 911.70 290.44 911.25 M 457.81 914.81 C 457.80 919.67 457.81 924.54 457.80 929.41 C 469.53 929.41 481.26 929.41 493.00 929.40 C 492.97 942.42 493.06 955.43 492.95 968.45 C 486.93 964.19 482.43 957.84 480.27 950.82 C 481.25 945.81 482.30 940.80 482.99 935.74 C 477.55 935.03 472.11 934.44 466.68 933.72 C 464.68 950.91 459.72 969.38 445.75 980.80 C 450.45 984.01 454.86 987.66 458.96 991.62 C 465.78 985.05 470.94 976.95 474.63 968.26 C 480.02 978.03 489.36 985.56 500.38 987.85 C 515.29 991.04 530.65 989.11 545.77 989.68 C 546.65 984.26 548.17 978.94 550.57 974.00 C 537.04 973.87 523.51 974.29 510.00 973.74 C 510.00 967.95 510.00 962.18 510.00 956.40 C 519.56 956.41 529.12 956.43 538.68 956.39 C 538.64 951.79 538.64 947.20 538.68 942.61 C 529.12 942.57 519.56 942.59 510.00 942.60 C 510.00 938.19 510.00 933.80 510.00 929.40 C 522.14 929.42 534.27 929.40 546.41 929.41 C 546.41 924.54 546.41 919.67 546.40 914.81 C 516.87 914.81 487.34 914.80 457.81 914.81 M 332.61 921.32 C 332.58 926.55 332.58 931.77 332.60 937.00 C 346.25 937.00 359.90 936.99 373.55 937.00 C 368.97 944.54 363.77 951.69 358.35 958.64 C 352.82 954.37 347.31 950.07 341.73 945.88 C 338.50 949.84 335.46 953.96 332.30 957.98 C 346.25 969.44 360.75 980.32 373.57 993.08 C 376.94 988.36 380.33 983.65 383.73 978.96 C 379.78 975.53 375.81 972.13 371.72 968.89 C 381.67 956.14 390.98 942.78 398.18 928.27 C 394.08 925.65 390.00 923.00 385.92 920.36 C 383.98 920.84 382.04 921.43 380.03 921.36 C 364.22 921.32 348.41 921.38 332.61 921.32 M 652.72 932.42 C 662.08 946.86 670.75 961.99 675.96 978.48 C 682.17 975.68 688.42 972.95 694.64 970.15 C 688.85 953.95 679.47 939.33 669.67 925.31 C 664.01 927.66 658.38 930.07 652.72 932.42 M 582.02 925.91 C 576.48 941.38 567.79 955.91 555.83 967.27 C 561.70 970.39 567.29 974.03 572.57 978.08 C 584.87 964.30 594.45 948.15 601.04 930.92 C 594.70 929.24 588.35 927.63 582.02 925.91 Z" />
        <path fill="#fefefe" opacity="1.00" d=" M 192.81 258.82 C 197.68 255.83 201.65 251.13 207.05 249.19 C 222.91 248.90 238.78 249.15 254.65 249.10 C 254.57 344.60 254.59 440.10 254.64 535.61 C 238.48 535.57 222.31 535.55 206.15 535.62 C 206.12 456.53 206.26 377.44 206.08 298.36 C 189.11 309.42 171.03 318.64 153.10 328.03 C 153.04 312.75 152.95 297.47 153.09 282.18 C 167.62 276.87 180.21 267.58 192.81 258.82 Z" />
        <path fill="#fefefe" opacity="1.00" d=" M 315.61 252.57 C 321.36 249.99 327.69 248.90 333.98 249.06 C 385.87 249.12 437.77 249.04 489.66 249.10 C 489.59 262.63 489.60 276.17 489.65 289.70 C 448.08 289.70 406.51 289.90 364.95 288.71 C 357.23 287.93 349.45 294.04 349.30 301.97 C 349.13 324.17 349.46 346.37 349.44 368.57 C 386.96 368.54 424.48 368.54 462.00 368.60 C 480.58 368.48 498.12 384.18 498.97 402.92 C 499.02 433.61 498.91 464.31 499.03 495.01 C 499.74 512.86 486.63 529.54 469.89 534.86 C 461.89 537.67 453.31 536.75 445.00 536.89 C 406.65 536.99 368.30 536.77 329.96 536.14 C 313.93 535.58 298.85 525.13 292.64 510.37 C 289.90 504.31 288.97 497.61 289.16 491.00 C 289.22 424.65 289.15 358.29 289.20 291.94 C 289.23 275.12 300.19 259.11 315.61 252.57 M 349.82 409.33 C 350.07 430.55 350.34 451.77 350.64 473.00 C 350.61 477.73 351.30 482.79 354.48 486.53 C 357.86 490.97 363.45 493.15 368.93 493.07 C 386.29 493.21 403.65 493.20 421.01 493.37 C 426.16 493.34 431.70 493.97 436.41 491.40 C 442.06 488.52 445.63 482.30 445.53 475.99 C 445.58 459.64 445.50 443.28 445.57 426.93 C 445.70 422.72 444.77 418.31 441.89 415.11 C 438.78 411.34 433.82 409.69 429.05 409.77 C 402.64 409.68 376.23 409.53 349.82 409.33 Z" />
        <path fill="#fefefe" opacity="1.00" d=" M 581.25 322.97 C 580.93 319.85 583.81 316.85 586.95 317.13 C 593.99 317.00 601.02 317.19 608.06 317.07 C 610.48 317.14 613.47 316.72 615.06 319.02 C 616.80 320.48 616.43 322.92 616.55 324.95 C 616.44 340.77 616.59 356.59 616.46 372.41 C 631.98 372.62 647.50 372.42 663.02 372.49 C 666.06 372.15 669.10 374.85 669.01 377.93 C 669.13 385.64 669.13 393.36 669.01 401.06 C 669.10 404.14 666.06 406.84 663.02 406.51 C 647.50 406.57 631.97 406.38 616.46 406.59 C 616.54 423.08 616.53 439.58 616.49 456.07 C 616.73 459.05 614.05 462.03 611.01 461.86 C 603.00 461.94 594.97 461.92 586.96 461.87 C 583.82 462.15 580.93 459.15 581.25 456.04 C 581.19 439.54 581.28 423.04 581.23 406.54 C 565.81 406.45 550.40 406.53 534.98 406.52 C 531.85 406.92 528.60 404.25 528.72 401.04 C 528.62 393.35 528.62 385.65 528.72 377.96 C 528.60 374.75 531.85 372.08 534.98 372.48 C 550.40 372.47 565.81 372.55 581.23 372.46 C 581.28 355.96 581.19 339.46 581.25 322.97 Z" />
        <path fill="#fefefe" opacity="1.00" d=" M 187.87 685.87 C 199.27 677.83 213.83 674.49 227.62 676.50 C 233.94 677.45 239.92 679.82 246.02 681.64 C 247.00 680.27 247.96 678.91 248.93 677.56 C 250.47 677.65 252.01 677.75 253.56 677.85 C 253.54 688.24 254.09 698.62 254.23 709.01 C 254.77 711.90 251.44 712.44 249.37 712.91 C 246.03 704.37 243.57 694.87 236.41 688.58 C 228.88 680.90 215.92 680.26 207.16 686.15 C 197.03 693.37 191.46 705.54 189.79 717.61 C 188.44 728.65 189.10 740.24 193.52 750.56 C 197.35 759.58 205.40 767.02 215.18 768.87 C 224.13 770.55 234.33 769.52 241.52 763.47 C 247.11 758.51 248.91 750.85 250.36 743.82 C 252.21 744.03 254.07 744.27 255.92 744.50 C 254.94 752.37 253.16 760.62 247.75 766.72 C 240.92 774.57 230.17 777.71 220.06 777.98 C 206.47 778.43 191.90 774.84 182.13 764.87 C 171.16 754.13 167.32 737.91 168.72 722.99 C 169.89 708.81 176.05 694.35 187.87 685.87 Z" />
        <path fill="#fefefe" opacity="1.00" d=" M 302.79 680.84 C 303.58 677.05 307.72 678.38 310.54 678.18 C 321.21 704.21 332.00 730.19 342.80 756.16 C 344.72 760.32 346.45 764.98 350.30 767.77 C 353.17 769.49 356.68 769.46 359.87 770.24 C 360.31 771.58 361.34 773.43 359.91 774.58 C 358.85 776.18 356.65 775.61 355.04 775.83 C 341.71 775.70 328.38 775.90 315.05 775.74 C 311.99 776.17 311.94 772.52 311.30 770.49 C 315.16 769.59 319.84 769.89 322.80 766.83 C 325.14 764.31 324.23 760.58 323.24 757.69 C 320.79 751.19 317.92 744.85 315.49 738.35 C 306.37 738.23 297.25 738.33 288.13 738.28 C 286.10 743.82 283.76 749.24 281.80 754.80 C 280.65 758.42 279.43 762.77 281.80 766.19 C 283.92 769.52 288.25 769.67 291.69 770.59 C 291.06 772.61 290.95 776.16 287.95 775.74 C 278.65 775.85 269.34 775.85 260.05 775.74 C 257.04 776.17 256.96 772.58 256.29 770.57 C 259.63 769.82 263.38 769.50 266.00 767.03 C 270.73 762.63 273.15 756.46 275.62 750.64 C 284.79 727.42 293.67 704.08 302.79 680.84 M 290.87 731.17 C 298.06 731.22 305.26 731.25 312.46 731.15 C 308.90 721.99 305.12 712.92 301.44 703.80 C 297.68 712.83 294.38 722.04 290.87 731.17 Z" />
        <path fill="#fefefe" opacity="1.00" d=" M 361.82 678.35 C 374.87 678.04 387.94 678.30 401.00 678.20 C 410.93 678.29 421.15 677.97 430.67 681.30 C 443.68 685.60 454.13 696.20 459.12 708.86 C 464.53 722.49 464.67 738.34 458.90 751.87 C 454.77 761.77 446.28 769.86 435.93 772.91 C 427.20 775.43 418.02 775.76 408.99 775.80 C 393.23 775.72 377.47 775.92 361.72 775.69 C 361.47 773.87 360.31 771.96 361.17 770.19 C 364.56 769.38 368.58 769.90 371.30 767.32 C 375.15 764.08 375.00 758.58 375.21 754.00 C 375.21 736.00 375.21 718.00 375.21 700.01 C 375.01 695.80 375.15 691.09 372.39 687.62 C 369.48 684.31 364.71 684.28 360.71 683.52 C 361.09 681.79 361.41 680.06 361.82 678.35 M 394.26 684.60 C 394.33 704.73 394.28 724.86 394.29 745.00 C 394.32 749.74 394.05 754.53 394.83 759.24 C 395.37 762.65 397.25 765.97 400.35 767.68 C 404.44 769.99 409.34 769.89 413.89 769.62 C 420.24 769.19 426.50 766.57 430.82 761.81 C 441.28 750.95 444.11 734.70 441.72 720.22 C 439.68 707.56 432.74 695.12 421.30 688.77 C 413.09 684.14 403.38 684.40 394.26 684.60 Z" />
        <path fill="#fefefe" opacity="1.00" d=" M 472.11 682.78 C 469.50 681.17 472.77 677.75 475.03 678.25 C 487.35 678.11 499.68 678.28 512.00 678.20 C 517.93 678.23 523.90 678.23 529.78 679.19 C 540.57 680.90 549.93 690.05 551.32 700.99 C 552.20 707.55 551.32 714.77 547.14 720.13 C 542.75 725.84 535.59 728.70 528.58 729.36 C 520.67 729.97 512.73 729.74 504.80 729.80 C 504.80 738.21 504.77 746.61 504.78 755.02 C 504.90 759.11 505.05 763.79 508.10 766.91 C 511.06 769.79 515.47 769.76 519.30 770.41 C 518.91 772.15 518.59 773.91 518.19 775.65 C 504.77 775.97 491.35 775.67 477.93 775.84 C 476.21 775.70 474.33 776.03 472.74 775.24 C 471.47 774.00 471.25 772.09 470.56 770.53 C 475.27 769.78 481.24 769.65 483.84 764.89 C 486.16 759.96 485.51 754.28 485.72 748.99 C 485.66 732.64 485.77 716.28 485.67 699.93 C 485.41 695.65 485.62 690.77 482.65 687.32 C 479.93 684.27 475.32 684.87 472.11 682.78 M 504.80 684.58 C 504.79 697.54 504.78 710.50 504.80 723.47 C 510.82 723.25 517.44 724.07 522.84 720.83 C 533.88 713.65 533.55 695.35 523.32 687.64 C 518.01 683.60 511.02 684.62 504.80 684.58 Z" />
        <path fill="#fefefe" opacity="1.00" d=" M 597.06 678.19 C 599.28 678.20 601.50 678.21 603.73 678.24 C 614.36 703.95 624.99 729.66 635.66 755.35 C 637.47 759.33 639.08 763.61 642.24 766.76 C 645.52 769.72 650.27 769.61 654.35 770.54 C 653.80 772.20 653.50 774.02 652.42 775.46 C 649.31 776.02 646.13 775.78 642.99 775.82 C 630.60 775.68 618.20 775.97 605.81 775.65 C 605.40 773.92 605.09 772.17 604.72 770.45 C 608.50 769.64 612.97 769.79 615.93 766.92 C 618.37 764.39 617.42 760.53 616.41 757.58 C 613.99 751.09 611.12 744.78 608.66 738.30 C 599.54 738.29 590.41 738.28 581.29 738.31 C 579.34 743.89 576.94 749.29 574.97 754.87 C 573.87 758.43 572.68 762.69 574.96 766.07 C 577.11 769.55 581.61 769.71 585.16 770.72 C 584.38 772.78 583.99 776.21 580.97 775.76 C 571.67 775.82 562.35 775.88 553.05 775.72 C 550.15 776.07 550.21 772.46 549.56 770.55 C 553.07 769.80 557.00 769.38 559.64 766.65 C 564.45 761.93 566.82 755.44 569.37 749.35 C 578.66 725.65 587.76 701.88 597.06 678.19 M 594.54 703.77 C 591.04 712.91 587.53 722.04 584.07 731.20 C 591.27 731.20 598.47 731.26 605.68 731.15 C 602.06 721.98 598.43 712.82 594.54 703.77 Z" />
        <path fill="#fefefe" opacity="1.00" d=" M 481.66 868.66 C 495.05 868.65 508.43 868.64 521.81 868.67 C 521.80 871.11 521.80 873.55 521.81 876.00 C 508.43 875.99 495.04 876.00 481.66 876.00 C 481.65 873.55 481.65 871.10 481.66 868.66 Z" />
        <path fill="#fefefe" opacity="1.00" d=" M 481.66 888.00 C 495.04 888.00 508.43 888.00 521.81 888.00 C 521.80 890.43 521.80 892.88 521.81 895.33 C 508.43 895.36 495.05 895.35 481.66 895.34 C 481.65 892.88 481.65 890.44 481.66 888.00 Z" />
        <path fill="#fefefe" opacity="1.00" d=" M 182.00 930.00 C 195.87 930.00 209.73 930.00 223.60 930.00 C 223.59 936.00 223.59 942.00 223.60 948.00 C 209.73 948.00 195.87 948.00 182.00 948.00 C 182.00 942.00 182.00 936.00 182.00 930.00 Z" />
        <path fill="#fefefe" opacity="1.00" d=" M 286.79 970.43 C 290.55 965.58 293.56 960.21 295.88 954.54 C 298.51 958.84 301.04 963.20 303.21 967.75 C 306.09 964.99 309.07 962.34 312.00 959.63 C 312.00 963.06 311.99 966.50 312.00 969.94 C 300.82 970.79 289.60 971.09 278.40 971.67 C 278.41 968.43 278.40 965.20 278.44 961.98 C 281.44 964.57 284.21 967.41 286.79 970.43 Z" />
    </g>
    <g id="#ffb540ff">
        <path fill="#ffb540" opacity="1.00" d=" M 83.94 100.93 C 94.15 91.40 108.01 85.96 121.98 86.01 C 307.99 85.98 494.00 86.01 680.00 86.00 C 689.03 85.81 698.29 86.00 706.84 89.26 C 728.67 96.76 744.33 118.87 743.99 141.98 C 744.01 370.32 743.99 598.66 744.00 827.00 C 518.00 827.00 292.00 827.00 66.00 827.00 C 66.01 598.66 65.99 370.32 66.01 141.98 C 65.93 126.58 72.61 111.34 83.94 100.93 M 192.81 258.82 C 180.21 267.58 167.62 276.87 153.09 282.18 C 152.95 297.47 153.04 312.75 153.10 328.03 C 171.03 318.64 189.11 309.42 206.08 298.36 C 206.26 377.44 206.12 456.53 206.15 535.62 C 222.31 535.55 238.48 535.57 254.64 535.61 C 254.59 440.10 254.57 344.60 254.65 249.10 C 238.78 249.15 222.91 248.90 207.05 249.19 C 201.65 251.13 197.68 255.83 192.81 258.82 M 315.61 252.57 C 300.19 259.11 289.23 275.12 289.20 291.94 C 289.15 358.29 289.22 424.65 289.16 491.00 C 288.97 497.61 289.90 504.31 292.64 510.37 C 298.85 525.13 313.93 535.58 329.96 536.14 C 368.30 536.77 406.65 536.99 445.00 536.89 C 453.31 536.75 461.89 537.67 469.89 534.86 C 486.63 529.54 499.74 512.86 499.03 495.01 C 498.91 464.31 499.02 433.61 498.97 402.92 C 498.12 384.18 480.58 368.48 462.00 368.60 C 424.48 368.54 386.96 368.54 349.44 368.57 C 349.46 346.37 349.13 324.17 349.30 301.97 C 349.45 294.04 357.23 287.93 364.95 288.71 C 406.51 289.90 448.08 289.70 489.65 289.70 C 489.60 276.17 489.59 262.63 489.66 249.10 C 437.77 249.04 385.87 249.12 333.98 249.06 C 327.69 248.90 321.36 249.99 315.61 252.57 M 581.25 322.97 C 581.19 339.46 581.28 355.96 581.23 372.46 C 565.81 372.55 550.40 372.47 534.98 372.48 C 531.85 372.08 528.60 374.75 528.72 377.96 C 528.62 385.65 528.62 393.35 528.72 401.04 C 528.60 404.25 531.85 406.92 534.98 406.52 C 550.40 406.53 565.81 406.45 581.23 406.54 C 581.28 423.04 581.19 439.54 581.25 456.04 C 580.93 459.15 583.82 462.15 586.96 461.87 C 594.97 461.92 603.00 461.94 611.01 461.86 C 614.05 462.03 616.73 459.05 616.49 456.07 C 616.53 439.58 616.54 423.08 616.46 406.59 C 631.97 406.38 647.50 406.57 663.02 406.51 C 666.06 406.84 669.10 404.14 669.01 401.06 C 669.13 393.36 669.13 385.64 669.01 377.93 C 669.10 374.85 666.06 372.15 663.02 372.49 C 647.50 372.42 631.98 372.62 616.46 372.41 C 616.59 356.59 616.44 340.77 616.55 324.95 C 616.43 322.92 616.80 320.48 615.06 319.02 C 613.47 316.72 610.48 317.14 608.06 317.07 C 601.02 317.19 593.99 317.00 586.95 317.13 C 583.81 316.85 580.93 319.85 581.25 322.97 M 187.87 685.87 C 176.05 694.35 169.89 708.81 168.72 722.99 C 167.32 737.91 171.16 754.13 182.13 764.87 C 191.90 774.84 206.47 778.43 220.06 777.98 C 230.17 777.71 240.92 774.57 247.75 766.72 C 253.16 760.62 254.94 752.37 255.92 744.50 C 254.07 744.27 252.21 744.03 250.36 743.82 C 248.91 750.85 247.11 758.51 241.52 763.47 C 234.33 769.52 224.13 770.55 215.18 768.87 C 205.40 767.02 197.35 759.58 193.52 750.56 C 189.10 740.24 188.44 728.65 189.79 717.61 C 191.46 705.54 197.03 693.37 207.16 686.15 C 215.92 680.26 228.88 680.90 236.41 688.58 C 243.57 694.87 246.03 704.37 249.37 712.91 C 251.44 712.44 254.77 711.90 254.23 709.01 C 254.09 698.62 253.54 688.24 253.56 677.85 C 252.01 677.75 250.47 677.65 248.93 677.56 C 247.96 678.91 247.00 680.27 246.02 681.64 C 239.92 679.82 233.94 677.45 227.62 676.50 C 213.83 674.49 199.27 677.83 187.87 685.87 M 302.79 680.84 C 293.67 704.08 284.79 727.42 275.62 750.64 C 273.15 756.46 270.73 762.63 266.00 767.03 C 263.38 769.50 259.63 769.82 256.29 770.57 C 256.96 772.58 257.04 776.17 260.05 775.74 C 269.34 775.85 278.65 775.85 287.95 775.74 C 290.95 776.16 291.06 772.61 291.69 770.59 C 288.25 769.67 283.92 769.52 281.80 766.19 C 279.43 762.77 280.65 758.42 281.80 754.80 C 283.76 749.24 286.10 743.82 288.13 738.28 C 297.25 738.33 306.37 738.23 315.49 738.35 C 317.92 744.85 320.79 751.19 323.24 757.69 C 324.23 760.58 325.14 764.31 322.80 766.83 C 319.84 769.89 315.16 769.59 311.30 770.49 C 311.94 772.52 311.99 776.17 315.05 775.74 C 328.38 775.90 341.71 775.70 355.04 775.83 C 356.65 775.61 358.85 776.18 359.91 774.58 C 361.34 773.43 360.31 771.58 359.87 770.24 C 356.68 769.46 353.17 769.49 350.30 767.77 C 346.45 764.98 344.72 760.32 342.80 756.16 C 332.00 730.19 321.21 704.21 310.54 678.18 C 307.72 678.38 303.58 677.05 302.79 680.84 M 361.82 678.35 C 361.41 680.06 361.09 681.79 360.71 683.52 C 364.71 684.28 369.48 684.31 372.39 687.62 C 375.15 691.09 375.01 695.80 375.21 700.01 C 375.21 718.00 375.21 736.00 375.21 754.00 C 375.00 758.58 375.15 764.08 371.30 767.32 C 368.58 769.90 364.56 769.38 361.17 770.19 C 360.31 771.96 361.47 773.87 361.72 775.69 C 377.47 775.92 393.23 775.72 408.99 775.80 C 418.02 775.76 427.20 775.43 435.93 772.91 C 446.28 769.86 454.77 761.77 458.90 751.87 C 464.67 738.34 464.53 722.49 459.12 708.86 C 454.13 696.20 443.68 685.60 430.67 681.30 C 421.15 677.97 410.93 678.29 401.00 678.20 C 387.94 678.30 374.87 678.04 361.82 678.35 M 472.11 682.78 C 475.32 684.87 479.93 684.27 482.65 687.32 C 485.62 690.77 485.41 695.65 485.67 699.93 C 485.77 716.28 485.66 732.64 485.72 748.99 C 485.51 754.28 486.16 759.96 483.84 764.89 C 481.24 769.65 475.27 769.78 470.56 770.53 C 471.25 772.09 471.47 774.00 472.74 775.24 C 474.33 776.03 476.21 775.70 477.93 775.84 C 491.35 775.67 504.77 775.97 518.19 775.65 C 518.59 773.91 518.91 772.15 519.30 770.41 C 515.47 769.76 511.06 769.79 508.10 766.91 C 505.05 763.79 504.90 759.11 504.78 755.02 C 504.77 746.61 504.80 738.21 504.80 729.80 C 512.73 729.74 520.67 729.97 528.58 729.36 C 535.59 728.70 542.75 725.84 547.14 720.13 C 551.32 714.77 552.20 707.55 551.32 700.99 C 549.93 690.05 540.57 680.90 529.78 679.19 C 523.90 678.23 517.93 678.23 512.00 678.20 C 499.68 678.28 487.35 678.11 475.03 678.25 C 472.77 677.75 469.50 681.17 472.11 682.78 M 597.06 678.19 C 587.76 701.88 578.66 725.65 569.37 749.35 C 566.82 755.44 564.45 761.93 559.64 766.65 C 557.00 769.38 553.07 769.80 549.56 770.55 C 550.21 772.46 550.15 776.07 553.05 775.72 C 562.35 775.88 571.67 775.82 580.97 775.76 C 583.99 776.21 584.38 772.78 585.16 770.72 C 581.61 769.71 577.11 769.55 574.96 766.07 C 572.68 762.69 573.87 758.43 574.97 754.87 C 576.94 749.29 579.34 743.89 581.29 738.31 C 590.41 738.28 599.54 738.29 608.66 738.30 C 611.12 744.78 613.99 751.09 616.41 757.58 C 617.42 760.53 618.37 764.39 615.93 766.92 C 612.97 769.79 608.50 769.64 604.72 770.45 C 605.09 772.17 605.40 773.92 605.81 775.65 C 618.20 775.97 630.60 775.68 642.99 775.82 C 646.13 775.78 649.31 776.02 652.42 775.46 C 653.50 774.02 653.80 772.20 654.35 770.54 C 650.27 769.61 645.52 769.72 642.24 766.76 C 639.08 763.61 637.47 759.33 635.66 755.35 C 624.99 729.66 614.36 703.95 603.73 678.24 C 601.50 678.21 599.28 678.20 597.06 678.19 Z" />
        <path fill="#ffb540" opacity="1.00" d=" M 349.82 409.33 C 376.23 409.53 402.64 409.68 429.05 409.77 C 433.82 409.69 438.78 411.34 441.89 415.11 C 444.77 418.31 445.70 422.72 445.57 426.93 C 445.50 443.28 445.58 459.64 445.53 475.99 C 445.63 482.30 442.06 488.52 436.41 491.40 C 431.70 493.97 426.16 493.34 421.01 493.37 C 403.65 493.20 386.29 493.21 368.93 493.07 C 363.45 493.15 357.86 490.97 354.48 486.53 C 351.30 482.79 350.61 477.73 350.64 473.00 C 350.34 451.77 350.07 430.55 349.82 409.33 Z" />
        <path fill="#ffb540" opacity="1.00" d=" M 394.26 684.60 C 403.38 684.40 413.09 684.14 421.30 688.77 C 432.74 695.12 439.68 707.56 441.72 720.22 C 444.11 734.70 441.28 750.95 430.82 761.81 C 426.50 766.57 420.24 769.19 413.89 769.62 C 409.34 769.89 404.44 769.99 400.35 767.68 C 397.25 765.97 395.37 762.65 394.83 759.24 C 394.05 754.53 394.32 749.74 394.29 745.00 C 394.28 724.86 394.33 704.73 394.26 684.60 Z" />
        <path fill="#ffb540" opacity="1.00" d=" M 504.80 684.58 C 511.02 684.62 518.01 683.60 523.32 687.64 C 533.55 695.35 533.88 713.65 522.84 720.83 C 517.44 724.07 510.82 723.25 504.80 723.47 C 504.78 710.50 504.79 697.54 504.80 684.58 Z" />
        <path fill="#ffb540" opacity="1.00" d=" M 290.87 731.17 C 294.38 722.04 297.68 712.83 301.44 703.80 C 305.12 712.92 308.90 721.99 312.46 731.15 C 305.26 731.25 298.06 731.22 290.87 731.17 Z" />
        <path fill="#ffb540" opacity="1.00" d=" M 594.54 703.77 C 598.43 712.82 602.06 721.98 605.68 731.15 C 598.47 731.26 591.27 731.20 584.07 731.20 C 587.53 722.04 591.04 712.91 594.54 703.77 Z" />
    </g>
</svg>