<?xml version="1.0" encoding="UTF-8"?>
<!DOCTYPE svg PUBLIC "-//W3C//DTD SVG 1.1//EN" "http://www.w3.org/Graphics/SVG/1.1/DTD/svg11.dtd">
<svg width="810pt" height="1038pt" viewBox="0 0 810 1038" version="1.1" xmlns="http://www.w3.org/2000/svg">
    <g id="#050505ff">
        <path fill="#050505" opacity="1.00" d=" M 55.07 0.00 L 753.88 0.00 C 764.55 2.70 775.24 6.17 784.12 12.90 C 798.11 23.08 806.41 39.32 810.00 55.95 L 810.00 981.87 C 807.94 988.67 806.48 995.73 803.13 1002.08 C 796.01 1016.36 783.45 1027.84 768.55 1033.57 C 763.81 1035.42 758.81 1036.43 753.98 1038.00 L 56.14 1038.00 C 50.54 1036.25 44.74 1035.10 39.36 1032.72 C 23.74 1026.07 10.98 1013.03 4.70 997.25 C 2.70 992.30 1.64 987.05 0.00 981.99 L 0.00 56.07 C 1.92 48.96 3.55 41.67 7.16 35.18 C 13.52 22.50 24.34 12.30 37.06 6.13 C 42.79 3.35 49.07 2.05 55.07 0.00 M 57.40 20.64 C 36.40 23.87 19.60 43.70 20.00 64.97 C 19.97 365.65 20.00 666.32 19.98 967.00 C 19.96 972.34 19.85 977.76 21.12 982.99 C 24.44 997.91 35.91 1010.71 50.41 1015.57 C 59.89 1019.05 70.13 1017.77 80.00 1018.01 C 301.67 1018.01 523.35 1018.02 745.02 1018.00 C 764.37 1018.32 782.68 1004.56 788.08 986.04 C 790.88 977.30 789.80 968.02 790.01 959.00 C 790.00 660.99 790.03 362.99 790.00 64.98 C 790.13 50.06 782.13 35.46 769.62 27.38 C 762.11 22.33 753.03 19.85 744.01 20.00 C 518.00 19.97 292.00 20.00 65.99 19.99 C 63.12 20.01 60.24 20.15 57.40 20.64 Z" />
        <path fill="#050505" opacity="1.00" d=" M 326.63 895.59 C 339.94 883.22 350.12 867.65 356.72 850.74 C 362.07 852.43 367.47 853.98 372.83 855.63 C 372.30 857.08 371.76 858.55 371.21 860.02 C 379.32 874.87 390.29 888.22 403.59 898.72 C 398.70 902.96 394.19 907.65 390.33 912.86 C 379.38 902.36 370.66 889.79 363.18 876.65 C 355.71 890.12 346.16 902.48 334.56 912.65 C 332.81 910.60 331.05 908.56 329.17 906.64 C 328.95 907.35 328.51 908.77 328.29 909.48 C 305.72 909.33 283.15 909.45 260.59 909.41 C 260.59 904.80 260.58 900.19 260.59 895.59 C 263.05 895.58 265.52 895.58 267.99 895.60 C 268.02 884.00 267.99 872.40 268.00 860.81 C 272.89 860.80 277.78 860.79 282.67 860.81 C 282.66 872.41 282.62 884.01 282.69 895.61 C 285.32 895.57 287.96 895.58 290.59 895.59 C 290.58 881.33 290.58 867.07 290.60 852.80 C 295.79 852.80 300.99 852.80 306.19 852.81 C 306.19 858.20 306.21 863.59 306.18 868.99 C 313.26 869.01 320.33 868.99 327.40 869.00 C 327.41 873.66 327.42 878.33 327.40 883.00 C 320.33 883.00 313.26 882.99 306.18 883.01 C 306.20 887.20 306.19 891.40 306.20 895.60 C 313.01 895.57 319.82 895.59 326.63 895.59 Z" />
        <path fill="#050505" opacity="1.00" d=" M 160.28 861.46 C 184.72 859.75 209.23 857.40 233.16 851.93 C 236.48 856.62 239.13 861.77 242.07 866.71 C 232.17 869.08 222.09 870.59 212.01 872.00 C 211.99 876.78 212.00 881.56 212.00 886.34 C 224.89 886.34 237.78 886.37 250.68 886.32 C 250.64 891.54 250.65 896.77 250.67 902.00 C 237.78 902.00 224.89 902.00 212.00 902.00 C 212.00 906.60 211.99 911.20 212.01 915.81 C 221.81 915.79 231.61 915.81 241.40 915.80 C 241.42 931.27 241.42 946.73 241.40 962.20 C 215.94 962.19 190.47 962.20 165.00 962.19 C 165.00 946.73 165.00 931.27 165.00 915.81 C 174.60 915.80 184.20 915.80 193.81 915.81 C 193.80 911.20 193.80 906.60 193.81 902.01 C 180.65 901.99 167.49 902.00 154.33 902.00 C 154.34 896.77 154.36 891.54 154.32 886.32 C 167.49 886.36 180.65 886.35 193.81 886.33 C 193.80 882.16 193.79 878.00 193.82 873.84 C 184.15 874.48 174.49 875.41 164.80 875.45 C 163.82 870.63 162.32 865.93 160.28 861.46 M 182.00 930.00 C 182.00 936.00 182.00 942.00 182.00 948.00 C 195.87 947.99 209.74 948.02 223.61 947.98 C 223.58 941.99 223.58 936.00 223.61 930.02 C 209.74 929.98 195.87 930.01 182.00 930.00 Z" />
        <path fill="#050505" opacity="1.00" d=" M 425.31 851.61 C 430.77 851.57 436.23 851.57 441.69 851.61 C 441.63 861.01 441.65 870.41 441.67 879.81 C 446.66 879.79 451.65 879.80 456.64 879.80 C 456.67 885.34 456.66 890.88 456.65 896.42 C 451.66 896.40 446.67 896.43 441.69 896.39 C 441.62 903.78 441.66 911.17 441.67 918.56 C 446.16 917.34 450.67 916.20 455.15 914.96 C 456.03 920.35 456.83 925.77 457.60 931.19 C 452.29 932.78 447.00 934.44 441.67 935.99 C 441.64 947.67 441.65 959.35 441.67 971.04 C 441.65 976.21 441.40 982.50 436.66 985.72 C 430.43 990.14 422.35 989.57 415.09 989.68 C 414.18 984.05 412.65 978.52 410.39 973.29 C 415.29 973.32 420.21 973.56 425.10 973.02 C 425.64 962.32 425.23 951.59 425.32 940.88 C 420.72 942.10 416.17 943.49 411.57 944.73 C 410.20 938.90 408.79 933.09 407.53 927.24 C 413.53 926.10 419.40 924.41 425.34 922.99 C 425.33 914.12 425.38 905.25 425.31 896.39 C 419.87 896.44 414.43 896.40 409.00 896.41 C 409.00 890.87 409.00 885.34 409.00 879.81 C 414.44 879.81 419.88 879.79 425.33 879.81 C 425.35 870.41 425.37 861.01 425.31 851.61 Z" />
        <path fill="#050505" opacity="1.00" d=" M 113.60 865.99 C 118.00 862.60 122.41 859.23 126.79 855.83 C 135.17 862.99 143.29 870.59 149.77 879.56 C 145.06 883.26 140.50 887.15 135.80 890.87 C 129.57 881.60 121.64 873.67 113.60 865.99 Z" />
        <path fill="#050505" opacity="1.00" d=" M 465.00 856.33 C 489.67 856.35 514.33 856.35 539.00 856.33 C 539.00 873.62 539.00 890.91 539.00 908.19 C 514.33 908.20 489.67 908.20 465.00 908.19 C 465.00 890.91 465.00 873.62 465.00 856.33 M 481.67 868.67 C 481.65 871.10 481.65 873.55 481.66 876.00 C 495.04 875.99 508.43 876.01 521.81 875.99 C 521.80 873.54 521.80 871.10 521.81 868.67 C 508.43 868.64 495.05 868.65 481.67 868.67 M 481.66 888.00 C 481.65 890.44 481.65 892.88 481.67 895.33 C 495.05 895.35 508.43 895.36 521.81 895.33 C 521.80 892.88 521.80 890.44 521.81 888.01 C 508.43 887.99 495.04 888.00 481.66 888.00 Z" />
        <path fill="#050505" opacity="1.00" d=" M 574.33 861.00 C 609.62 861.00 644.91 861.00 680.19 861.00 C 680.20 867.00 680.20 873.00 680.19 879.00 C 644.91 879.00 609.62 879.00 574.33 879.00 C 574.35 873.00 574.35 867.00 574.33 861.00 Z" />
        <path fill="#050505" opacity="1.00" d=" M 348.21 901.73 C 352.74 899.47 357.31 897.30 361.91 895.19 C 366.58 900.79 371.02 906.60 374.81 912.85 C 370.12 915.24 365.53 917.83 360.87 920.25 C 359.77 919.60 359.41 918.27 358.72 917.29 C 355.64 911.83 351.99 906.72 348.21 901.73 Z" />
        <path fill="#050505" opacity="1.00" d=" M 560.60 897.00 C 605.13 897.00 649.66 897.00 694.19 897.00 C 694.20 903.06 694.20 909.13 694.19 915.19 C 675.35 915.19 656.51 915.20 637.67 915.19 C 637.64 932.81 637.66 950.43 637.66 968.05 C 637.47 973.36 637.89 979.20 634.87 983.87 C 631.91 988.10 626.56 989.59 621.74 990.52 C 614.07 991.92 606.24 991.60 598.48 991.68 C 597.21 985.09 594.98 978.72 592.18 972.63 C 600.05 972.93 607.96 973.21 615.84 972.87 C 617.88 972.85 618.06 970.58 617.99 969.06 C 618.01 951.10 618.00 933.14 617.99 915.19 C 598.86 915.21 579.73 915.19 560.60 915.20 C 560.58 909.13 560.58 903.06 560.60 897.00 Z" />
        <path fill="#050505" opacity="1.00" d=" M 111.57 905.00 C 123.27 905.00 134.97 905.00 146.67 905.00 C 146.80 923.21 146.35 941.47 146.88 959.66 C 155.00 964.13 163.06 969.23 172.37 970.75 C 190.75 974.00 209.53 972.71 228.06 971.72 C 236.17 971.23 244.26 970.41 252.34 969.52 C 250.22 975.18 248.41 981.00 247.67 987.03 C 231.47 988.04 215.23 988.49 199.00 988.67 C 184.92 988.52 170.25 987.97 157.37 981.62 C 152.66 979.52 148.47 976.40 143.73 974.39 C 140.82 972.99 137.63 974.49 135.32 976.33 C 130.05 980.53 125.84 985.86 121.67 991.11 C 117.91 986.00 114.23 980.82 110.45 975.72 C 116.11 970.12 122.55 965.28 129.60 961.58 C 129.59 948.28 129.57 934.98 129.61 921.69 C 123.59 921.62 117.57 921.65 111.56 921.67 C 111.61 916.11 111.59 910.55 111.57 905.00 Z" />
        <path fill="#050505" opacity="1.00" d=" M 290.44 911.24 C 294.89 911.70 299.35 911.99 303.80 912.44 C 303.34 921.35 301.90 930.17 300.45 938.96 C 304.50 944.58 308.55 950.21 311.99 956.24 C 312.01 942.16 312.00 928.08 312.00 914.00 C 316.67 914.00 321.33 914.00 326.00 914.00 C 326.00 939.56 326.00 965.11 326.00 990.67 C 321.33 990.65 316.67 990.64 312.00 990.67 C 312.00 988.23 311.99 985.79 311.99 983.37 C 296.00 984.44 280.01 985.63 264.00 986.46 C 264.00 962.57 264.00 938.69 264.00 914.81 C 268.80 914.80 273.60 914.80 278.41 914.80 C 278.48 929.36 278.29 943.93 278.50 958.49 C 287.99 944.73 288.99 927.37 290.44 911.24 M 286.80 970.40 C 284.20 967.41 281.44 964.57 278.43 962.00 C 278.40 965.22 278.42 968.44 278.39 971.67 C 289.59 971.08 300.81 970.78 311.99 969.95 C 312.01 966.51 312.00 963.09 312.00 959.67 C 309.05 962.34 306.09 965.00 303.21 967.75 C 301.03 963.22 298.53 958.85 295.89 954.59 C 293.53 960.22 290.56 965.58 286.80 970.40 Z" />
        <path fill="#050505" opacity="1.00" d=" M 457.81 914.81 C 487.34 914.80 516.87 914.81 546.40 914.80 C 546.42 919.67 546.41 924.54 546.41 929.41 C 534.28 929.40 522.14 929.43 510.01 929.39 C 509.99 933.79 509.99 938.20 510.01 942.61 C 519.57 942.58 529.13 942.57 538.69 942.61 C 538.63 947.20 538.63 951.79 538.69 956.39 C 529.13 956.42 519.57 956.42 510.02 956.39 C 509.99 962.17 509.99 967.96 510.01 973.74 C 523.52 974.28 537.05 973.87 550.56 974.00 C 548.18 978.95 546.65 984.26 545.77 989.68 C 535.54 989.59 525.32 989.73 515.09 989.62 C 504.87 989.35 494.14 987.53 485.80 981.23 C 481.09 977.89 477.68 973.13 474.65 968.31 C 470.90 976.96 465.78 985.07 458.96 991.63 C 454.86 987.66 450.46 984.02 445.75 980.80 C 459.70 969.37 464.69 950.93 466.67 933.73 C 472.10 934.41 477.55 935.04 482.98 935.74 C 482.30 940.80 481.26 945.80 480.28 950.81 C 482.43 957.81 486.90 964.19 492.94 968.41 C 493.07 955.41 492.98 942.40 492.98 929.39 C 481.26 929.43 469.53 929.41 457.81 929.41 C 457.80 924.54 457.80 919.67 457.81 914.81 Z" />
        <path fill="#050505" opacity="1.00" d=" M 332.61 921.31 C 346.07 921.39 359.54 921.32 373.00 921.35 C 377.33 921.27 381.77 921.80 385.95 920.36 C 390.01 923.02 394.09 925.65 398.18 928.26 C 390.99 942.79 381.66 956.13 371.73 968.91 C 375.83 972.13 379.78 975.54 383.73 978.96 C 380.34 983.65 376.93 988.33 373.61 993.07 C 360.73 980.36 346.27 969.43 332.30 957.98 C 335.46 953.95 338.50 949.84 341.74 945.87 C 347.30 950.08 352.83 954.34 358.32 958.64 C 363.77 951.71 368.96 944.56 373.54 937.01 C 359.89 936.98 346.24 937.01 332.60 937.00 C 332.59 931.77 332.57 926.54 332.61 921.31 Z" />
        <path fill="#050505" opacity="1.00" d=" M 652.74 932.40 C 658.40 930.07 664.03 927.64 669.69 925.30 C 679.46 939.34 688.86 953.95 694.64 970.14 C 688.43 972.96 682.18 975.67 675.96 978.48 C 670.75 961.99 662.05 946.87 652.74 932.40 Z" />
        <path fill="#050505" opacity="1.00" d=" M 582.02 925.91 C 588.35 927.63 594.70 929.24 601.04 930.92 C 594.46 948.15 584.86 964.29 572.59 978.08 C 567.30 974.05 561.71 970.40 555.84 967.27 C 567.79 955.90 576.48 941.38 582.02 925.91 Z" />
    </g>
    <g id="#ffffffff">
        <path fill="#ffffff" opacity="1.00" d=" M 57.40 20.64 C 60.24 20.15 63.12 20.01 65.99 19.99 C 292.00 20.00 518.00 19.97 744.01 20.00 C 753.03 19.85 762.11 22.33 769.62 27.38 C 782.13 35.46 790.13 50.06 790.00 64.98 C 790.03 362.99 790.00 660.99 790.01 959.00 C 789.80 968.02 790.88 977.30 788.08 986.04 C 782.68 1004.56 764.37 1018.32 745.02 1018.00 C 523.35 1018.02 301.67 1018.01 80.00 1018.01 C 70.13 1017.77 59.89 1019.05 50.41 1015.57 C 35.91 1010.71 24.44 997.91 21.12 982.99 C 19.85 977.76 19.96 972.34 19.98 967.00 C 20.00 666.32 19.97 365.65 20.00 64.97 C 19.60 43.70 36.40 23.87 57.40 20.64 M 104.79 87.94 C 92.20 91.60 81.39 100.25 74.20 111.12 C 67.19 121.60 64.97 134.59 65.30 147.01 C 65.31 271.00 65.30 395.00 65.30 519.00 C 65.24 621.93 65.42 724.86 65.21 827.79 C 111.47 827.58 157.74 827.76 204.00 827.70 C 384.26 827.76 564.53 827.58 744.79 827.79 C 744.58 801.19 744.76 774.59 744.70 748.00 C 744.70 548.00 744.70 348.00 744.70 148.01 C 745.12 135.26 742.98 121.91 735.82 111.11 C 733.35 106.46 729.23 103.09 725.61 99.38 C 714.73 89.34 699.61 84.97 685.01 85.29 C 497.00 85.32 308.98 85.30 120.97 85.30 C 115.51 85.62 110.06 86.42 104.79 87.94 M 326.63 895.59 C 319.82 895.59 313.01 895.57 306.20 895.60 C 306.19 891.40 306.20 887.20 306.18 883.01 C 313.26 882.99 320.33 883.00 327.40 883.00 C 327.42 878.33 327.41 873.66 327.40 869.00 C 320.33 868.99 313.26 869.01 306.18 868.99 C 306.21 863.59 306.19 858.20 306.19 852.81 C 300.99 852.80 295.79 852.80 290.60 852.80 C 290.58 867.07 290.58 881.33 290.59 895.59 C 287.96 895.58 285.32 895.57 282.69 895.61 C 282.62 884.01 282.66 872.41 282.67 860.81 C 277.78 860.79 272.89 860.80 268.00 860.81 C 267.99 872.40 268.02 884.00 267.99 895.60 C 265.52 895.58 263.05 895.58 260.59 895.59 C 260.58 900.19 260.59 904.80 260.59 909.41 C 283.15 909.45 305.72 909.33 328.29 909.48 C 328.51 908.77 328.95 907.35 329.17 906.64 C 331.05 908.56 332.81 910.60 334.56 912.65 C 346.16 902.48 355.71 890.12 363.18 876.65 C 370.66 889.79 379.38 902.36 390.33 912.86 C 394.19 907.65 398.70 902.96 403.59 898.72 C 390.29 888.22 379.32 874.87 371.21 860.02 C 371.76 858.55 372.30 857.08 372.83 855.63 C 367.47 853.98 362.07 852.43 356.72 850.74 C 350.12 867.65 339.94 883.22 326.63 895.59 M 160.28 861.46 C 162.32 865.93 163.82 870.63 164.80 875.45 C 174.49 875.41 184.15 874.48 193.82 873.84 C 193.79 878.00 193.80 882.16 193.81 886.33 C 180.65 886.35 167.49 886.36 154.32 886.32 C 154.36 891.54 154.34 896.77 154.33 902.00 C 167.49 902.00 180.65 901.99 193.81 902.01 C 193.80 906.60 193.80 911.20 193.81 915.81 C 184.20 915.80 174.60 915.80 165.00 915.81 C 165.00 931.27 165.00 946.73 165.00 962.19 C 190.47 962.20 215.94 962.19 241.40 962.20 C 241.42 946.73 241.42 931.27 241.40 915.80 C 231.61 915.81 221.81 915.79 212.01 915.81 C 211.99 911.20 212.00 906.60 212.00 902.00 C 224.89 902.00 237.78 902.00 250.67 902.00 C 250.65 896.77 250.64 891.54 250.68 886.32 C 237.78 886.37 224.89 886.34 212.00 886.34 C 212.00 881.56 211.99 876.78 212.01 872.00 C 222.09 870.59 232.17 869.08 242.07 866.71 C 239.13 861.77 236.48 856.62 233.16 851.93 C 209.23 857.40 184.72 859.75 160.28 861.46 M 425.31 851.61 C 425.37 861.01 425.35 870.41 425.33 879.81 C 419.88 879.79 414.44 879.81 409.00 879.81 C 409.00 885.34 409.00 890.87 409.00 896.41 C 414.43 896.40 419.87 896.44 425.31 896.39 C 425.38 905.25 425.33 914.12 425.34 922.99 C 419.40 924.41 413.53 926.10 407.53 927.24 C 408.79 933.09 410.20 938.90 411.57 944.73 C 416.17 943.49 420.72 942.10 425.32 940.88 C 425.23 951.59 425.64 962.32 425.10 973.02 C 420.21 973.56 415.29 973.32 410.39 973.29 C 412.65 978.52 414.18 984.05 415.09 989.68 C 422.35 989.57 430.43 990.14 436.66 985.72 C 441.40 982.50 441.65 976.21 441.67 971.04 C 441.65 959.35 441.64 947.67 441.67 935.99 C 447.00 934.44 452.29 932.78 457.60 931.19 C 456.83 925.77 456.03 920.35 455.15 914.96 C 450.67 916.20 446.16 917.34 441.67 918.56 C 441.66 911.17 441.62 903.78 441.69 896.39 C 446.67 896.43 451.66 896.40 456.65 896.42 C 456.66 890.88 456.67 885.34 456.64 879.80 C 451.65 879.80 446.66 879.79 441.67 879.81 C 441.65 870.41 441.63 861.01 441.69 851.61 C 436.23 851.57 430.77 851.57 425.31 851.61 M 113.60 865.99 C 121.64 873.67 129.57 881.60 135.80 890.87 C 140.50 887.15 145.06 883.26 149.77 879.56 C 143.29 870.59 135.17 862.99 126.79 855.83 C 122.41 859.23 118.00 862.60 113.60 865.99 M 465.00 856.33 C 465.00 873.62 465.00 890.91 465.00 908.19 C 489.67 908.20 514.33 908.20 539.00 908.19 C 539.00 890.91 539.00 873.62 539.00 856.33 C 514.33 856.35 489.67 856.35 465.00 856.33 M 574.33 861.00 C 574.35 867.00 574.35 873.00 574.33 879.00 C 609.62 879.00 644.91 879.00 680.19 879.00 C 680.20 873.00 680.20 867.00 680.19 861.00 C 644.91 861.00 609.62 861.00 574.33 861.00 M 348.21 901.73 C 351.99 906.72 355.64 911.83 358.72 917.29 C 359.41 918.27 359.77 919.60 360.87 920.25 C 365.53 917.83 370.12 915.24 374.81 912.85 C 371.02 906.60 366.58 900.79 361.91 895.19 C 357.31 897.30 352.74 899.47 348.21 901.73 M 560.60 897.00 C 560.58 903.06 560.58 909.13 560.60 915.20 C 579.73 915.19 598.86 915.21 617.99 915.19 C 618.00 933.14 618.01 951.10 617.99 969.06 C 618.06 970.58 617.88 972.85 615.84 972.87 C 607.96 973.21 600.05 972.93 592.18 972.63 C 594.98 978.72 597.21 985.09 598.48 991.68 C 606.24 991.60 614.07 991.92 621.74 990.52 C 626.56 989.59 631.91 988.10 634.87 983.87 C 637.89 979.20 637.47 973.36 637.66 968.05 C 637.66 950.43 637.64 932.81 637.67 915.19 C 656.51 915.20 675.35 915.19 694.19 915.19 C 694.20 909.13 694.20 903.06 694.19 897.00 C 649.66 897.00 605.13 897.00 560.60 897.00 M 111.57 905.00 C 111.59 910.55 111.61 916.11 111.56 921.67 C 117.57 921.65 123.59 921.62 129.61 921.69 C 129.57 934.98 129.59 948.28 129.60 961.58 C 122.55 965.28 116.11 970.12 110.45 975.72 C 114.23 980.82 117.91 986.00 121.67 991.11 C 125.84 985.86 130.05 980.53 135.32 976.33 C 137.63 974.49 140.82 972.99 143.73 974.39 C 148.47 976.40 152.66 979.52 157.37 981.62 C 170.25 987.97 184.92 988.52 199.00 988.67 C 215.23 988.49 231.47 988.04 247.67 987.03 C 248.41 981.00 250.22 975.18 252.34 969.52 C 244.26 970.41 236.17 971.23 228.06 971.72 C 209.53 972.71 190.75 974.00 172.37 970.75 C 163.06 969.23 155.00 964.13 146.88 959.66 C 146.35 941.47 146.80 923.21 146.67 905.00 C 134.97 905.00 123.27 905.00 111.57 905.00 M 290.44 911.24 C 288.99 927.37 287.99 944.73 278.50 958.49 C 278.29 943.93 278.48 929.36 278.41 914.80 C 273.60 914.80 268.80 914.80 264.00 914.81 C 264.00 938.69 264.00 962.57 264.00 986.46 C 280.01 985.63 296.00 984.44 311.99 983.37 C 311.99 985.79 312.00 988.23 312.00 990.67 C 316.67 990.64 321.33 990.65 326.00 990.67 C 326.00 965.11 326.00 939.56 326.00 914.00 C 321.33 914.00 316.67 914.00 312.00 914.00 C 312.00 928.08 312.01 942.16 311.99 956.24 C 308.55 950.21 304.50 944.58 300.45 938.96 C 301.90 930.17 303.34 921.35 303.80 912.44 C 299.35 911.99 294.89 911.70 290.44 911.24 M 457.81 914.81 C 457.80 919.67 457.80 924.54 457.81 929.41 C 469.53 929.41 481.26 929.43 492.98 929.39 C 492.98 942.40 493.07 955.41 492.94 968.41 C 486.90 964.19 482.43 957.81 480.28 950.81 C 481.26 945.80 482.30 940.80 482.98 935.74 C 477.55 935.04 472.10 934.41 466.67 933.73 C 464.69 950.93 459.70 969.37 445.75 980.80 C 450.46 984.02 454.86 987.66 458.96 991.63 C 465.78 985.07 470.90 976.96 474.65 968.31 C 477.68 973.13 481.09 977.89 485.80 981.23 C 494.14 987.53 504.87 989.35 515.09 989.62 C 525.32 989.73 535.54 989.59 545.77 989.68 C 546.65 984.26 548.18 978.95 550.56 974.00 C 537.05 973.87 523.52 974.28 510.01 973.74 C 509.99 967.96 509.99 962.17 510.02 956.39 C 519.57 956.42 529.13 956.42 538.69 956.39 C 538.63 951.79 538.63 947.20 538.69 942.61 C 529.13 942.57 519.57 942.58 510.01 942.61 C 509.99 938.20 509.99 933.79 510.01 929.39 C 522.14 929.43 534.28 929.40 546.41 929.41 C 546.41 924.54 546.42 919.67 546.40 914.80 C 516.87 914.81 487.34 914.80 457.81 914.81 M 332.61 921.31 C 332.57 926.54 332.59 931.77 332.60 937.00 C 346.24 937.01 359.89 936.98 373.54 937.01 C 368.96 944.56 363.77 951.71 358.32 958.64 C 352.83 954.34 347.30 950.08 341.74 945.87 C 338.50 949.84 335.46 953.95 332.30 957.98 C 346.27 969.43 360.73 980.36 373.61 993.07 C 376.93 988.33 380.34 983.65 383.73 978.96 C 379.78 975.54 375.83 972.13 371.73 968.91 C 381.66 956.13 390.99 942.79 398.18 928.26 C 394.09 925.65 390.01 923.02 385.95 920.36 C 381.77 921.80 377.33 921.27 373.00 921.35 C 359.54 921.32 346.07 921.39 332.61 921.31 M 652.74 932.40 C 662.05 946.87 670.75 961.99 675.96 978.48 C 682.18 975.67 688.43 972.96 694.64 970.14 C 688.86 953.95 679.46 939.34 669.69 925.30 C 664.03 927.64 658.40 930.07 652.74 932.40 M 582.02 925.91 C 576.48 941.38 567.79 955.90 555.84 967.27 C 561.71 970.40 567.30 974.05 572.59 978.08 C 584.86 964.29 594.46 948.15 601.04 930.92 C 594.70 929.24 588.35 927.63 582.02 925.91 Z" />
        <path fill="#ffffff" opacity="1.00" d=" M 329.55 253.69 C 350.17 247.84 371.82 249.21 393.00 249.00 C 408.68 249.08 424.37 248.73 440.03 249.68 C 449.93 250.74 460.09 252.92 468.40 258.71 C 478.77 265.53 485.93 276.22 490.64 287.53 C 499.03 307.83 500.74 330.89 495.26 352.18 C 491.39 367.36 481.84 381.12 468.54 389.52 C 467.40 390.48 465.51 390.92 465.19 392.57 C 472.85 398.58 480.65 404.79 485.90 413.14 C 494.30 426.44 497.41 442.44 497.39 458.00 C 497.42 476.99 491.50 495.95 480.35 511.35 C 475.56 518.50 468.80 524.33 460.96 527.88 C 452.11 531.73 442.50 533.29 432.97 534.32 C 413.09 536.69 393.00 535.86 373.02 535.56 C 366.29 535.67 359.65 534.49 352.94 534.39 C 338.05 533.49 322.82 528.65 312.02 517.98 C 298.44 504.17 290.16 485.33 288.98 466.01 C 287.68 448.91 290.62 431.13 299.31 416.17 C 304.74 406.52 313.09 398.99 321.57 392.06 C 312.93 385.22 304.85 377.41 299.07 367.94 C 293.36 358.52 290.74 347.59 289.59 336.73 C 288.79 320.61 288.65 303.93 294.60 288.65 C 300.34 272.61 313.35 259.18 329.55 253.69 M 377.45 296.61 C 372.63 297.10 367.78 297.70 363.13 299.10 C 356.33 301.04 350.38 305.55 346.25 311.23 C 340.58 319.97 340.58 331.06 342.04 341.01 C 343.58 351.11 352.32 357.95 361.19 361.69 C 371.70 365.44 382.91 366.79 394.01 367.24 C 403.32 366.59 412.74 366.42 421.85 364.18 C 426.22 363.07 430.86 362.30 434.64 359.66 C 439.42 356.59 442.91 351.70 444.43 346.23 C 447.08 336.74 446.69 326.55 444.14 317.08 C 441.92 308.69 435.53 301.28 427.06 298.86 C 419.25 296.66 411.05 296.45 403.00 296.29 C 394.48 296.18 385.95 296.09 377.45 296.61 M 373.39 417.61 C 367.67 418.34 361.84 419.08 356.47 421.29 C 351.20 423.42 347.63 428.23 345.35 433.24 C 340.32 443.97 340.28 456.44 343.13 467.76 C 344.96 475.11 349.66 482.28 357.03 484.94 C 363.46 487.13 370.38 486.24 377.03 487.12 C 390.56 487.87 404.15 487.62 417.68 487.05 C 424.38 486.79 431.42 485.22 436.27 480.26 C 441.35 475.19 443.48 467.96 444.37 461.02 C 444.96 452.67 445.35 443.86 441.76 436.07 C 439.13 430.20 434.73 424.26 428.14 422.73 C 419.20 420.40 410.15 418.43 400.99 417.25 C 391.83 415.86 382.56 416.83 373.39 417.61 Z" />
        <path fill="#ffffff" opacity="1.00" d=" M 204.93 250.90 C 206.12 250.09 207.50 249.63 208.95 249.75 C 223.98 249.77 239.02 249.76 254.05 249.77 C 254.05 344.86 254.04 439.95 254.05 535.04 C 238.31 535.04 222.56 535.04 206.82 535.04 C 206.79 455.89 206.96 376.73 206.73 297.58 C 201.79 299.30 197.87 302.91 193.28 305.31 C 180.24 312.67 167.20 320.03 153.77 326.65 C 153.70 312.07 153.71 297.48 153.73 282.90 C 172.62 275.53 188.76 262.83 204.93 250.90 Z" />
        <path fill="#ffffff" opacity="1.00" d=" M 581.87 323.94 C 581.41 320.66 584.65 317.35 587.95 317.78 C 595.93 317.87 603.93 317.65 611.91 317.89 C 613.92 318.57 616.22 320.63 616.01 322.97 C 616.06 339.63 615.97 356.29 616.05 372.95 C 631.70 373.03 647.36 372.94 663.02 372.99 C 665.30 372.65 666.63 374.86 668.04 376.27 C 668.67 380.47 668.14 384.76 668.30 389.00 C 668.13 393.57 668.67 398.20 668.04 402.73 C 666.63 404.13 665.30 406.34 663.02 406.01 C 647.36 406.06 631.70 405.97 616.05 406.05 C 615.87 423.28 616.25 440.53 615.87 457.75 C 614.59 459.24 613.26 461.38 611.02 461.18 C 602.71 461.18 594.39 461.32 586.09 461.11 C 584.07 460.42 581.79 458.36 581.91 456.02 C 581.83 439.36 581.93 422.70 581.86 406.05 C 566.24 405.96 550.61 406.06 534.98 406.01 C 532.29 406.22 530.76 403.47 529.15 401.75 C 528.89 393.60 528.89 385.40 529.15 377.25 C 530.75 375.52 532.29 372.77 534.98 372.99 C 550.61 372.94 566.24 373.03 581.86 372.95 C 581.91 356.61 581.88 340.28 581.87 323.94 Z" />
        <path fill="#ffffff" opacity="1.00" d=" M 186.12 687.15 C 196.49 679.04 209.99 675.21 223.08 676.03 C 231.10 676.21 238.55 679.45 246.15 681.60 C 247.01 680.29 247.83 678.96 248.64 677.64 C 250.28 677.64 251.93 677.62 253.57 677.60 C 253.64 686.41 253.88 695.23 254.12 704.04 C 254.09 706.71 255.23 709.92 253.10 712.10 C 251.92 712.49 250.67 712.64 249.45 712.88 C 246.52 706.39 244.90 699.22 240.64 693.39 C 237.19 688.76 232.59 684.63 226.92 683.05 C 219.61 681.32 211.30 682.49 205.45 687.46 C 194.77 696.31 189.69 710.39 189.29 723.97 C 188.85 735.08 190.44 746.83 196.70 756.27 C 200.99 762.54 207.55 767.34 215.07 768.83 C 224.04 770.50 234.24 769.51 241.47 763.48 C 247.09 758.47 248.95 750.75 250.32 743.66 C 252.19 743.95 254.06 744.24 255.94 744.54 C 255.01 752.65 253.03 761.15 247.30 767.30 C 240.16 775.02 229.25 777.97 219.02 778.01 C 205.74 778.30 191.61 774.62 182.09 764.90 C 171.62 754.66 167.66 739.35 168.51 725.06 C 169.31 710.87 174.80 696.24 186.12 687.15 Z" />
        <path fill="#ffffff" opacity="1.00" d=" M 303.68 678.60 C 305.83 677.71 308.31 678.35 310.60 678.23 C 319.47 699.97 328.55 721.63 337.50 743.35 C 339.97 749.23 342.25 755.21 345.06 760.95 C 346.64 763.87 348.40 767.10 351.63 768.45 C 354.38 769.56 357.38 769.77 360.28 770.27 C 360.75 772.40 360.71 775.62 357.86 775.77 C 342.89 775.86 327.92 775.81 312.95 775.78 C 312.05 774.09 311.57 772.25 311.42 770.36 C 315.42 769.52 320.53 769.91 323.21 766.23 C 325.21 763.45 323.99 759.85 322.94 756.97 C 320.46 750.76 317.86 744.60 315.43 738.38 C 306.33 738.31 297.24 738.40 288.14 738.33 C 286.13 743.87 283.78 749.29 281.82 754.85 C 280.66 758.45 279.45 762.81 281.85 766.18 C 283.90 769.48 288.14 769.73 291.57 770.39 C 291.42 772.27 290.94 774.10 290.05 775.78 C 279.35 775.83 268.65 775.83 257.95 775.78 C 257.06 774.09 256.57 772.25 256.43 770.36 C 259.54 769.89 262.94 769.58 265.45 767.46 C 270.16 763.41 272.65 757.51 275.04 751.93 C 284.78 727.57 293.96 702.97 303.68 678.60 M 290.89 731.17 C 298.08 731.19 305.26 731.22 312.45 731.16 C 308.88 722.01 305.05 712.98 301.46 703.84 C 297.69 712.85 294.44 722.07 290.89 731.17 Z" />
        <path fill="#ffffff" opacity="1.00" d=" M 362.42 678.44 C 365.25 677.95 368.14 678.24 371.01 678.18 C 385.63 678.30 400.27 677.95 414.89 678.42 C 426.13 678.83 437.49 682.47 445.95 690.08 C 456.80 699.47 462.76 713.77 463.13 727.99 C 463.69 741.06 460.02 755.07 450.40 764.40 C 444.99 769.85 437.66 773.08 430.15 774.31 C 418.55 776.41 406.72 775.68 395.00 775.81 C 383.98 775.73 372.96 775.98 361.95 775.67 C 361.32 773.91 360.83 772.11 360.43 770.30 C 364.32 769.74 368.91 769.94 371.80 766.80 C 374.95 763.78 374.92 759.06 375.18 755.03 C 375.22 738.02 375.16 721.01 375.20 704.01 C 375.09 698.93 375.59 693.47 373.19 688.82 C 370.73 684.50 365.20 684.23 360.83 683.68 C 361.08 681.88 360.72 679.64 362.42 678.44 M 394.32 684.64 C 394.41 707.42 394.32 730.21 394.36 752.99 C 394.47 757.26 394.65 761.98 397.59 765.38 C 400.62 768.90 405.56 769.77 409.98 769.68 C 416.86 769.88 424.15 768.13 429.25 763.27 C 438.65 754.67 442.76 741.51 442.44 729.01 C 442.45 713.78 435.77 697.71 422.47 689.48 C 414.09 684.20 403.85 684.40 394.32 684.64 Z" />
        <path fill="#ffffff" opacity="1.00" d=" M 471.15 681.73 C 470.88 679.70 473.07 677.88 475.02 678.19 C 486.34 678.17 497.67 678.20 509.00 678.19 C 515.67 678.20 522.38 678.06 529.01 679.03 C 539.95 680.41 549.61 689.46 551.28 700.44 C 552.33 707.40 551.41 715.16 546.72 720.70 C 542.14 726.27 534.91 728.90 527.90 729.48 C 520.21 729.92 512.51 729.79 504.82 729.82 C 504.82 738.55 504.79 747.28 504.81 756.01 C 504.95 759.78 505.33 764.00 508.09 766.87 C 511.01 769.73 515.34 769.84 519.16 770.24 C 519.08 772.38 519.07 776.12 515.97 775.77 C 502.03 775.83 488.08 775.85 474.14 775.77 C 471.44 775.61 471.07 772.45 470.89 770.34 C 474.90 769.76 479.63 769.84 482.55 766.53 C 485.80 763.20 485.30 758.17 485.62 753.90 C 485.66 735.97 485.66 718.03 485.62 700.10 C 485.37 695.19 485.67 689.02 481.00 685.99 C 478.07 683.70 473.16 685.22 471.15 681.73 M 504.81 684.62 C 504.81 697.54 504.80 710.47 504.82 723.40 C 509.11 723.39 513.45 723.51 517.71 722.77 C 524.46 721.62 529.47 715.38 530.57 708.83 C 532.12 700.62 529.24 690.64 521.46 686.54 C 516.39 683.66 510.36 684.80 504.81 684.62 Z" />
        <path fill="#ffffff" opacity="1.00" d=" M 597.03 678.16 C 599.28 678.18 601.53 678.19 603.78 678.23 C 614.29 703.71 624.85 729.17 635.40 754.62 C 637.33 758.83 638.93 763.39 642.26 766.74 C 645.41 769.69 650.05 769.53 654.04 770.38 C 653.66 772.07 654.15 774.35 652.41 775.41 C 651.06 776.05 649.49 775.72 648.06 775.84 C 634.72 775.74 621.38 775.89 608.04 775.77 C 604.96 776.12 604.90 772.44 604.84 770.31 C 608.59 769.62 613.00 769.79 615.90 766.90 C 618.35 764.35 617.43 760.42 616.34 757.46 C 613.88 751.05 611.09 744.77 608.64 738.35 C 599.53 738.37 590.41 738.35 581.30 738.36 C 579.38 743.93 576.97 749.32 575.01 754.87 C 573.90 758.42 572.65 762.69 575.01 766.03 C 577.04 769.48 581.35 769.75 584.87 770.46 C 584.65 772.47 584.56 775.65 581.88 775.77 C 572.89 775.90 563.90 775.75 554.92 775.83 C 553.37 775.67 551.25 776.21 550.45 774.46 C 549.88 773.15 550.01 771.68 549.83 770.32 C 552.83 769.84 556.11 769.58 558.54 767.53 C 563.34 763.60 565.80 757.69 568.18 752.14 C 577.98 727.55 587.32 702.78 597.03 678.16 M 594.54 703.80 C 591.14 712.95 587.50 722.00 584.18 731.17 C 591.34 731.19 598.51 731.22 605.69 731.16 C 601.99 722.03 598.40 712.86 594.54 703.80 Z" />
        <path fill="#ffffff" opacity="1.00" d=" M 481.67 868.67 C 495.05 868.65 508.43 868.64 521.81 868.67 C 521.80 871.10 521.80 873.54 521.81 875.99 C 508.43 876.01 495.04 875.99 481.66 876.00 C 481.65 873.55 481.65 871.10 481.67 868.67 Z" />
        <path fill="#ffffff" opacity="1.00" d=" M 481.66 888.00 C 495.04 888.00 508.43 887.99 521.81 888.01 C 521.80 890.44 521.80 892.88 521.81 895.33 C 508.43 895.36 495.05 895.35 481.67 895.33 C 481.65 892.88 481.65 890.44 481.66 888.00 Z" />
        <path fill="#ffffff" opacity="1.00" d=" M 182.00 930.00 C 195.87 930.01 209.74 929.98 223.61 930.02 C 223.58 936.00 223.58 941.99 223.61 947.98 C 209.74 948.02 195.87 947.99 182.00 948.00 C 182.00 942.00 182.00 936.00 182.00 930.00 Z" />
        <path fill="#ffffff" opacity="1.00" d=" M 286.80 970.40 C 290.56 965.58 293.53 960.22 295.89 954.59 C 298.53 958.85 301.03 963.22 303.21 967.75 C 306.09 965.00 309.05 962.34 312.00 959.67 C 312.00 963.09 312.01 966.51 311.99 969.95 C 300.81 970.78 289.59 971.08 278.39 971.67 C 278.42 968.44 278.40 965.22 278.43 962.00 C 281.44 964.57 284.20 967.41 286.80 970.40 Z" />
    </g>
    <g id="#bd0000ff">
        <path fill="#bd0000" opacity="1.00" d=" M 104.79 87.94 C 110.06 86.42 115.51 85.62 120.97 85.30 C 308.98 85.30 497.00 85.32 685.01 85.29 C 699.61 84.97 714.73 89.34 725.61 99.38 C 729.23 103.09 733.35 106.46 735.82 111.11 C 742.98 121.91 745.12 135.26 744.70 148.01 C 744.70 348.00 744.70 548.00 744.70 748.00 C 744.76 774.59 744.58 801.19 744.79 827.79 C 564.53 827.58 384.26 827.76 204.00 827.70 C 157.74 827.76 111.47 827.58 65.21 827.79 C 65.42 724.86 65.24 621.93 65.30 519.00 C 65.30 395.00 65.31 271.00 65.30 147.01 C 64.97 134.59 67.19 121.60 74.20 111.12 C 81.39 100.25 92.20 91.60 104.79 87.94 M 329.55 253.69 C 313.35 259.18 300.34 272.61 294.60 288.65 C 288.65 303.93 288.79 320.61 289.59 336.73 C 290.74 347.59 293.36 358.52 299.07 367.94 C 304.85 377.41 312.93 385.22 321.57 392.06 C 313.09 398.99 304.74 406.52 299.31 416.17 C 290.62 431.13 287.68 448.91 288.98 466.01 C 290.16 485.33 298.44 504.17 312.02 517.98 C 322.82 528.65 338.05 533.49 352.94 534.39 C 359.65 534.49 366.29 535.67 373.02 535.56 C 393.00 535.86 413.09 536.69 432.97 534.32 C 442.50 533.29 452.11 531.73 460.96 527.88 C 468.80 524.33 475.56 518.50 480.35 511.35 C 491.50 495.95 497.42 476.99 497.39 458.00 C 497.41 442.44 494.30 426.44 485.90 413.14 C 480.65 404.79 472.85 398.58 465.19 392.57 C 465.51 390.92 467.40 390.48 468.54 389.52 C 481.84 381.12 491.39 367.36 495.26 352.18 C 500.74 330.89 499.03 307.83 490.64 287.53 C 485.93 276.22 478.77 265.53 468.40 258.71 C 460.09 252.92 449.93 250.74 440.03 249.68 C 424.37 248.73 408.68 249.08 393.00 249.00 C 371.82 249.21 350.17 247.84 329.55 253.69 M 204.93 250.90 C 188.76 262.83 172.62 275.53 153.73 282.90 C 153.71 297.48 153.70 312.07 153.77 326.65 C 167.20 320.03 180.24 312.67 193.28 305.31 C 197.87 302.91 201.79 299.30 206.73 297.58 C 206.96 376.73 206.79 455.89 206.82 535.04 C 222.56 535.04 238.31 535.04 254.05 535.04 C 254.04 439.95 254.05 344.86 254.05 249.77 C 239.02 249.76 223.98 249.77 208.95 249.75 C 207.50 249.63 206.12 250.09 204.93 250.90 M 581.87 323.94 C 581.88 340.28 581.91 356.61 581.86 372.95 C 566.24 373.03 550.61 372.94 534.98 372.99 C 532.29 372.77 530.75 375.52 529.15 377.25 C 528.89 385.40 528.89 393.60 529.15 401.75 C 530.76 403.47 532.29 406.22 534.98 406.01 C 550.61 406.06 566.24 405.96 581.86 406.05 C 581.93 422.70 581.83 439.36 581.91 456.02 C 581.79 458.36 584.07 460.42 586.09 461.11 C 594.39 461.32 602.71 461.18 611.02 461.18 C 613.26 461.38 614.59 459.24 615.87 457.75 C 616.25 440.53 615.87 423.28 616.05 406.05 C 631.70 405.97 647.36 406.06 663.02 406.01 C 665.30 406.34 666.63 404.13 668.04 402.73 C 668.67 398.20 668.13 393.57 668.30 389.00 C 668.14 384.76 668.67 380.47 668.04 376.27 C 666.63 374.86 665.30 372.65 663.02 372.99 C 647.36 372.94 631.70 373.03 616.05 372.95 C 615.97 356.29 616.06 339.63 616.01 322.97 C 616.22 320.63 613.92 318.57 611.91 317.89 C 603.93 317.65 595.93 317.87 587.95 317.78 C 584.65 317.35 581.41 320.66 581.87 323.94 M 186.12 687.15 C 174.80 696.24 169.31 710.87 168.51 725.06 C 167.66 739.35 171.62 754.66 182.09 764.90 C 191.61 774.62 205.74 778.30 219.02 778.01 C 229.25 777.97 240.16 775.02 247.30 767.30 C 253.03 761.15 255.01 752.65 255.94 744.54 C 254.06 744.24 252.19 743.95 250.32 743.66 C 248.95 750.75 247.09 758.47 241.47 763.48 C 234.24 769.51 224.04 770.50 215.07 768.83 C 207.55 767.34 200.99 762.54 196.70 756.27 C 190.44 746.83 188.85 735.08 189.29 723.97 C 189.69 710.39 194.77 696.31 205.45 687.46 C 211.30 682.49 219.61 681.32 226.92 683.05 C 232.59 684.63 237.19 688.76 240.64 693.39 C 244.90 699.22 246.52 706.39 249.45 712.88 C 250.67 712.64 251.92 712.49 253.10 712.10 C 255.23 709.92 254.09 706.71 254.12 704.04 C 253.88 695.23 253.64 686.41 253.57 677.60 C 251.93 677.62 250.28 677.64 248.64 677.64 C 247.83 678.96 247.01 680.29 246.15 681.60 C 238.55 679.45 231.10 676.21 223.08 676.03 C 209.99 675.21 196.49 679.04 186.12 687.15 M 303.68 678.60 C 293.96 702.97 284.78 727.57 275.04 751.93 C 272.65 757.51 270.16 763.41 265.45 767.46 C 262.94 769.58 259.54 769.89 256.43 770.36 C 256.57 772.25 257.06 774.09 257.95 775.78 C 268.65 775.83 279.35 775.83 290.05 775.78 C 290.94 774.10 291.42 772.27 291.57 770.39 C 288.14 769.73 283.90 769.48 281.85 766.18 C 279.45 762.81 280.66 758.45 281.82 754.85 C 283.78 749.29 286.13 743.87 288.14 738.33 C 297.24 738.40 306.33 738.31 315.43 738.38 C 317.86 744.60 320.46 750.76 322.94 756.97 C 323.99 759.85 325.21 763.45 323.21 766.23 C 320.53 769.91 315.42 769.52 311.42 770.36 C 311.57 772.25 312.05 774.09 312.95 775.78 C 327.92 775.81 342.89 775.86 357.86 775.77 C 360.71 775.62 360.75 772.40 360.28 770.27 C 357.38 769.77 354.38 769.56 351.63 768.45 C 348.40 767.10 346.64 763.87 345.06 760.95 C 342.25 755.21 339.97 749.23 337.50 743.35 C 328.55 721.63 319.47 699.97 310.60 678.23 C 308.31 678.35 305.83 677.71 303.68 678.60 M 362.42 678.44 C 360.72 679.64 361.08 681.88 360.83 683.68 C 365.20 684.23 370.73 684.50 373.19 688.82 C 375.59 693.47 375.09 698.93 375.20 704.01 C 375.16 721.01 375.22 738.02 375.18 755.03 C 374.92 759.06 374.95 763.78 371.80 766.80 C 368.91 769.94 364.32 769.74 360.43 770.30 C 360.83 772.11 361.32 773.91 361.95 775.67 C 372.96 775.98 383.98 775.73 395.00 775.81 C 406.72 775.68 418.55 776.41 430.15 774.31 C 437.66 773.08 444.99 769.85 450.40 764.40 C 460.02 755.07 463.69 741.06 463.13 727.99 C 462.76 713.77 456.80 699.47 445.95 690.08 C 437.49 682.47 426.13 678.83 414.89 678.42 C 400.27 677.95 385.63 678.30 371.01 678.18 C 368.14 678.24 365.25 677.95 362.42 678.44 M 471.15 681.73 C 473.16 685.22 478.07 683.70 481.00 685.99 C 485.67 689.02 485.37 695.19 485.62 700.10 C 485.66 718.03 485.66 735.97 485.62 753.90 C 485.30 758.17 485.80 763.20 482.55 766.53 C 479.63 769.84 474.90 769.76 470.89 770.34 C 471.07 772.45 471.44 775.61 474.14 775.77 C 488.08 775.85 502.03 775.83 515.97 775.77 C 519.07 776.12 519.08 772.38 519.16 770.24 C 515.34 769.84 511.01 769.73 508.09 766.87 C 505.33 764.00 504.95 759.78 504.81 756.01 C 504.79 747.28 504.82 738.55 504.82 729.82 C 512.51 729.79 520.21 729.92 527.90 729.48 C 534.91 728.90 542.14 726.27 546.72 720.70 C 551.41 715.16 552.33 707.40 551.28 700.44 C 549.61 689.46 539.95 680.41 529.01 679.03 C 522.38 678.06 515.67 678.20 509.00 678.19 C 497.67 678.20 486.34 678.17 475.02 678.19 C 473.07 677.88 470.88 679.70 471.15 681.73 M 597.03 678.16 C 587.32 702.78 577.98 727.55 568.18 752.14 C 565.80 757.69 563.34 763.60 558.54 767.53 C 556.11 769.58 552.83 769.84 549.83 770.32 C 550.01 771.68 549.88 773.15 550.45 774.46 C 551.25 776.21 553.37 775.67 554.92 775.83 C 563.90 775.75 572.89 775.90 581.88 775.77 C 584.56 775.65 584.65 772.47 584.87 770.46 C 581.35 769.75 577.04 769.48 575.01 766.03 C 572.65 762.69 573.90 758.42 575.01 754.87 C 576.97 749.32 579.38 743.93 581.30 738.36 C 590.41 738.35 599.53 738.37 608.64 738.35 C 611.09 744.77 613.88 751.05 616.34 757.46 C 617.43 760.42 618.35 764.35 615.90 766.90 C 613.00 769.79 608.59 769.62 604.84 770.31 C 604.90 772.44 604.96 776.12 608.04 775.77 C 621.38 775.89 634.72 775.74 648.06 775.84 C 649.49 775.72 651.06 776.05 652.41 775.41 C 654.15 774.35 653.66 772.07 654.04 770.38 C 650.05 769.53 645.41 769.69 642.26 766.74 C 638.93 763.39 637.33 758.83 635.40 754.62 C 624.85 729.17 614.29 703.71 603.78 678.23 C 601.53 678.19 599.28 678.18 597.03 678.16 Z" />
        <path fill="#bd0000" opacity="1.00" d=" M 377.45 296.61 C 385.95 296.09 394.48 296.18 403.00 296.29 C 411.05 296.45 419.25 296.66 427.06 298.86 C 435.53 301.28 441.92 308.69 444.14 317.08 C 446.69 326.55 447.08 336.74 444.43 346.23 C 442.91 351.70 439.42 356.59 434.64 359.66 C 430.86 362.30 426.22 363.07 421.85 364.18 C 412.74 366.42 403.32 366.59 394.01 367.24 C 382.91 366.79 371.70 365.44 361.19 361.69 C 352.32 357.95 343.58 351.11 342.04 341.01 C 340.58 331.06 340.58 319.97 346.25 311.23 C 350.38 305.55 356.33 301.04 363.13 299.10 C 367.78 297.70 372.63 297.10 377.45 296.61 Z" />
        <path fill="#bd0000" opacity="1.00" d=" M 373.39 417.61 C 382.56 416.83 391.83 415.86 400.99 417.25 C 410.15 418.43 419.20 420.40 428.14 422.73 C 434.73 424.26 439.13 430.20 441.76 436.07 C 445.35 443.86 444.96 452.67 444.37 461.02 C 443.48 467.96 441.35 475.19 436.27 480.26 C 431.42 485.22 424.38 486.79 417.68 487.05 C 404.15 487.62 390.56 487.87 377.03 487.12 C 370.38 486.24 363.46 487.13 357.03 484.94 C 349.66 482.28 344.96 475.11 343.13 467.76 C 340.28 456.44 340.32 443.97 345.35 433.24 C 347.63 428.23 351.20 423.42 356.47 421.29 C 361.84 419.08 367.67 418.34 373.39 417.61 Z" />
        <path fill="#bd0000" opacity="1.00" d=" M 394.32 684.64 C 403.85 684.40 414.09 684.20 422.47 689.48 C 435.77 697.71 442.45 713.78 442.44 729.01 C 442.76 741.51 438.65 754.67 429.25 763.27 C 424.15 768.13 416.86 769.88 409.98 769.68 C 405.56 769.77 400.62 768.90 397.59 765.38 C 394.65 761.98 394.47 757.26 394.36 752.99 C 394.32 730.21 394.41 707.42 394.32 684.64 Z" />
        <path fill="#bd0000" opacity="1.00" d=" M 504.81 684.62 C 510.36 684.80 516.39 683.66 521.46 686.54 C 529.24 690.64 532.12 700.62 530.57 708.83 C 529.47 715.38 524.46 721.62 517.71 722.77 C 513.45 723.51 509.11 723.39 504.82 723.40 C 504.80 710.47 504.81 697.54 504.81 684.62 Z" />
        <path fill="#bd0000" opacity="1.00" d=" M 290.89 731.17 C 294.44 722.07 297.69 712.85 301.46 703.84 C 305.05 712.98 308.88 722.01 312.45 731.16 C 305.26 731.22 298.08 731.19 290.89 731.17 Z" />
        <path fill="#bd0000" opacity="1.00" d=" M 594.54 703.80 C 598.40 712.86 601.99 722.03 605.69 731.16 C 598.51 731.22 591.34 731.19 584.18 731.17 C 587.50 722.00 591.14 712.95 594.54 703.80 Z" />
    </g>
</svg>