<?xml version="1.0" encoding="UTF-8"?>
<!DOCTYPE svg PUBLIC "-//W3C//DTD SVG 1.1//EN" "http://www.w3.org/Graphics/SVG/1.1/DTD/svg11.dtd">
<svg width="810pt" height="1038pt" viewBox="0 0 810 1038" version="1.1" xmlns="http://www.w3.org/2000/svg">
    <g id="#050505ff">
        <path fill="#050505" opacity="1.00" d=" M 54.84 0.00 L 754.12 0.00 C 761.31 2.22 768.77 3.83 775.40 7.54 C 792.00 15.72 803.74 32.00 808.29 49.73 C 807.52 50.98 807.71 52.08 808.86 53.03 C 809.15 53.67 809.72 54.97 810.00 55.62 L 810.00 982.12 C 807.79 989.05 806.34 996.30 802.78 1002.73 C 794.79 1018.37 780.20 1030.52 763.29 1035.32 C 760.24 1036.18 757.17 1036.99 754.17 1038.00 L 55.90 1038.00 C 50.17 1036.10 44.17 1034.97 38.67 1032.42 C 24.05 1025.98 12.02 1013.95 5.58 999.33 C 3.03 993.85 1.93 987.87 0.00 982.18 L 0.00 55.88 C 0.76 53.30 1.46 50.71 2.14 48.11 C 2.30 47.53 2.62 46.37 2.77 45.79 C 4.88 38.93 8.23 32.51 12.37 26.67 C 12.43 26.59 12.55 26.43 12.61 26.35 C 13.82 24.74 15.07 23.15 16.39 21.63 C 16.45 21.56 16.57 21.42 16.63 21.35 C 21.71 15.82 27.73 11.17 34.32 7.57 C 34.40 7.52 34.57 7.43 34.65 7.38 C 40.91 3.74 48.08 2.38 54.84 0.00 M 57.41 20.64 C 36.39 23.86 19.59 43.71 20.00 64.99 C 19.97 367.33 20.00 669.66 19.99 972.00 C 19.74 982.95 23.64 993.89 30.80 1002.18 C 39.15 1012.14 52.00 1018.08 64.99 1018.00 C 289.33 1018.02 513.66 1018.00 738.00 1018.01 C 744.42 1018.06 750.97 1018.20 757.19 1016.32 C 771.51 1012.41 783.36 1000.87 787.85 986.76 C 790.28 979.76 790.07 972.29 790.01 965.00 C 790.01 665.00 790.03 364.99 790.00 64.99 C 790.27 46.48 777.72 28.80 760.31 22.68 C 750.96 19.05 740.79 20.17 731.00 19.99 C 509.33 19.99 287.67 19.99 66.00 19.99 C 63.13 20.00 60.24 20.15 57.41 20.64 Z" />
        <path fill="#050505" opacity="1.00" d=" M 354.31 856.47 C 355.24 854.65 355.57 852.44 357.00 850.94 C 362.32 852.33 367.54 854.07 372.81 855.65 C 372.28 857.10 371.75 858.57 371.23 860.03 C 379.28 874.92 390.36 888.14 403.53 898.77 C 398.65 902.99 394.20 907.69 390.31 912.84 C 379.35 902.38 370.74 889.78 363.17 876.73 C 355.67 890.13 346.17 902.44 334.64 912.61 C 332.88 910.64 331.09 908.69 329.27 906.78 C 328.99 907.45 328.44 908.79 328.16 909.46 C 305.64 909.33 283.13 909.47 260.61 909.39 C 260.58 904.79 260.58 900.19 260.61 895.60 C 263.05 895.58 265.50 895.58 267.95 895.63 C 268.06 884.03 267.98 872.42 267.99 860.82 C 272.89 860.79 277.78 860.76 282.68 860.88 C 282.70 872.46 282.51 884.05 282.78 895.64 C 285.38 895.57 287.99 895.57 290.60 895.59 C 290.59 881.33 290.56 867.08 290.61 852.82 C 295.80 852.80 300.99 852.79 306.18 852.82 C 306.19 858.20 306.22 863.59 306.17 868.98 C 313.24 869.02 320.31 868.99 327.39 869.00 C 327.42 873.66 327.42 878.33 327.39 883.00 C 320.31 883.01 313.24 882.97 306.17 883.02 C 306.21 887.22 306.18 891.42 306.22 895.62 C 313.02 895.55 319.82 895.59 326.62 895.60 C 338.41 884.63 347.78 871.16 354.31 856.47 Z" />
        <path fill="#050505" opacity="1.00" d=" M 160.27 861.46 C 184.67 859.77 209.12 857.38 233.01 851.98 C 236.58 856.41 239.06 861.81 242.04 866.72 C 232.15 869.08 222.08 870.59 212.02 872.00 C 211.98 876.77 212.00 881.55 212.00 886.33 C 224.89 886.35 237.78 886.36 250.68 886.32 C 250.64 891.53 250.63 896.75 250.70 901.96 C 237.80 902.04 224.90 901.97 212.00 902.00 C 212.00 906.60 211.98 911.21 212.02 915.83 C 221.81 915.78 231.60 915.81 241.39 915.82 C 241.43 931.27 241.43 946.73 241.39 962.18 C 215.92 962.20 190.46 962.20 164.99 962.18 C 165.01 946.73 165.00 931.27 164.99 915.82 C 174.60 915.79 184.20 915.81 193.81 915.81 C 193.81 911.21 193.79 906.61 193.83 902.02 C 180.65 901.95 167.48 902.06 154.31 901.97 C 154.37 896.75 154.36 891.53 154.32 886.32 C 167.49 886.34 180.66 886.40 193.83 886.29 C 193.79 882.15 193.80 878.01 193.81 873.88 C 184.14 874.41 174.50 875.45 164.81 875.43 C 163.80 870.62 162.33 865.92 160.27 861.46 M 182.00 930.00 C 182.00 936.00 182.00 942.00 182.00 948.00 C 195.88 947.96 209.76 948.07 223.64 947.94 C 223.56 941.98 223.56 936.01 223.64 930.06 C 209.76 929.93 195.88 930.03 182.00 930.00 Z" />
        <path fill="#050505" opacity="1.00" d=" M 425.38 852.20 L 426.01 851.63 C 431.00 851.54 436.00 851.54 440.99 851.63 L 441.62 852.20 C 441.75 861.41 441.55 870.62 441.71 879.83 C 446.70 879.78 451.69 879.77 456.68 879.88 C 456.65 885.35 456.60 890.83 456.72 896.30 C 451.74 896.46 446.76 896.45 441.79 896.36 C 441.52 903.74 441.67 911.13 441.70 918.52 C 446.18 917.36 450.67 916.20 455.14 914.98 C 456.03 920.36 456.84 925.77 457.60 931.18 C 452.30 932.78 447.02 934.45 441.69 935.97 C 441.61 947.99 441.67 960.01 441.66 972.03 C 441.60 976.91 441.11 982.74 436.65 985.73 C 430.43 990.14 422.37 989.55 415.12 989.69 C 414.16 984.07 412.67 978.51 410.38 973.28 C 415.28 973.31 420.22 973.62 425.09 972.95 C 425.62 962.28 425.27 951.58 425.28 940.90 C 420.71 942.10 416.18 943.48 411.62 944.73 C 410.19 938.89 408.73 933.07 407.59 927.17 C 413.58 926.14 419.41 924.38 425.33 923.00 C 425.29 914.12 425.49 905.23 425.21 896.36 C 419.81 896.46 414.40 896.40 409.00 896.39 C 408.99 890.86 409.01 885.34 408.99 879.82 C 414.42 879.81 419.86 879.78 425.29 879.83 C 425.45 870.62 425.25 861.41 425.38 852.20 Z" />
        <path fill="#050505" opacity="1.00" d=" M 113.67 865.97 C 118.03 862.56 122.41 859.18 126.84 855.86 C 135.17 863.05 143.38 870.58 149.75 879.61 C 145.02 883.24 140.52 887.16 135.83 890.84 C 129.56 881.61 121.62 873.73 113.67 865.97 Z" />
        <path fill="#050505" opacity="1.00" d=" M 465.04 856.30 C 489.68 856.37 514.32 856.37 538.97 856.30 C 539.05 873.60 538.96 890.89 539.01 908.18 C 514.34 908.20 489.66 908.20 464.99 908.18 C 465.04 890.89 464.95 873.60 465.04 856.30 M 481.67 868.68 C 481.66 871.11 481.66 873.55 481.66 876.00 C 495.05 875.98 508.44 876.03 521.83 875.98 C 521.80 873.55 521.79 871.12 521.82 868.71 C 508.44 868.60 495.05 868.65 481.67 868.68 M 481.66 888.00 C 481.66 890.43 481.66 892.87 481.67 895.32 C 495.05 895.34 508.44 895.40 521.82 895.29 C 521.79 892.86 521.80 890.44 521.83 888.03 C 508.44 887.97 495.05 888.01 481.66 888.00 Z" />
        <path fill="#050505" opacity="1.00" d=" M 574.30 861.03 C 609.60 860.95 644.89 861.03 680.18 860.99 C 680.20 866.99 680.20 873.00 680.18 879.01 C 644.89 878.96 609.60 879.05 574.30 878.96 C 574.37 872.98 574.37 867.01 574.30 861.03 Z" />
        <path fill="#050505" opacity="1.00" d=" M 348.25 901.76 C 352.73 899.42 357.31 897.31 361.89 895.20 C 366.59 900.77 371.01 906.60 374.79 912.84 C 370.14 915.21 365.62 917.83 360.95 920.16 L 360.28 919.89 C 356.69 913.58 352.68 907.52 348.25 901.76 Z" />
        <path fill="#050505" opacity="1.00" d=" M 560.61 897.00 C 605.13 897.00 649.66 897.01 694.18 896.99 C 694.20 903.05 694.20 909.11 694.18 915.18 C 675.36 915.20 656.53 915.21 637.71 915.17 C 637.59 932.12 637.68 949.06 637.66 966.01 C 637.54 971.34 637.95 976.94 635.91 981.99 C 634.04 986.54 629.20 988.73 624.73 989.88 C 616.14 992.00 607.23 991.60 598.46 991.67 C 597.25 985.09 594.93 978.78 592.25 972.67 C 600.12 972.89 608.01 973.23 615.87 972.86 C 617.87 972.81 618.08 970.59 617.99 969.07 C 618.00 951.10 618.02 933.14 617.98 915.17 C 598.86 915.22 579.73 915.19 560.61 915.18 C 560.57 909.12 560.58 903.06 560.61 897.00 Z" />
        <path fill="#050505" opacity="1.00" d=" M 111.61 905.00 C 123.31 905.02 135.00 904.95 146.69 905.03 C 146.59 922.03 146.71 939.03 146.63 956.04 C 146.87 957.34 146.05 959.52 147.71 960.14 C 153.03 962.95 158.15 966.23 163.81 968.37 C 171.56 971.25 179.88 972.02 188.07 972.54 C 209.51 973.39 230.97 971.80 252.27 969.56 C 250.26 975.22 248.37 980.98 247.70 986.98 C 232.84 988.04 217.94 988.32 203.05 988.66 C 187.41 988.63 170.98 988.53 156.70 981.29 C 152.25 979.26 148.28 976.31 143.78 974.40 C 140.07 972.67 136.36 975.29 133.68 977.68 C 129.19 981.68 125.40 986.37 121.69 991.08 C 117.87 986.03 114.28 980.83 110.48 975.78 C 116.04 970.07 122.57 965.32 129.60 961.58 C 129.61 948.31 129.53 935.05 129.64 921.79 C 123.66 921.55 117.67 921.63 111.69 921.72 C 111.51 916.14 111.59 910.57 111.61 905.00 Z" />
        <path fill="#050505" opacity="1.00" d=" M 290.43 911.25 C 294.89 911.70 299.35 912.01 303.80 912.44 C 303.25 921.04 302.16 929.62 300.49 938.08 C 300.21 939.55 301.73 940.49 302.35 941.68 C 305.86 946.29 308.99 951.18 311.94 956.18 C 312.07 942.11 311.97 928.05 311.99 913.99 C 316.66 914.00 321.33 914.00 326.01 913.99 C 325.97 939.56 326.05 965.13 325.97 990.70 C 321.32 990.63 316.68 990.63 312.03 990.70 C 311.99 988.25 311.99 985.81 312.00 983.39 C 296.00 984.39 280.01 985.67 264.00 986.44 C 263.99 962.56 264.02 938.69 263.99 914.82 C 268.79 914.80 273.59 914.79 278.39 914.82 C 278.47 929.31 278.33 943.80 278.46 958.29 C 281.75 954.22 283.70 949.28 285.27 944.34 C 288.62 933.63 289.52 922.37 290.43 911.25 M 286.83 970.32 C 284.18 967.41 281.44 964.56 278.40 962.05 C 278.41 965.25 278.42 968.46 278.39 971.67 C 289.59 971.09 300.81 970.79 312.00 969.95 C 311.99 966.53 312.01 963.13 311.98 959.73 C 309.03 962.35 306.10 965.01 303.21 967.70 C 301.01 963.22 298.58 958.86 295.90 954.67 C 293.47 960.20 290.62 965.58 286.83 970.32 Z" />
        <path fill="#050505" opacity="1.00" d=" M 457.82 914.82 C 487.34 914.79 516.86 914.80 546.38 914.82 C 546.43 919.67 546.42 924.53 546.39 929.39 C 534.28 929.40 522.17 929.47 510.06 929.36 C 509.98 933.78 509.98 938.21 510.06 942.64 C 519.61 942.58 529.16 942.49 538.72 942.70 C 538.55 947.06 538.77 951.43 538.62 955.80 L 538.00 956.37 C 528.68 956.45 519.37 956.43 510.06 956.36 C 509.96 962.16 509.99 967.96 510.03 973.76 C 523.52 974.25 537.03 973.89 550.52 974.00 C 548.20 978.97 546.64 984.27 545.76 989.69 C 533.52 989.42 521.25 990.11 509.03 989.25 C 498.94 988.43 488.66 984.95 481.51 977.51 C 478.89 974.77 476.79 971.59 474.69 968.45 C 470.74 976.94 465.85 985.13 458.96 991.59 C 454.84 987.67 450.47 984.03 445.79 980.81 C 459.58 969.37 464.73 951.10 466.60 933.96 C 472.08 934.22 477.52 935.07 482.97 935.77 C 482.30 940.82 481.26 945.81 480.27 950.80 C 482.45 957.76 486.82 964.23 492.94 968.33 C 493.04 955.34 493.03 942.35 492.94 929.36 C 481.24 929.46 469.54 929.40 457.83 929.39 C 457.79 924.53 457.80 919.67 457.82 914.82 Z" />
        <path fill="#050505" opacity="1.00" d=" M 332.69 921.28 C 348.46 921.43 364.22 921.29 379.99 921.36 C 382.04 921.42 384.02 920.83 386.00 920.38 C 390.03 923.04 394.09 925.65 398.16 928.24 C 391.06 942.82 381.59 956.07 371.78 968.93 C 375.84 972.18 379.81 975.53 383.70 978.98 C 380.36 983.67 376.92 988.30 373.65 993.04 C 360.70 980.40 346.28 969.44 332.33 957.97 C 335.47 953.94 338.47 949.80 341.77 945.90 C 347.31 950.08 352.80 954.32 358.26 958.60 C 363.80 951.76 368.96 944.59 373.47 937.03 C 359.85 936.96 346.23 937.02 332.61 937.00 C 332.59 931.76 332.52 926.52 332.69 921.28 Z" />
        <path fill="#050505" opacity="1.00" d=" M 652.81 932.35 C 658.47 930.07 664.05 927.60 669.71 925.32 C 679.44 939.36 688.87 953.93 694.62 970.12 C 688.46 972.81 682.44 975.87 676.13 978.17 C 670.42 961.96 662.06 946.81 652.81 932.35 Z" />
        <path fill="#050505" opacity="1.00" d=" M 582.04 925.92 C 588.35 927.63 594.70 929.22 601.02 930.93 C 594.49 948.17 584.84 964.24 572.64 978.06 C 567.30 974.09 561.72 970.43 555.88 967.25 C 567.80 955.87 576.47 941.36 582.04 925.92 Z" />
    </g>
    <g id="#67c13aff">
        <path fill="#67c13a" opacity="1.00" d=" M 34.32 7.57 C 34.40 7.52 34.57 7.43 34.65 7.38 C 34.57 7.43 34.40 7.52 34.32 7.57 Z" />
        <path fill="#67c13a" opacity="1.00" d=" M 12.37 26.67 C 12.43 26.59 12.55 26.43 12.61 26.35 C 12.55 26.43 12.43 26.59 12.37 26.67 Z" />
        <path fill="#67c13a" opacity="1.00" d=" M 2.14 48.11 C 2.30 47.53 2.62 46.37 2.77 45.79 C 2.62 46.37 2.30 47.53 2.14 48.11 Z" />
        <path fill="#67c13a" opacity="1.00" d=" M 808.29 49.73 C 809.26 50.69 809.45 51.79 808.86 53.03 C 807.71 52.08 807.52 50.98 808.29 49.73 Z" />
        <path fill="#67c13a" opacity="1.00" d=" M 104.77 87.77 C 110.38 86.25 116.18 85.39 121.97 84.99 C 308.64 85.01 495.32 85.00 682.00 84.99 C 690.10 84.67 698.21 85.86 706.02 87.99 C 720.83 92.73 733.44 103.97 739.89 118.11 C 743.89 127.84 745.33 138.53 745.00 149.00 C 744.99 375.33 745.02 601.66 744.99 827.99 C 518.33 828.00 291.67 828.01 65.01 827.98 C 64.98 599.31 65.02 370.64 64.99 141.97 C 65.62 133.60 66.98 125.12 70.41 117.39 C 77.29 103.48 89.77 92.15 104.77 87.77 M 240.35 253.16 C 222.99 256.16 207.59 268.15 199.97 283.98 C 193.43 297.26 191.52 312.32 191.76 326.99 C 192.16 338.21 193.53 349.62 197.96 360.04 C 201.67 368.95 207.70 376.72 214.70 383.30 C 218.12 386.61 222.02 389.38 225.39 392.76 C 215.98 400.15 206.69 408.29 201.09 419.07 C 184.07 450.60 189.54 493.32 215.75 518.25 C 223.95 525.91 234.60 530.52 245.53 532.65 C 254.22 534.51 263.16 534.35 271.99 535.01 C 297.31 535.73 322.80 536.57 347.98 533.14 C 361.33 531.25 375.25 526.89 384.41 516.44 C 398.29 500.42 406.36 479.26 405.77 458.00 C 406.18 441.88 402.29 425.34 392.98 412.01 C 387.31 404.24 379.57 398.36 371.94 392.66 C 376.60 389.46 381.54 386.61 385.65 382.68 C 397.48 372.06 404.30 356.69 406.10 341.04 C 407.54 325.21 406.89 308.86 401.21 293.85 C 396.33 280.22 388.24 267.06 375.62 259.38 C 367.10 254.03 357.05 251.73 347.14 250.80 C 331.12 249.48 315.04 249.67 298.99 249.52 C 279.41 249.55 259.66 249.48 240.35 253.16 M 521.98 323.97 C 522.00 340.31 522.02 356.65 521.99 372.99 C 506.65 373.02 491.30 372.99 475.97 372.98 C 472.88 372.49 471.01 375.33 469.25 377.36 C 468.64 384.55 469.15 391.82 468.98 399.04 C 468.61 402.18 471.59 404.79 474.15 405.90 C 490.09 406.17 506.04 405.90 521.99 406.01 C 522.04 422.67 521.94 439.32 522.02 455.98 C 521.78 458.19 523.90 459.49 525.34 460.78 C 533.55 461.33 541.81 460.85 550.04 461.02 C 553.26 461.45 556.45 458.26 556.02 455.04 C 556.00 438.70 555.99 422.36 556.01 406.02 C 571.35 405.98 586.69 406.01 602.04 406.02 C 605.26 406.45 608.45 403.26 608.02 400.03 C 608.01 393.01 608.01 385.99 608.02 378.96 C 608.45 375.73 605.26 372.55 602.04 372.98 C 586.70 372.99 571.35 373.02 556.01 372.99 C 555.95 356.33 556.06 339.67 555.98 323.01 C 556.21 320.80 554.10 319.50 552.66 318.22 C 544.45 317.67 536.19 318.15 527.96 317.98 C 524.73 317.55 521.54 320.74 521.98 323.97 M 187.87 685.86 C 176.06 694.38 169.85 708.82 168.73 723.03 C 167.35 737.94 171.17 754.14 182.13 764.87 C 191.64 774.60 205.75 778.22 219.02 778.01 C 229.02 777.95 239.62 775.10 246.78 767.78 C 252.84 761.57 255.07 752.78 255.86 744.38 C 254.00 744.26 252.14 744.10 250.29 743.92 C 248.99 750.94 247.05 758.52 241.53 763.48 C 234.10 769.66 223.54 770.72 214.36 768.69 C 204.38 766.54 196.48 758.48 192.92 749.13 C 188.70 738.19 188.31 726.02 190.29 714.56 C 192.45 703.36 198.12 692.26 207.76 685.76 C 216.29 680.42 228.52 680.98 235.90 688.11 C 243.24 694.29 245.94 703.79 249.13 712.45 C 251.08 712.57 254.10 712.56 254.20 709.92 C 254.19 699.28 253.45 688.62 253.63 677.97 C 252.09 677.89 250.56 677.76 249.04 677.55 C 248.00 678.87 247.01 680.21 245.99 681.55 C 240.15 680.04 234.56 677.63 228.59 676.63 C 214.52 674.35 199.54 677.65 187.87 685.86 M 304.30 678.28 C 303.25 679.03 303.01 680.41 302.47 681.52 C 295.46 699.80 288.33 718.03 281.25 736.28 C 278.41 743.42 275.87 750.69 272.54 757.62 C 270.62 761.44 268.38 765.31 264.90 767.91 C 262.54 769.66 259.52 769.87 256.72 770.29 C 256.88 771.91 256.29 773.93 257.81 775.10 C 258.84 776.19 260.60 775.56 261.94 775.81 C 270.91 775.66 279.88 775.93 288.83 775.69 C 291.45 775.45 291.38 772.29 291.23 770.31 C 287.88 769.72 283.79 769.39 281.80 766.21 C 279.47 762.78 280.64 758.43 281.80 754.81 C 283.79 749.25 286.01 743.78 288.18 738.29 C 297.30 738.35 306.42 738.20 315.54 738.38 C 317.95 744.87 320.76 751.20 323.24 757.67 C 324.30 760.56 325.13 764.30 322.80 766.82 C 320.01 769.84 315.49 769.60 311.76 770.27 C 311.40 772.57 311.91 776.16 315.03 775.75 C 329.30 775.76 343.57 775.84 357.84 775.71 C 360.68 775.60 360.49 772.29 360.25 770.26 C 355.80 769.65 350.50 769.36 347.69 765.30 C 343.47 759.32 341.33 752.21 338.38 745.59 C 329.12 723.17 319.80 700.78 310.57 678.35 C 308.48 678.25 306.39 678.10 304.30 678.28 M 360.92 683.70 C 364.89 684.22 369.57 684.31 372.40 687.62 C 375.25 691.05 374.99 695.82 375.22 700.03 C 375.22 718.34 375.26 736.65 375.20 754.97 C 374.95 759.03 375.07 763.81 371.82 766.82 C 368.99 769.98 364.45 769.81 360.59 770.23 C 360.59 772.18 361.20 774.02 362.18 775.71 C 379.44 775.83 396.71 775.79 413.97 775.73 C 422.60 775.38 431.52 774.99 439.58 771.57 C 448.80 767.72 455.98 759.73 459.48 750.45 C 464.64 737.22 464.37 722.00 459.11 708.85 C 454.02 695.97 443.26 685.18 429.92 681.06 C 421.59 678.22 412.69 678.40 404.01 678.22 C 390.68 678.27 377.34 678.15 364.01 678.27 C 360.98 677.91 360.90 681.57 360.92 683.70 M 471.22 681.71 C 473.25 685.12 478.08 683.77 481.02 685.96 C 485.65 688.92 485.45 695.07 485.67 699.93 C 485.71 717.98 485.72 736.02 485.67 754.07 C 485.40 758.30 485.75 763.24 482.59 766.55 C 479.68 769.82 475.00 769.78 471.01 770.33 C 471.08 772.44 471.47 775.55 474.16 775.70 C 488.09 775.84 502.05 775.78 515.99 775.73 C 519.04 776.08 519.07 772.35 519.13 770.24 C 515.33 769.83 510.96 769.84 508.09 766.91 C 505.02 763.79 504.89 759.09 504.76 754.99 C 504.79 746.60 504.70 738.22 504.84 729.84 C 512.75 729.64 520.67 729.98 528.56 729.40 C 535.57 728.69 542.75 725.85 547.14 720.12 C 551.32 714.76 552.14 707.56 551.30 701.00 C 549.96 690.08 540.61 680.95 529.86 679.20 C 524.62 678.37 519.30 678.30 514.01 678.22 C 501.02 678.25 488.02 678.19 475.03 678.24 C 473.11 677.98 470.93 679.69 471.22 681.71 M 597.12 678.20 C 587.29 702.77 578.05 727.58 568.22 752.15 C 565.83 757.71 563.37 763.64 558.57 767.57 C 556.15 769.59 552.89 769.83 549.91 770.30 C 549.90 772.41 549.98 776.08 553.01 775.73 C 562.62 775.79 572.24 775.86 581.85 775.70 C 584.55 775.61 584.60 772.47 584.86 770.49 C 581.36 769.73 576.98 769.53 574.97 766.06 C 572.53 762.45 573.98 757.92 575.20 754.15 C 577.19 748.86 579.37 743.64 581.29 738.33 C 590.41 738.28 599.54 738.28 608.66 738.32 C 611.10 744.51 613.70 750.63 616.15 756.82 C 617.22 759.80 618.37 763.50 616.40 766.37 C 613.68 769.79 608.86 769.61 604.94 770.29 C 604.89 772.41 604.97 776.08 608.01 775.73 C 621.35 775.86 634.70 775.69 648.04 775.81 C 649.46 775.70 651.02 775.97 652.36 775.34 C 654.12 774.32 653.63 772.04 653.94 770.36 C 649.77 769.55 644.81 769.66 641.73 766.27 C 638.77 762.92 637.18 758.66 635.37 754.65 C 624.79 729.20 614.28 703.71 603.72 678.25 C 601.51 678.24 599.31 678.23 597.12 678.20 Z" />
        <path fill="#67c13a" opacity="1.00" d=" M 285.45 296.62 C 295.53 296.11 305.65 296.21 315.74 296.62 C 324.91 297.37 334.95 297.55 342.53 303.50 C 351.09 310.14 353.87 321.62 353.86 331.98 C 354.19 340.62 352.76 350.08 346.58 356.59 C 342.36 361.32 336.18 363.33 330.40 365.41 C 326.08 366.93 321.48 367.34 316.93 367.43 C 304.32 368.23 291.67 367.85 279.06 367.56 C 270.03 366.20 260.25 364.18 253.65 357.34 C 245.88 349.44 244.19 337.53 245.13 326.92 C 245.66 318.81 249.16 310.71 255.75 305.74 C 263.93 298.73 275.09 297.31 285.45 296.62 Z" />
        <path fill="#67c13a" opacity="1.00" d=" M 278.48 417.65 C 288.63 416.64 298.85 416.41 309.02 417.31 C 320.69 417.60 334.71 417.28 342.99 427.00 C 349.53 433.56 352.53 442.89 352.57 452.02 C 352.54 460.54 351.59 469.52 346.89 476.87 C 343.93 481.64 338.92 484.85 333.61 486.44 C 326.87 488.20 319.85 487.64 312.97 487.92 C 306.66 488.26 300.32 488.52 294.00 488.23 C 284.14 487.63 274.20 487.84 264.40 486.39 C 255.94 484.92 249.58 477.66 247.29 469.66 C 244.26 459.02 243.78 447.30 247.77 436.83 C 250.01 430.72 253.75 424.58 259.89 421.79 C 265.76 419.24 272.18 418.42 278.48 417.65 Z" />
        <path fill="#67c13a" opacity="1.00" d=" M 394.25 684.79 C 404.28 684.07 415.20 684.35 423.80 690.27 C 436.27 698.78 442.47 714.25 442.47 729.01 C 442.78 741.30 438.86 754.17 429.81 762.82 C 424.92 767.73 417.83 769.78 411.03 769.75 C 406.50 769.87 401.42 769.32 398.06 765.93 C 394.70 762.57 394.38 757.53 394.30 753.06 C 394.27 730.30 394.37 707.55 394.25 684.79 Z" />
        <path fill="#67c13a" opacity="1.00" d=" M 504.84 684.68 C 511.05 684.56 518.03 683.61 523.32 687.65 C 533.59 695.35 533.85 713.63 522.85 720.84 C 517.47 724.06 510.85 723.34 504.84 723.34 C 504.72 710.45 504.73 697.57 504.84 684.68 Z" />
        <path fill="#67c13a" opacity="1.00" d=" M 290.94 731.10 C 294.44 722.05 297.46 712.79 301.54 703.98 C 305.09 713.04 309.05 721.94 312.31 731.11 C 305.19 731.30 298.06 731.31 290.94 731.10 Z" />
        <path fill="#67c13a" opacity="1.00" d=" M 594.46 703.92 C 598.55 712.80 602.11 721.95 605.52 731.11 C 598.39 731.32 591.25 731.28 584.12 731.13 C 587.47 722.03 591.03 713.00 594.46 703.92 Z" />
    </g>
    <g id="#fefffeff">
        <path fill="#fefffe" opacity="1.00" d=" M 57.41 20.64 C 60.24 20.15 63.13 20.00 66.00 19.99 C 287.67 19.99 509.33 19.99 731.00 19.99 C 740.79 20.17 750.96 19.05 760.31 22.68 C 777.72 28.80 790.27 46.48 790.00 64.99 C 790.03 364.99 790.01 665.00 790.01 965.00 C 790.07 972.29 790.28 979.76 787.85 986.76 C 783.36 1000.87 771.51 1012.41 757.19 1016.32 C 750.97 1018.20 744.42 1018.06 738.00 1018.01 C 513.66 1018.00 289.33 1018.02 64.99 1018.00 C 52.00 1018.08 39.15 1012.14 30.80 1002.18 C 23.64 993.89 19.74 982.95 19.99 972.00 C 20.00 669.66 19.97 367.33 20.00 64.99 C 19.59 43.71 36.39 23.86 57.41 20.64 M 104.77 87.77 C 89.77 92.15 77.29 103.48 70.41 117.39 C 66.98 125.12 65.62 133.60 64.99 141.97 C 65.02 370.64 64.98 599.31 65.01 827.98 C 291.67 828.01 518.33 828.00 744.99 827.99 C 745.02 601.66 744.99 375.33 745.00 149.00 C 745.33 138.53 743.89 127.84 739.89 118.11 C 733.44 103.97 720.83 92.73 706.02 87.99 C 698.21 85.86 690.10 84.67 682.00 84.99 C 495.32 85.00 308.64 85.01 121.97 84.99 C 116.18 85.39 110.38 86.25 104.77 87.77 M 354.31 856.47 C 347.78 871.16 338.41 884.63 326.62 895.60 C 319.82 895.59 313.02 895.55 306.22 895.62 C 306.18 891.42 306.21 887.22 306.17 883.02 C 313.24 882.97 320.31 883.01 327.39 883.00 C 327.42 878.33 327.42 873.66 327.39 869.00 C 320.31 868.99 313.24 869.02 306.17 868.98 C 306.22 863.59 306.19 858.20 306.18 852.82 C 300.99 852.79 295.80 852.80 290.61 852.82 C 290.56 867.08 290.59 881.33 290.60 895.59 C 287.99 895.57 285.38 895.57 282.78 895.64 C 282.51 884.05 282.70 872.46 282.68 860.88 C 277.78 860.76 272.89 860.79 267.99 860.82 C 267.98 872.42 268.06 884.03 267.95 895.63 C 265.50 895.58 263.05 895.58 260.61 895.60 C 260.58 900.19 260.58 904.79 260.61 909.39 C 283.13 909.47 305.64 909.33 328.16 909.46 C 328.44 908.79 328.99 907.45 329.27 906.78 C 331.09 908.69 332.88 910.64 334.64 912.61 C 346.17 902.44 355.67 890.13 363.17 876.73 C 370.74 889.78 379.35 902.38 390.31 912.84 C 394.20 907.69 398.65 902.99 403.53 898.77 C 390.36 888.14 379.28 874.92 371.23 860.03 C 371.75 858.57 372.28 857.10 372.81 855.65 C 367.54 854.07 362.32 852.33 357.00 850.94 C 355.57 852.44 355.24 854.65 354.31 856.47 M 160.27 861.46 C 162.33 865.92 163.80 870.62 164.81 875.43 C 174.50 875.45 184.14 874.41 193.81 873.88 C 193.80 878.01 193.79 882.15 193.83 886.29 C 180.66 886.40 167.49 886.34 154.32 886.32 C 154.36 891.53 154.37 896.75 154.31 901.97 C 167.48 902.06 180.65 901.95 193.83 902.02 C 193.79 906.61 193.81 911.21 193.81 915.81 C 184.20 915.81 174.60 915.79 164.99 915.82 C 165.00 931.27 165.01 946.73 164.99 962.18 C 190.46 962.20 215.92 962.20 241.39 962.18 C 241.43 946.73 241.43 931.27 241.39 915.82 C 231.60 915.81 221.81 915.78 212.02 915.83 C 211.98 911.21 212.00 906.60 212.00 902.00 C 224.90 901.97 237.80 902.04 250.70 901.96 C 250.63 896.75 250.64 891.53 250.68 886.32 C 237.78 886.36 224.89 886.35 212.00 886.33 C 212.00 881.55 211.98 876.77 212.02 872.00 C 222.08 870.59 232.15 869.08 242.04 866.72 C 239.06 861.81 236.58 856.41 233.01 851.98 C 209.12 857.38 184.67 859.77 160.27 861.46 M 425.38 852.20 C 425.25 861.41 425.45 870.62 425.29 879.83 C 419.86 879.78 414.42 879.81 408.99 879.82 C 409.01 885.34 408.99 890.86 409.00 896.39 C 414.40 896.40 419.81 896.46 425.21 896.36 C 425.49 905.23 425.29 914.12 425.33 923.00 C 419.41 924.38 413.58 926.14 407.59 927.17 C 408.73 933.07 410.19 938.89 411.62 944.73 C 416.18 943.48 420.71 942.10 425.28 940.90 C 425.27 951.58 425.62 962.28 425.09 972.95 C 420.22 973.62 415.28 973.31 410.38 973.28 C 412.67 978.51 414.16 984.07 415.12 989.69 C 422.37 989.55 430.43 990.14 436.65 985.73 C 441.11 982.74 441.60 976.91 441.66 972.03 C 441.67 960.01 441.61 947.99 441.69 935.97 C 447.02 934.45 452.30 932.78 457.60 931.18 C 456.84 925.77 456.03 920.36 455.14 914.98 C 450.67 916.20 446.18 917.36 441.70 918.52 C 441.67 911.13 441.52 903.74 441.79 896.36 C 446.76 896.45 451.74 896.46 456.72 896.30 C 456.60 890.83 456.65 885.35 456.68 879.88 C 451.69 879.77 446.70 879.78 441.71 879.83 C 441.55 870.62 441.75 861.41 441.62 852.20 L 440.99 851.63 C 436.00 851.54 431.00 851.54 426.01 851.63 L 425.38 852.20 M 113.67 865.97 C 121.62 873.73 129.56 881.61 135.83 890.84 C 140.52 887.16 145.02 883.24 149.75 879.61 C 143.38 870.58 135.17 863.05 126.84 855.86 C 122.41 859.18 118.03 862.56 113.67 865.97 M 465.04 856.30 C 464.95 873.60 465.04 890.89 464.99 908.18 C 489.66 908.20 514.34 908.20 539.01 908.18 C 538.96 890.89 539.05 873.60 538.97 856.30 C 514.32 856.37 489.68 856.37 465.04 856.30 M 574.30 861.03 C 574.37 867.01 574.37 872.98 574.30 878.96 C 609.60 879.05 644.89 878.96 680.18 879.01 C 680.20 873.00 680.20 866.99 680.18 860.99 C 644.89 861.03 609.60 860.95 574.30 861.03 M 348.25 901.76 C 352.68 907.52 356.69 913.58 360.28 919.89 L 360.95 920.16 C 365.62 917.83 370.14 915.21 374.79 912.84 C 371.01 906.60 366.59 900.77 361.89 895.20 C 357.31 897.31 352.73 899.42 348.25 901.76 M 560.61 897.00 C 560.58 903.06 560.57 909.12 560.61 915.18 C 579.73 915.19 598.86 915.22 617.98 915.17 C 618.02 933.14 618.00 951.10 617.99 969.07 C 618.08 970.59 617.87 972.81 615.87 972.86 C 608.01 973.23 600.12 972.89 592.25 972.67 C 594.93 978.78 597.25 985.09 598.46 991.67 C 607.23 991.60 616.14 992.00 624.73 989.88 C 629.20 988.73 634.04 986.54 635.91 981.99 C 637.95 976.94 637.54 971.34 637.66 966.01 C 637.68 949.06 637.59 932.12 637.71 915.17 C 656.53 915.21 675.36 915.20 694.18 915.18 C 694.20 909.11 694.20 903.05 694.18 896.99 C 649.66 897.01 605.13 897.00 560.61 897.00 M 111.61 905.00 C 111.59 910.57 111.51 916.14 111.69 921.72 C 117.67 921.63 123.66 921.55 129.64 921.79 C 129.53 935.05 129.61 948.31 129.60 961.58 C 122.57 965.32 116.04 970.07 110.48 975.78 C 114.28 980.83 117.87 986.03 121.69 991.08 C 125.40 986.37 129.19 981.68 133.68 977.68 C 136.36 975.29 140.07 972.67 143.78 974.40 C 148.28 976.31 152.25 979.26 156.70 981.29 C 170.98 988.53 187.41 988.63 203.05 988.66 C 217.94 988.32 232.84 988.04 247.70 986.98 C 248.37 980.98 250.26 975.22 252.27 969.56 C 230.97 971.80 209.51 973.39 188.07 972.54 C 179.88 972.02 171.56 971.25 163.81 968.37 C 158.15 966.23 153.03 962.95 147.71 960.14 C 146.05 959.52 146.87 957.34 146.63 956.04 C 146.71 939.03 146.59 922.03 146.69 905.03 C 135.00 904.95 123.31 905.02 111.61 905.00 M 290.43 911.25 C 289.52 922.37 288.62 933.63 285.27 944.34 C 283.70 949.28 281.75 954.22 278.46 958.29 C 278.33 943.80 278.47 929.31 278.39 914.82 C 273.59 914.79 268.79 914.80 263.99 914.82 C 264.02 938.69 263.99 962.56 264.00 986.44 C 280.01 985.67 296.00 984.39 312.00 983.39 C 311.99 985.81 311.99 988.25 312.03 990.70 C 316.68 990.63 321.32 990.63 325.97 990.70 C 326.05 965.13 325.97 939.56 326.01 913.99 C 321.33 914.00 316.66 914.00 311.99 913.99 C 311.97 928.05 312.07 942.11 311.94 956.18 C 308.99 951.18 305.86 946.29 302.35 941.68 C 301.73 940.49 300.21 939.55 300.49 938.08 C 302.16 929.62 303.25 921.04 303.80 912.44 C 299.35 912.01 294.89 911.70 290.43 911.25 M 457.82 914.82 C 457.80 919.67 457.79 924.53 457.83 929.39 C 469.54 929.40 481.24 929.46 492.94 929.36 C 493.03 942.35 493.04 955.34 492.94 968.33 C 486.82 964.23 482.45 957.76 480.27 950.80 C 481.26 945.81 482.30 940.82 482.97 935.77 C 477.52 935.07 472.08 934.22 466.60 933.96 C 464.73 951.10 459.58 969.37 445.79 980.81 C 450.47 984.03 454.84 987.67 458.96 991.59 C 465.85 985.13 470.74 976.94 474.69 968.45 C 476.79 971.59 478.89 974.77 481.51 977.51 C 488.66 984.95 498.94 988.43 509.03 989.25 C 521.25 990.11 533.52 989.42 545.76 989.69 C 546.64 984.27 548.20 978.97 550.52 974.00 C 537.03 973.89 523.52 974.25 510.03 973.76 C 509.99 967.96 509.96 962.16 510.06 956.36 C 519.37 956.43 528.68 956.45 538.00 956.37 L 538.62 955.80 C 538.77 951.43 538.55 947.06 538.72 942.70 C 529.16 942.49 519.61 942.58 510.06 942.64 C 509.98 938.21 509.98 933.78 510.06 929.36 C 522.17 929.47 534.28 929.40 546.39 929.39 C 546.42 924.53 546.43 919.67 546.38 914.82 C 516.86 914.80 487.34 914.79 457.82 914.82 M 332.69 921.28 C 332.52 926.52 332.59 931.76 332.61 937.00 C 346.23 937.02 359.85 936.96 373.47 937.03 C 368.96 944.59 363.80 951.76 358.26 958.60 C 352.80 954.32 347.31 950.08 341.77 945.90 C 338.47 949.80 335.47 953.94 332.33 957.97 C 346.28 969.44 360.70 980.40 373.65 993.04 C 376.92 988.30 380.36 983.67 383.70 978.98 C 379.81 975.53 375.84 972.18 371.78 968.93 C 381.59 956.07 391.06 942.82 398.16 928.24 C 394.09 925.65 390.03 923.04 386.00 920.38 C 384.02 920.83 382.04 921.42 379.99 921.36 C 364.22 921.29 348.46 921.43 332.69 921.28 M 652.81 932.35 C 662.06 946.81 670.42 961.96 676.13 978.17 C 682.44 975.87 688.46 972.81 694.62 970.12 C 688.87 953.93 679.44 939.36 669.71 925.32 C 664.05 927.60 658.47 930.07 652.81 932.35 M 582.04 925.92 C 576.47 941.36 567.80 955.87 555.88 967.25 C 561.72 970.43 567.30 974.09 572.64 978.06 C 584.84 964.24 594.49 948.17 601.02 930.93 C 594.70 929.22 588.35 927.63 582.04 925.92 Z" />
        <path fill="#fefffe" opacity="1.00" d=" M 16.39 21.63 C 16.45 21.56 16.57 21.42 16.63 21.35 C 16.57 21.42 16.45 21.56 16.39 21.63 Z" />
        <path fill="#fefffe" opacity="1.00" d=" M 240.35 253.16 C 259.66 249.48 279.41 249.55 298.99 249.52 C 315.04 249.67 331.12 249.48 347.14 250.80 C 357.05 251.73 367.10 254.03 375.62 259.38 C 388.24 267.06 396.33 280.22 401.21 293.85 C 406.89 308.86 407.54 325.21 406.10 341.04 C 404.30 356.69 397.48 372.06 385.65 382.68 C 381.54 386.61 376.60 389.46 371.94 392.66 C 379.57 398.36 387.31 404.24 392.98 412.01 C 402.29 425.34 406.18 441.88 405.77 458.00 C 406.36 479.26 398.29 500.42 384.41 516.44 C 375.25 526.89 361.33 531.25 347.98 533.14 C 322.80 536.57 297.31 535.73 271.99 535.01 C 263.16 534.35 254.22 534.51 245.53 532.65 C 234.60 530.52 223.95 525.91 215.75 518.25 C 189.54 493.32 184.07 450.60 201.09 419.07 C 206.69 408.29 215.98 400.15 225.39 392.76 C 222.02 389.38 218.12 386.61 214.70 383.30 C 207.70 376.72 201.67 368.95 197.96 360.04 C 193.53 349.62 192.16 338.21 191.76 326.99 C 191.52 312.32 193.43 297.26 199.97 283.98 C 207.59 268.15 222.99 256.16 240.35 253.16 M 285.45 296.62 C 275.09 297.31 263.93 298.73 255.75 305.74 C 249.16 310.71 245.66 318.81 245.13 326.92 C 244.19 337.53 245.88 349.44 253.65 357.34 C 260.25 364.18 270.03 366.20 279.06 367.56 C 291.67 367.85 304.32 368.23 316.93 367.43 C 321.48 367.34 326.08 366.93 330.40 365.41 C 336.18 363.33 342.36 361.32 346.58 356.59 C 352.76 350.08 354.19 340.62 353.86 331.98 C 353.87 321.62 351.09 310.14 342.53 303.50 C 334.95 297.55 324.91 297.37 315.74 296.62 C 305.65 296.21 295.53 296.11 285.45 296.62 M 278.48 417.65 C 272.18 418.42 265.76 419.24 259.89 421.79 C 253.75 424.58 250.01 430.72 247.77 436.83 C 243.78 447.30 244.26 459.02 247.29 469.66 C 249.58 477.66 255.94 484.92 264.40 486.39 C 274.20 487.84 284.14 487.63 294.00 488.23 C 300.32 488.52 306.66 488.26 312.97 487.92 C 319.85 487.64 326.87 488.20 333.61 486.44 C 338.92 484.85 343.93 481.64 346.89 476.87 C 351.59 469.52 352.54 460.54 352.57 452.02 C 352.53 442.89 349.53 433.56 342.99 427.00 C 334.71 417.28 320.69 417.60 309.02 417.31 C 298.85 416.41 288.63 416.64 278.48 417.65 Z" />
        <path fill="#fefffe" opacity="1.00" d=" M 521.98 323.97 C 521.54 320.74 524.73 317.55 527.96 317.98 C 536.19 318.15 544.45 317.67 552.66 318.22 C 554.10 319.50 556.21 320.80 555.98 323.01 C 556.06 339.67 555.95 356.33 556.01 372.99 C 571.35 373.02 586.70 372.99 602.04 372.98 C 605.26 372.55 608.45 375.73 608.02 378.96 C 608.01 385.99 608.01 393.01 608.02 400.03 C 608.45 403.26 605.26 406.45 602.04 406.02 C 586.69 406.01 571.35 405.98 556.01 406.02 C 555.99 422.36 556.00 438.70 556.02 455.04 C 556.45 458.26 553.26 461.45 550.04 461.02 C 541.81 460.85 533.55 461.33 525.34 460.78 C 523.90 459.49 521.78 458.19 522.02 455.98 C 521.94 439.32 522.04 422.67 521.99 406.01 C 506.04 405.90 490.09 406.17 474.15 405.90 C 471.59 404.79 468.61 402.18 468.98 399.04 C 469.15 391.82 468.64 384.55 469.25 377.36 C 471.01 375.33 472.88 372.49 475.97 372.98 C 491.30 372.99 506.65 373.02 521.99 372.99 C 522.02 356.65 522.00 340.31 521.98 323.97 Z" />
        <path fill="#fefffe" opacity="1.00" d=" M 187.87 685.86 C 199.54 677.65 214.52 674.35 228.59 676.63 C 234.56 677.63 240.15 680.04 245.99 681.55 C 247.01 680.21 248.00 678.87 249.04 677.55 C 250.56 677.76 252.09 677.89 253.63 677.97 C 253.45 688.62 254.19 699.28 254.20 709.92 C 254.10 712.56 251.08 712.57 249.13 712.45 C 245.94 703.79 243.24 694.29 235.90 688.11 C 228.52 680.98 216.29 680.42 207.76 685.76 C 198.12 692.26 192.45 703.36 190.29 714.56 C 188.31 726.02 188.70 738.19 192.92 749.13 C 196.48 758.48 204.38 766.54 214.36 768.69 C 223.54 770.72 234.10 769.66 241.53 763.48 C 247.05 758.52 248.99 750.94 250.29 743.92 C 252.14 744.10 254.00 744.26 255.86 744.38 C 255.07 752.78 252.84 761.57 246.78 767.78 C 239.62 775.10 229.02 777.95 219.02 778.01 C 205.75 778.22 191.64 774.60 182.13 764.87 C 171.17 754.14 167.35 737.94 168.73 723.03 C 169.85 708.82 176.06 694.38 187.87 685.86 Z" />
        <path fill="#fefffe" opacity="1.00" d=" M 304.30 678.28 C 306.39 678.10 308.48 678.25 310.57 678.35 C 319.80 700.78 329.12 723.17 338.38 745.59 C 341.33 752.21 343.47 759.32 347.69 765.30 C 350.50 769.36 355.80 769.65 360.25 770.26 C 360.49 772.29 360.68 775.60 357.84 775.71 C 343.57 775.84 329.30 775.76 315.03 775.75 C 311.91 776.16 311.40 772.57 311.76 770.27 C 315.49 769.60 320.01 769.84 322.80 766.82 C 325.13 764.30 324.30 760.56 323.24 757.67 C 320.76 751.20 317.95 744.87 315.54 738.38 C 306.42 738.20 297.30 738.35 288.18 738.29 C 286.01 743.78 283.79 749.25 281.80 754.81 C 280.64 758.43 279.47 762.78 281.80 766.21 C 283.79 769.39 287.88 769.72 291.23 770.31 C 291.38 772.29 291.45 775.45 288.83 775.69 C 279.88 775.93 270.91 775.66 261.94 775.81 C 260.60 775.56 258.84 776.19 257.81 775.10 C 256.29 773.93 256.88 771.91 256.72 770.29 C 259.52 769.87 262.54 769.66 264.90 767.91 C 268.38 765.31 270.62 761.44 272.54 757.62 C 275.87 750.69 278.41 743.42 281.25 736.28 C 288.33 718.03 295.46 699.80 302.47 681.52 C 303.01 680.41 303.25 679.03 304.30 678.28 M 290.94 731.10 C 298.06 731.31 305.19 731.30 312.31 731.11 C 309.05 721.94 305.09 713.04 301.54 703.98 C 297.46 712.79 294.44 722.05 290.94 731.10 Z" />
        <path fill="#fefffe" opacity="1.00" d=" M 360.92 683.70 C 360.90 681.57 360.98 677.91 364.01 678.27 C 377.34 678.15 390.68 678.27 404.01 678.22 C 412.69 678.40 421.59 678.22 429.92 681.06 C 443.26 685.18 454.02 695.97 459.11 708.85 C 464.37 722.00 464.64 737.22 459.48 750.45 C 455.98 759.73 448.80 767.72 439.58 771.57 C 431.52 774.99 422.60 775.38 413.97 775.73 C 396.71 775.79 379.44 775.83 362.18 775.71 C 361.20 774.02 360.59 772.18 360.59 770.23 C 364.45 769.81 368.99 769.98 371.82 766.82 C 375.07 763.81 374.95 759.03 375.20 754.97 C 375.26 736.65 375.22 718.34 375.22 700.03 C 374.99 695.82 375.25 691.05 372.40 687.62 C 369.57 684.31 364.89 684.22 360.92 683.70 M 394.25 684.79 C 394.37 707.55 394.27 730.30 394.30 753.06 C 394.38 757.53 394.70 762.57 398.06 765.93 C 401.42 769.32 406.50 769.87 411.03 769.75 C 417.83 769.78 424.92 767.73 429.81 762.82 C 438.86 754.17 442.78 741.30 442.47 729.01 C 442.47 714.25 436.27 698.78 423.80 690.27 C 415.20 684.35 404.28 684.07 394.25 684.79 Z" />
        <path fill="#fefffe" opacity="1.00" d=" M 471.22 681.71 C 470.93 679.69 473.11 677.98 475.03 678.24 C 488.02 678.19 501.02 678.25 514.01 678.22 C 519.30 678.30 524.62 678.37 529.86 679.20 C 540.61 680.95 549.96 690.08 551.30 701.00 C 552.14 707.56 551.32 714.76 547.14 720.12 C 542.75 725.85 535.57 728.69 528.56 729.40 C 520.67 729.98 512.75 729.64 504.84 729.84 C 504.70 738.22 504.79 746.60 504.76 754.99 C 504.89 759.09 505.02 763.79 508.09 766.91 C 510.96 769.84 515.33 769.83 519.13 770.24 C 519.07 772.35 519.04 776.08 515.99 775.73 C 502.05 775.78 488.09 775.84 474.16 775.70 C 471.47 775.55 471.08 772.44 471.01 770.33 C 475.00 769.78 479.68 769.82 482.59 766.55 C 485.75 763.24 485.40 758.30 485.67 754.07 C 485.72 736.02 485.71 717.98 485.67 699.93 C 485.45 695.07 485.65 688.92 481.02 685.96 C 478.08 683.77 473.25 685.12 471.22 681.71 M 504.84 684.68 C 504.73 697.57 504.72 710.45 504.84 723.34 C 510.85 723.34 517.47 724.06 522.85 720.84 C 533.85 713.63 533.59 695.35 523.32 687.65 C 518.03 683.61 511.05 684.56 504.84 684.68 Z" />
        <path fill="#fefffe" opacity="1.00" d=" M 597.12 678.20 C 599.31 678.23 601.51 678.24 603.72 678.25 C 614.28 703.71 624.79 729.20 635.37 754.65 C 637.18 758.66 638.77 762.92 641.73 766.27 C 644.81 769.66 649.77 769.55 653.94 770.36 C 653.63 772.04 654.12 774.32 652.36 775.34 C 651.02 775.97 649.46 775.70 648.04 775.81 C 634.70 775.69 621.35 775.86 608.01 775.73 C 604.97 776.08 604.89 772.41 604.94 770.29 C 608.86 769.61 613.68 769.79 616.40 766.37 C 618.37 763.50 617.22 759.80 616.15 756.82 C 613.70 750.63 611.10 744.51 608.66 738.32 C 599.54 738.28 590.41 738.28 581.29 738.33 C 579.37 743.64 577.19 748.86 575.20 754.15 C 573.98 757.92 572.53 762.45 574.97 766.06 C 576.98 769.53 581.36 769.73 584.86 770.49 C 584.60 772.47 584.55 775.61 581.85 775.70 C 572.24 775.86 562.62 775.79 553.01 775.73 C 549.98 776.08 549.90 772.41 549.91 770.30 C 552.89 769.83 556.15 769.59 558.57 767.57 C 563.37 763.64 565.83 757.71 568.22 752.15 C 578.05 727.58 587.29 702.77 597.12 678.20 M 594.46 703.92 C 591.03 713.00 587.47 722.03 584.12 731.13 C 591.25 731.28 598.39 731.32 605.52 731.11 C 602.11 721.95 598.55 712.80 594.46 703.92 Z" />
        <path fill="#fefffe" opacity="1.00" d=" M 481.67 868.68 C 495.05 868.65 508.44 868.60 521.82 868.71 C 521.79 871.12 521.80 873.55 521.83 875.98 C 508.44 876.03 495.05 875.98 481.66 876.00 C 481.66 873.55 481.66 871.11 481.67 868.68 Z" />
        <path fill="#fefffe" opacity="1.00" d=" M 481.66 888.00 C 495.05 888.01 508.44 887.97 521.83 888.03 C 521.80 890.44 521.79 892.86 521.82 895.29 C 508.44 895.40 495.05 895.34 481.67 895.32 C 481.66 892.87 481.66 890.43 481.66 888.00 Z" />
        <path fill="#fefffe" opacity="1.00" d=" M 182.00 930.00 C 195.88 930.03 209.76 929.93 223.64 930.06 C 223.56 936.01 223.56 941.98 223.64 947.94 C 209.76 948.07 195.88 947.96 182.00 948.00 C 182.00 942.00 182.00 936.00 182.00 930.00 Z" />
        <path fill="#fefffe" opacity="1.00" d=" M 286.83 970.32 C 290.62 965.58 293.47 960.20 295.90 954.67 C 298.58 958.86 301.01 963.22 303.21 967.70 C 306.10 965.01 309.03 962.35 311.98 959.73 C 312.01 963.13 311.99 966.53 312.00 969.95 C 300.81 970.79 289.59 971.09 278.39 971.67 C 278.42 968.46 278.41 965.25 278.40 962.05 C 281.44 964.56 284.18 967.41 286.83 970.32 Z" />
    </g>
</svg>